<?xml version="1.0" encoding="UTF-8" standalone="no"?>
<!-- Generator: Adobe Illustrator 19.0.0, SVG Export Plug-In . SVG Version: 6.00 Build 0)  -->

<svg
   xmlns:dc="http://purl.org/dc/elements/1.1/"
   xmlns:cc="http://creativecommons.org/ns#"
   xmlns:rdf="http://www.w3.org/1999/02/22-rdf-syntax-ns#"
   xmlns:svg="http://www.w3.org/2000/svg"
   xmlns="http://www.w3.org/2000/svg"
   xmlns:sodipodi="http://sodipodi.sourceforge.net/DTD/sodipodi-0.dtd"
   xmlns:inkscape="http://www.inkscape.org/namespaces/inkscape"
   version="1.1"
   id="Capa_1"
   x="0px"
   y="0px"
   viewBox="0 0 480 480"
   style="enable-background:new 0 0 480 480;"
   xml:space="preserve"
   sodipodi:docname="atlas.svg"
   inkscape:version="0.92.4 (5da689c313, 2019-01-14)"><metadata
   id="metadata911"><rdf:RDF><cc:Work
       rdf:about=""><dc:format>image/svg+xml</dc:format><dc:type
         rdf:resource="http://purl.org/dc/dcmitype/StillImage" /></cc:Work></rdf:RDF></metadata><defs
   id="defs909" /><sodipodi:namedview
   pagecolor="#ffffff"
   bordercolor="#666666"
   borderopacity="1"
   objecttolerance="10"
   gridtolerance="10"
   guidetolerance="10"
   inkscape:pageopacity="0"
   inkscape:pageshadow="2"
   inkscape:window-width="1920"
   inkscape:window-height="1017"
   id="namedview907"
   showgrid="false"
   inkscape:zoom="0.88333333"
   inkscape:cx="190.86466"
   inkscape:cy="280.24745"
   inkscape:window-x="-8"
   inkscape:window-y="-8"
   inkscape:window-maximized="1"
   inkscape:current-layer="Capa_1" />
<g
   id="g868"
   transform="matrix(1.4997051,0,0,1.4997051,-128.41982,-94.917453)">
	<g
   id="g866">
		<path
   d="m 240,88 c -70.692,0 -128,57.308 -128,128 0.081,70.659 57.341,127.919 128,128 70.692,0 128,-57.308 128,-128 C 368,145.308 310.692,88 240,88 Z m -36.45,22.21 c -5.673,7.979 -10.313,16.644 -13.806,25.79 h -27.978 c 11.851,-11.579 26.121,-20.387 41.784,-25.79 z M 148.218,152 h 36.151 c -4.999,18.263 -7.744,37.07 -8.174,56 h -47.79 c 1.405,-20.118 8.254,-39.475 19.813,-56 z m -5.064,120 c -8.516,-14.664 -13.562,-31.084 -14.749,-48 h 47.79 c 0.408,16.166 2.457,32.248 6.116,48 z m 11.178,16 h 32.442 c 3.834,12.054 9.492,23.449 16.776,33.789 C 184.396,315.173 167.389,303.497 154.332,288 Z M 232,326.107 C 221.613,321.409 211.377,307.917 203.853,288 H 232 Z M 232,272 h -33.217 c -3.973,-15.706 -6.184,-31.805 -6.592,-48 H 232 Z m 0,-64 h -39.809 c 0.423,-18.982 3.411,-37.819 8.884,-56 H 232 Z m 0,-72 h -24.831 c 4.588,-12.581 13.353,-23.208 24.831,-30.107 z m 99.782,16 c 11.559,16.525 18.408,35.882 19.813,56 h -47.79 c -0.43,-18.93 -3.175,-37.737 -8.174,-56 z m -13.548,-16 h -27.978 c -3.494,-9.145 -8.133,-17.811 -13.806,-25.79 15.663,5.403 29.933,14.211 41.784,25.79 z M 248,105.893 c 11.478,6.899 20.243,17.526 24.831,30.107 H 248 Z M 248,152 h 30.925 c 5.473,18.181 8.461,37.018 8.884,56 H 248 Z m 0,72 h 39.809 c -0.408,16.195 -2.619,32.294 -6.592,48 H 248 Z m 0,102.107 V 288 h 28.147 c -7.524,19.916 -17.76,33.409 -28.147,38.107 z m 28.45,-4.318 v 0 c 7.284,-10.341 12.942,-21.736 16.776,-33.789 h 32.442 c -13.057,15.497 -30.064,27.173 -49.218,33.789 z M 336.846,272 h -39.157 c 3.659,-15.752 5.708,-31.834 6.116,-48 h 47.79 c -1.187,16.916 -6.232,33.336 -14.749,48 z"
   id="path864"
   inkscape:connector-curvature="0" />
	</g>
</g>

<g
   id="g876">
</g>
<g
   id="g878">
</g>
<g
   id="g880">
</g>
<g
   id="g882">
</g>
<g
   id="g884">
</g>
<g
   id="g886">
</g>
<g
   id="g888">
</g>
<g
   id="g890">
</g>
<g
   id="g892">
</g>
<g
   id="g894">
</g>
<g
   id="g896">
</g>
<g
   id="g898">
</g>
<g
   id="g900">
</g>
<g
   id="g902">
</g>
<g
   id="g904">
</g>
<path
   style="fill:#f71bdd;fill-opacity:1;stroke-width:1.6977793"
   d="M 197.43713,417.18323 C 138.89268,406.05142 87.376675,367.41256 61.187456,314.9911 45.797656,284.18624 39.816084,256.08212 41.172337,220.95117 42.614095,183.6052 53.583118,150.538 74.628228,120.09519 85.389666,104.52823 110.44254,80.10525 126.67482,69.357222 189.61846,27.679728 271.85921,27.62951 335.85355,69.229447 c 17.31061,11.252866 44.04006,37.447553 54.33764,53.250463 45.85301,70.3672 42.79585,156.47998 -7.92789,223.31092 -25.3526,33.40324 -62.18956,57.53712 -105.15357,68.89175 -17.1771,4.5396 -61.61409,5.93431 -79.6726,2.5006 z m 23.20162,-51.92081 v -28.86225 h -22.07113 c -12.13912,0 -22.07113,0.56715 -22.07113,1.26031 0,0.69316 3.58888,8.49177 7.97529,17.33024 5.93279,11.95435 10.87645,19.02333 19.30328,27.60195 16.83583,17.13908 16.86369,17.11044 16.86369,-17.33025 z m 38.01398,18.20697 c 9.4685,-9.65677 20.88577,-28.0539 26.3824,-42.51113 l 1.73297,-4.55809 h -22.02911 -22.02911 v 28.86225 c 0,34.22446 0.11207,34.35247 15.94285,18.20697 z m -82.15624,2.85292 c 0,-0.55619 -1.43279,-3.0392 -3.18397,-5.51778 -4.372,-6.18806 -16.26447,-30.27117 -18.78339,-38.03769 l -2.06489,-6.36667 H 126.75381 101.0434 l 10.9865,11.10346 c 13.09558,13.23495 30.6596,25.70838 47.69883,33.8742 11.89248,5.69933 16.76776,7.13694 16.76776,4.94448 z m 124.69887,-3.91885 c 5.9802,-2.71156 16.1799,-8.36304 22.66595,-12.55887 11.76019,-7.60764 35.99536,-29.12065 35.99536,-31.95229 0,-0.82068 -10.96921,-1.49213 -24.37602,-1.49213 h -24.37598 l -6.29648,15.1908 c -3.46309,8.35492 -9.28523,19.81493 -12.93814,25.46669 -7.7537,11.99649 -6.68882,12.60694 9.32531,5.3458 z M 145.37623,310.50904 c -3.23024,-13.29244 -6.46537,-35.36022 -7.5348,-51.39711 l -1.24277,-18.63629 H 100.1297 63.660739 l 0.550658,7.62667 c 0.902343,12.49754 7.920408,37.4436 14.716845,52.31181 l 6.360676,13.91492 h 30.507832 30.5078 z m 75.26252,-33.53115 V 239.62674 H 189.8207 159.00268 l 1.07552,17.57787 c 0.95829,15.66214 6.88596,52.36484 9.01304,55.80653 0.44799,0.72484 12.22943,1.3179 26.18102,1.3179 h 25.36649 z m 74.54589,30.98449 c 3.1053,-11.82263 6.92552,-36.83247 8.03934,-52.63118 l 1.10715,-15.70446 H 273.5205 242.70988 v 37.35115 37.35115 h 25.40125 25.40124 z m 84.69474,0.84888 c 8.1834,-13.59309 16.74867,-40.73442 18.48463,-58.5734 l 1.0326,-10.61112 h -36.48976 -36.48977 l -1.06817,17.40224 c -0.93139,15.17398 -3.37029,32.60286 -7.24611,51.78228 l -1.11507,5.51778 h 29.7849 29.78489 z M 137.72995,199.67577 c 1.20634,-18.16097 5.14124,-43.68242 8.97664,-58.22174 l 2.3394,-8.8682 -28.25595,0.46485 -28.255929,0.46485 -6.072981,10.18667 c -11.349429,19.03728 -20.045836,44.72797 -22.568282,66.67052 l -0.833244,7.24824 36.769521,-0.45713 36.769535,-0.45711 z m 82.9088,-24.56465 v -42.44449 h -24.28364 -24.28362 l -3.74608,15.70446 c -4.81807,20.19847 -8.78396,46.98832 -8.79671,59.42228 l -0.0104,9.76225 h 30.56003 30.56004 z m 82.44314,25.89114 c -1.30006,-17.73753 -6.27469,-47.37288 -10.04596,-59.84673 l -2.30982,-7.64 -24.00813,-0.47107 -24.0081,-0.47105 v 42.4911 42.49111 h 30.79264 30.79264 z m 95.19769,5.86635 c -2.11999,-20.69218 -14.11006,-54.03888 -24.85672,-69.13114 l -3.61074,-5.07084 h -28.01216 c -25.89517,0 -27.94296,0.22453 -27.09661,2.97113 5.04926,16.38549 11.10818,55.54369 11.16458,72.15561 l 0.0332,9.76225 h 36.7367 36.73672 z M 160.37453,101.07919 c 2.3147,-5.233987 6.97161,-14.064798 10.34866,-19.62404 3.37706,-5.559219 5.70424,-10.543546 5.17155,-11.076239 -0.53269,-0.532694 -8.82824,2.907787 -18.43452,7.645489 -16.46642,8.121052 -43.78159,27.43703 -43.78159,30.96023 0,0.93015 8.97712,1.61087 21.24366,1.61087 h 21.24365 z m 59.88768,-14.677036 c 0.25981,-12.839452 -0.13616,-23.344465 -0.88001,-23.344465 -2.05445,0 -16.15775,12.017219 -21.94563,18.699591 -5.69595,6.576216 -13.17494,19.11708 -14.95401,25.07507 l -1.15764,3.87684 19.23247,-0.48128 19.23247,-0.48131 z m 60.28606,23.140176 c 0.57925,-0.57924 -1.28759,-5.69021 -4.14853,-11.357707 -5.54527,-10.985072 -19.85178,-27.194385 -28.46585,-32.25181 l -5.22401,-3.067109 V 85.59876 c 0,12.503159 0.50933,23.24238 1.13186,23.86489 1.4285,1.42851 35.28413,1.50108 36.70653,0.0787 z m 67.96925,-0.058 c 2.92598,-2.926 -27.3789,-24.681386 -47.02477,-33.75836 -15.84534,-7.320968 -17.65545,-7.37087 -13.0384,-0.35933 1.99838,3.034778 7.04708,12.202793 11.21932,20.373354 l 7.58591,14.855556 h 20.07335 c 11.04034,0 20.5734,-0.50004 21.18459,-1.11122 z"
   id="path913"
   inkscape:connector-curvature="0" /><path
   style="fill:#0c8cbe;fill-opacity:1;stroke-width:1.6977793"
   d="M 192.62538,415.38888 C 117.88742,398.99292 58.843897,338.49797 44.795844,263.92534 41.014988,243.85518 42.245518,202.43254 47.207234,182.75113 55.955987,148.0478 69.806301,124.02718 96.700851,96.914269 125.6981,67.681555 147.23663,54.928774 184.86013,44.715878 c 14.72298,-3.996553 19.13298,-4.408304 46.81419,-4.370943 27.42597,0.03701 32.22953,0.490158 46.83931,4.418568 71.38405,19.194361 126.32008,77.881467 139.89608,149.448247 3.29625,17.37655 3.29625,51.38229 0,68.75886 -8.69727,45.8482 -35.5499,89.77176 -71.35748,116.72134 -24.44508,18.39789 -57.33953,32.81065 -83.04374,36.38579 -17.66645,2.45718 -58.85427,2.05971 -71.38311,-0.68886 z m 27.62997,-50.57257 0.46551,-28.41614 h -22.11219 c -14.9223,0 -22.11218,0.606 -22.11218,1.86374 0,1.02507 3.24037,8.40309 7.20084,16.39564 7.91814,15.97951 28.44957,40.04037 33.36209,39.09715 2.35651,-0.45246 2.79418,-4.41578 3.19593,-28.94039 z m 37.13159,20.39502 c 12.15261,-12.56784 24.50653,-32.0628 28.51086,-44.99116 l 1.18317,-3.82 h -22.18554 -22.18555 v 27.73039 c 0,15.25173 0.50933,28.23976 1.13186,28.86227 2.42384,2.42382 5.24326,0.80411 13.5452,-7.7815 z m -80.89045,0.26209 c 0,-1.02309 -1.50355,-3.97167 -3.34121,-6.55243 -3.73806,-5.24961 -15.71229,-29.50085 -18.46452,-37.39593 l -1.78656,-5.12489 -26.82835,0.0733 -26.82834,0.0733 11.88446,11.17818 c 14.84029,13.95832 29.44563,24.441 45.95995,32.98677 12.81358,6.63075 19.40457,8.24807 19.40457,4.7616 z m 129.47662,-4.83155 c 7.19668,-3.68041 16.34358,-8.95453 20.32644,-11.72027 12.58046,-8.736 33.55712,-27.58079 33.55712,-30.14669 0,-2.06458 -4.04043,-2.38912 -24.84671,-1.99567 l -24.84672,0.46982 -6.28013,14.43112 c -3.45407,7.93712 -8.69906,18.33563 -11.65554,23.10781 -2.95648,4.77217 -5.37543,9.54717 -5.37543,10.61112 0,3.4901 5.83079,2.03942 19.12097,-4.75724 z M 144.01447,299.70725 c -1.62814,-8.04196 -3.8825,-24.84999 -5.00971,-37.35115 l -2.04948,-22.72936 H 99.850271 62.745252 l 0.0294,3.82001 c 0.0882,11.43271 10.544653,47.79842 18.062344,62.81783 l 4.036509,8.06446 h 31.050575 31.05057 l -2.96025,-14.62179 z m 76.62428,-22.72936 v -37.35115 h -31.3829 -31.38288 l 0.94654,10.61112 c 1.47525,16.53837 5.41206,45.34818 7.53993,55.17783 l 1.92952,8.91335 h 26.1749 26.17489 z m 77.05494,22.49558 c 2.88086,-15.81887 5.34577,-34.14429 6.73678,-50.0845 l 0.85191,-9.76223 h -31.28625 -31.28625 v 37.35115 37.35115 h 26.1392 26.1392 z m 85.54037,4.24446 c 6.56841,-13.48669 13.51144,-35.64244 14.84447,-47.3698 0.56774,-4.99476 1.38263,-10.80038 1.81089,-12.90138 l 0.77864,-3.82001 h -37.24835 -37.24837 l -1.06163,11.46001 c -2.03957,22.01661 -4.63425,42.10196 -6.79904,52.63118 l -2.18165,10.61111 h 30.96855 30.96855 z M 138.19497,202.70004 c 1.29426,-16.73333 6.76333,-52.5373 9.39922,-61.5333 0.9558,-3.26206 1.73782,-6.5271 1.73782,-7.25565 0,-0.72855 -13.17418,-1.11559 -29.27593,-0.8601 l -29.275935,0.46454 -8.885439,17.82667 c -9.34214,18.74296 -16.281709,40.12939 -18.323139,56.4684 l -1.217548,9.74502 h 37.345948 37.345963 z m 82.44378,-27.58892 v -42.44449 h -24.55237 -24.55236 l -1.92936,7.16507 c -4.73198,17.5733 -8.54054,41.0167 -9.52387,58.62389 l -1.0667,19.10003 h 30.81233 30.81233 z m 83.88257,33.53114 c -2.50014,-26.32856 -7.2369,-55.59686 -11.25174,-69.52445 l -1.81093,-6.28217 -24.37704,-0.50895 -24.37701,-0.50894 0.003,42.86893 0.003,42.86894 h 31.32893 31.32892 l -0.84641,-8.91336 z m 95.35821,5.09335 c -0.4337,-2.10101 -1.27894,-7.64001 -1.8783,-12.30891 -1.64251,-12.79496 -11.84803,-42.62418 -19.16853,-56.02672 l -6.49131,-11.88445 -29.16239,-0.46454 c -16.03932,-0.25549 -29.16238,-0.0426 -29.16238,0.47294 0,0.51562 1.86188,10.27468 4.13752,21.68679 3.40933,17.09743 7.74694,50.74431 7.74694,60.09308 0,1.80237 7.46124,2.25182 37.38348,2.25182 h 37.3835 z M 220.63875,86.723815 c 0,-19.669833 -0.42064,-23.666126 -2.49105,-23.666126 -4.35104,0 -26.95487,24.085965 -31.88899,33.97995 -7.35596,14.750301 -7.63801,14.486741 14.85224,13.879531 l 19.5278,-0.52723 z m -53.82932,4.083609 c 5.41055,-10.822039 9.41934,-20.09448 8.9084,-20.605428 -3.69071,-3.690704 -62.0392,32.193084 -62.0392,38.153534 0,1.74057 4.82611,2.22752 21.64671,2.18413 l 21.64668,-0.0558 z M 280.80925,106.7755 c -2.24425,-7.275232 -6.33101,-14.054628 -14.80509,-24.559618 -7.5703,-9.384615 -18.85087,-19.158193 -22.1122,-19.158193 -0.65015,0 -1.18208,10.695994 -1.18208,23.768916 V 110.5955 h 19.63888 c 19.58353,0 19.63555,-0.0104 18.46049,-3.82 z m 68.86073,2.45527 c 0,-2.28922 -10.43477,-11.400357 -21.91294,-19.133312 -17.83514,-12.015697 -42.60267,-23.495864 -42.60267,-19.747049 0,0.275876 4.20698,8.106893 9.34885,17.402232 5.14189,9.295352 9.77736,18.237649 10.30109,19.871759 0.84207,2.62739 3.49238,2.9711 22.90895,2.9711 12.07619,0 21.95672,-0.61413 21.95672,-1.36473 z"
   id="path915"
   inkscape:connector-curvature="0" /></svg>