<?xml version="1.0" encoding="UTF-8" standalone="no"?>
<!-- Svg Vector Icons : http://www.onlinewebfonts.com/icon -->

<svg
   xmlns:dc="http://purl.org/dc/elements/1.1/"
   xmlns:cc="http://creativecommons.org/ns#"
   xmlns:rdf="http://www.w3.org/1999/02/22-rdf-syntax-ns#"
   xmlns:svg="http://www.w3.org/2000/svg"
   xmlns="http://www.w3.org/2000/svg"
   xmlns:sodipodi="http://sodipodi.sourceforge.net/DTD/sodipodi-0.dtd"
   xmlns:inkscape="http://www.inkscape.org/namespaces/inkscape"
   version="1.1"
   x="0px"
   y="0px"
   viewBox="0 0 1000 1000"
   enable-background="new 0 0 1000 1000"
   xml:space="preserve"
   id="svg847"
   sodipodi:docname="classifications.svg"
   inkscape:version="0.92.4 (5da689c313, 2019-01-14)"><defs
   id="defs851" /><sodipodi:namedview
   pagecolor="#ffffff"
   bordercolor="#666666"
   borderopacity="1"
   objecttolerance="10"
   gridtolerance="10"
   guidetolerance="10"
   inkscape:pageopacity="0"
   inkscape:pageshadow="2"
   inkscape:window-width="1920"
   inkscape:window-height="1017"
   id="namedview849"
   showgrid="false"
   inkscape:zoom="0.3337544"
   inkscape:cx="-988.08113"
   inkscape:cy="523.1689"
   inkscape:window-x="-8"
   inkscape:window-y="-8"
   inkscape:window-maximized="1"
   inkscape:current-layer="svg847" />
<metadata
   id="metadata841"> Svg Vector Icons : http://www.onlinewebfonts.com/icon <rdf:RDF><cc:Work
     rdf:about=""><dc:format>image/svg+xml</dc:format><dc:type
       rdf:resource="http://purl.org/dc/dcmitype/StillImage" /></cc:Work></rdf:RDF></metadata>
<g
   id="g845"><path
     d="M304.8,407.2c-20.3,0-36.7-17-36.7-37c0-20.5,16.5-37,36.7-37c216.3,0,432.2,0,648.7,0c20,0,36.5,16.5,36.5,37c0,20-16.5,37-36.5,37C736.9,407.2,521.1,407.2,304.8,407.2L304.8,407.2z M304.8,146.6L304.8,146.6c-20.3,0-36.7-16-36.7-36.5c0-20.5,16.5-36.5,36.7-36.5h648.7c20,0,36.5,16,36.5,36.5c0,20.5-16.5,36.5-36.5,36.5H304.8L304.8,146.6z M99.3,21.2L99.3,21.2c24.5,0,46.4,10.4,62.7,25.5v0.7c16,16.3,25.9,38.2,25.9,62.7c0,24.7-9.9,46.4-25.9,62.9l0,0c-16.2,15.8-38.2,25.9-62.7,25.9c-24.7,0-47.1-10.1-62.9-25.9l0,0C20.1,156.5,10,134.1,10,110c0-24.5,10.1-46.4,26.4-62.7v-0.7l0,0C52.6,31.6,74.5,21.2,99.3,21.2L99.3,21.2z M131.1,78.2L131.1,78.2c-8.7-8-19.5-13.2-31.8-13.2c-12.7,0-23.5,5.2-31.6,13.2h-0.5C59.5,86.7,54,98,54,110c0,12,5.4,23.6,13.2,31.8h0.5c8,8,18.9,13.2,31.6,13.2c12.3,0,23.1-5.2,31.8-13.2l0,0c7.8-8.2,12.5-19.8,12.5-31.8C143.6,98,138.9,86.7,131.1,78.2L131.1,78.2L131.1,78.2z M304.8,926.7L304.8,926.7c-20.3,0-36.7-16.7-36.7-36.5c0-20.3,16.5-37.2,36.7-37.2h648.7c20,0,36.5,17,36.5,37.2c0,19.8-16.5,36.5-36.5,36.5H304.8L304.8,926.7z M99.3,801.2L99.3,801.2c24.5,0,46.4,9.9,62.7,25.9v0.5c16,15.5,25.9,37.7,25.9,62.7c0,24.1-9.9,46.2-25.9,62.2c-16.2,16-38.2,26.4-62.7,26.4c-24.7,0-47.1-10.4-62.9-26.4l0,0c-16.3-16-26.4-38.2-26.4-62.2c0-25,10.1-47.1,26.4-62.7v-0.5l0,0C52.6,811,74.5,801.2,99.3,801.2L99.3,801.2z M131.1,858.2L131.1,858.2c-8.7-8.2-19.5-13-31.8-13c-12.7,0-23.5,4.7-31.6,13h-0.5c-7.8,8-13.2,19.3-13.2,32c0,12,5.4,23.6,13.2,31.4h0.5c8,7.8,18.9,13,31.6,13c12.3,0,23.1-5.2,31.8-13l0,0c7.8-7.8,12.5-19.3,12.5-31.4C143.6,877.5,138.9,866.2,131.1,858.2L131.1,858.2z M304.8,666.8L304.8,666.8c-20.3,0-36.7-16-36.7-37c0-20.5,16.5-37.3,36.7-37.3c216.3,0,432.2,0,648.7,0c20,0,36.5,16.7,36.5,37.3c0,20.9-16.5,37-36.5,37C736.9,666.8,521.1,666.8,304.8,666.8L304.8,666.8z M99.3,541.3L99.3,541.3c24.5,0,46.4,10.1,62.7,25.7c0,0,0,0,0.5,0c15.6,16.5,25.4,38.2,25.4,62.9c0,24.3-9.9,46.9-25.4,62.7H162c-16.2,16.3-38.2,26.2-62.7,26.2c-24.7,0-47.1-9.9-62.9-26.2l0,0l0,0C20.1,676.3,10,654.1,10,629.9c0-24.7,10.1-46.4,26.4-62.9l0,0l0,0C52.6,551.4,74.5,541.3,99.3,541.3L99.3,541.3z M131.1,598L131.1,598c-8.7-7.5-19.5-13-31.8-13c-12.7,0-23.5,5.4-31.6,13h-0.5c-7.8,8.3-13.2,19.3-13.2,31.8c0,12.5,5.4,23.8,13.2,31.3h0.5c8,8.9,18.9,13.2,31.6,13.2c12.3,0,23.1-4.3,31.8-12.7v-0.5c7.8-7.5,12.5-18.9,12.5-31.3C143.6,617.4,138.9,606.3,131.1,598L131.1,598L131.1,598z M99.3,281.1L99.3,281.1c24.5,0,46.4,9.9,62.7,26.2h0.5c15.6,16.5,25.4,38.4,25.4,62.9c0,24.3-9.9,46.4-25.4,62.4c-0.5,0.5-0.5,0.5-0.5,0.5c-16.2,15.8-38.2,25.7-62.7,25.7c-24.7,0-47.1-9.9-62.9-25.7v-0.5c-16.3-16-26.4-38.2-26.4-62.4c0-24.5,10.1-46.4,26.4-62.9l0,0v-0.5C52.6,291,74.5,281.1,99.3,281.1L99.3,281.1z M131.1,338.4L131.1,338.4c-8.7-8-19.5-13.4-31.8-13.4c-12.7,0-23.5,5.4-31.6,13.4l-0.5,0.2c-7.8,7.8-13.2,18.6-13.2,31.6c0,12.5,5.4,23.8,13.2,31.4l0.5,0.5c8,7.5,18.9,13,31.6,13c12.3,0,23.1-5.4,31.8-13v-0.5c7.8-7.5,12.5-18.9,12.5-31.4c0-13-4.7-23.8-12.5-31.6V338.4L131.1,338.4z"
     id="path843" /></g>
<path
   style="fill:#0c8cbc;fill-opacity:1;stroke-width:4.237288"
   d="m 296.61017,923.31811 c -29.90102,-11.1159 -34.83615,-49.09279 -8.17152,-62.88161 10.21918,-5.28454 60.51274,-6.19921 340.86678,-6.19921 241.90868,0 331.32635,1.30356 338.13415,4.92942 22.59063,12.03185 26.80631,37.90351 8.91529,54.71332 l -10.93326,10.27251 -331.22775,0.76421 c -182.17527,0.42032 -334.08793,-0.29907 -337.58369,-1.59864 z"
   id="path1981"
   inkscape:connector-curvature="0" /><path
   style="fill:#0c8cbc;fill-opacity:1;stroke-width:4.237288"
   d="m 281.58706,653.15871 c -13.75994,-13.75994 -13.75994,-33.23544 0,-46.99538 l 10.40061,-10.40062 h 337.24962 337.24962 l 10.40059,10.40062 c 6.5561,6.55609 10.40064,15.24187 10.40064,23.49769 0,8.25581 -3.84454,16.94159 -10.40064,23.49769 l -10.40059,10.40061 H 629.23729 291.98767 Z"
   id="path1983"
   inkscape:connector-curvature="0" /><path
   style="fill:#0c8cbc;fill-opacity:1;stroke-width:4.237288"
   d="m 281.58706,394.68413 c -13.76186,-13.76185 -14.03041,-35.5596 -0.59362,-48.1828 l 9.80699,-9.21319 H 630.26217 969.7239 l 8.78212,11.16465 c 11.88673,15.11156 11.24771,33.36512 -1.61852,46.23134 l -10.40059,10.40062 H 629.23729 291.98767 Z"
   id="path1985"
   inkscape:connector-curvature="0" /><path
   style="fill:#0c8cbc;fill-opacity:1;stroke-width:4.237288"
   d="m 298.72881,143.62764 c -21.34289,-5.29072 -33.02601,-28.6444 -24.91025,-49.793732 7.40089,-19.286397 6.86998,-19.257637 355.48687,-19.257637 241.90868,0 331.32635,1.303557 338.13415,4.929419 22.59042,12.031736 26.80627,37.90336 8.91563,54.71332 l -10.93288,10.27252 -329.10947,0.61844 c -181.01021,0.34014 -332.92303,-0.3269 -337.58405,-1.48233 z"
   id="path1987"
   inkscape:connector-curvature="0" /><path
   style="fill:#0c8cbc;fill-opacity:1;stroke-width:4.237288"
   d="M 70.443919,191.23259 C 17.829305,172.47817 -3.7455725,105.29108 28.53645,60.72704 53.928831,25.673881 97.871496,14.637841 136.58103,33.592042 c 54.10596,26.493093 65.46925,94.286318 22.93366,136.821908 -25.56191,25.56191 -55.88212,32.6487 -89.070771,20.81864 z m 61.237961,-48.53376 c 9.8971,-9.89711 12.38592,-16.09344 12.38592,-30.83684 0,-21.333753 -7.86938,-34.563943 -26.19571,-44.040854 -17.04425,-8.813924 -37.043755,-4.89614 -50.975882,9.985868 -14.463382,15.449483 -17.661996,27.770796 -11.811373,45.498346 10.897021,33.01831 52.451185,43.53933 76.597045,19.39348 z"
   id="path1989"
   inkscape:connector-curvature="0" /><path
   style="fill:#0c8cbc;fill-opacity:1;stroke-width:0.74905378"
   d="M 86.082212,457.43274 C 64.414133,453.78228 47.088563,444.4951 33.817541,429.41687 8.9526188,401.1659 3.5336998,364.70237 19.374143,332.22824 c 13.049663,-26.75281 36.315788,-44.48225 64.909464,-49.46283 10.450446,-1.8203 26.975303,-1.1421 37.004133,1.5187 24.84697,6.59229 47.17832,25.07988 57.61209,47.69567 6.24706,13.54085 8.31605,23.28513 8.25181,38.86351 -0.0408,9.89537 -0.3363,12.77208 -2.00049,19.4754 -8.27051,33.31318 -32.37393,57.51266 -65.36152,65.62199 -9.41328,2.31406 -24.788494,2.99465 -33.707418,1.49206 z m 25.467828,-44.01165 c 14.57839,-4.17619 25.42274,-14.52494 30.09574,-28.72031 1.66452,-5.0564 1.97445,-7.33796 1.98412,-14.60654 0.01,-7.49041 -0.26297,-9.42173 -2.0924,-14.80507 -5.3644,-15.78553 -18.84349,-27.09652 -35.6718,-29.93399 -5.938434,-1.0013 -7.411658,-1.0013 -13.350097,0 -16.710116,2.81754 -31.398058,15.22016 -36.53724,30.85234 -2.822603,8.58569 -2.819122,19.19785 0.0091,27.8023 4.342316,13.21077 15.555404,24.44064 28.807544,28.85067 9.38106,3.12182 17.239473,3.28648 26.755013,0.5606 z"
   id="path2009"
   inkscape:connector-curvature="0" /><path
   style="fill:#0c8cbc;fill-opacity:1;stroke-width:0.74905378"
   d="M 89.078427,717.88852 C 68.260675,715.19024 51.782966,707.08756 36.950982,692.25558 11.002508,666.3071 3.4765271,630.01004 17.110723,596.56796 c 4.742342,-11.63206 14.393564,-25.21987 23.118315,-32.54793 35.595293,-29.89706 83.239592,-29.70307 118.357302,0.48193 24.93216,21.43011 35.11057,59.01502 24.84173,91.73082 -6.44833,20.54395 -18.01396,35.86234 -35.92345,47.57971 -11.19202,7.32244 -21.61788,11.41001 -34.38378,13.48053 -6.22659,1.00991 -18.499857,1.31389 -24.042413,0.5955 z m 22.418133,-44.93568 c 11.70715,-2.9006 22.01394,-11.25669 27.61865,-22.39144 6.81048,-13.53025 6.11481,-31.22895 -1.75327,-44.60492 -7.28487,-12.38451 -22.4263,-20.89518 -37.445408,-21.04725 -10.724331,-0.10859 -18.630386,2.50641 -27.994924,9.25957 -17.545861,12.65306 -23.11151,35.53707 -13.455057,55.3225 4.902283,10.04445 17.135028,20.48858 27.241134,23.25805 8.071811,2.21199 17.385725,2.28549 25.788875,0.20349 z"
   id="path2011"
   inkscape:connector-curvature="0" /><path
   style="fill:#0c8cbc;fill-opacity:1;stroke-width:0.74905378"
   d="M 83.907769,977.12246 C 52.64419,971.4767 25.98917,948.55019 15.038053,917.88626 9.1160013,901.30408 9.0448607,879.50238 14.857042,862.41386 c 8.702504,-25.58642 30.462554,-47.61648 55.252636,-55.93824 33.074582,-11.10277 68.817602,-2.58831 92.176192,21.95757 17.77941,18.68311 26.41036,41.56398 25.03683,66.37323 -2.26957,40.99375 -32.94397,75.29814 -73.68284,82.40241 -7.90634,1.37875 -21.843146,1.33827 -29.732091,-0.0864 z m 28.765851,-44.38877 c 5.666,-1.81367 13.0727,-6.02545 17.62771,-10.02392 4.5464,-3.99092 8.52024,-10.34432 11.10706,-17.75804 1.97765,-5.66788 2.23312,-7.38549 2.23312,-15.01416 0,-7.62867 -0.25547,-9.34628 -2.23312,-15.01416 -5.19598,-14.89146 -15.8717,-24.69928 -31.06775,-28.54204 -7.88292,-1.99343 -18.707482,-1.63106 -25.92341,0.86783 -10.760094,3.72623 -20.577967,12.35467 -25.560564,22.46392 -6.937808,14.07619 -6.938033,26.37042 -7.43e-4,40.4489 5.790608,11.75141 18.084175,21.05253 31.720612,23.9993 4.926736,1.06466 16.684085,0.30504 22.097085,-1.42763 z"
   id="path2013"
   inkscape:connector-curvature="0" /><path
   style="fill:#0c8cbe;fill-opacity:1;stroke-width:2.99621511"
   d="m 282.78749,652.42548 c -14.34535,-17.04849 -13.99345,-28.89498 1.3784,-46.40256 l 9.25574,-10.5417 H 629.96732 966.513 l 9.2068,11.16942 c 11.75646,14.26264 12.16182,27.68947 1.30875,43.35046 l -7.89803,11.39686 H 629.73392 290.33734 Z"
   id="path3183"
   inkscape:connector-curvature="0" /><path
   style="fill:#0c8cbe;fill-opacity:1;stroke-width:2.99621511"
   d="m 282.49145,393.73553 c -13.74488,-18.02048 -13.09787,-32.37249 2.21747,-49.18733 l 6.14029,-6.74148 h 339.44012 339.44014 l 7.59855,11.18227 c 10.77205,15.8525 10.20454,30.58437 -1.70047,44.14345 l -9.29903,10.59101 H 628.21906 290.10961 Z"
   id="path3185"
   inkscape:connector-curvature="0" /><path
   style="fill:#0c8cbe;fill-opacity:1;stroke-width:2.99621511"
   d="m 285.62506,133.93851 c -12.11097,-10.63358 -15.63473,-22.68225 -10.86257,-37.142037 6.24819,-18.9322 -8.97275,-18.162371 359.10363,-18.162371 h 333.57472 l 8.74286,9.78497 c 12.29431,13.759708 12.09384,29.635098 -0.55615,44.042648 l -9.29903,10.59101 H 631.16704 296.00559 Z"
   id="path3187"
   inkscape:connector-curvature="0" /><path
   style="fill:#0c8cbe;fill-opacity:1;stroke-width:2.99621511"
   d="m 356.20486,922.36849 -66.93137,-1.79792 -7.20357,-8.38181 c -13.27284,-15.44378 -13.1499,-32.87443 0.31992,-45.35784 5.88831,-5.45711 12.17807,-7.16544 32.08813,-8.71532 34.28237,-2.66867 606.87535,-2.10844 634.13489,0.62044 18.97668,1.89972 23.1194,3.38427 29.2131,10.4686 10.79165,12.54607 9.75253,29.18664 -2.63709,42.23017 l -9.7377,10.25163 -271.15747,1.23999 c -149.13661,0.68199 -301.27659,0.43092 -338.08884,-0.55794 z"
   id="path3189"
   inkscape:connector-curvature="0" /><path
   style="fill:#0c8cbe;fill-opacity:1;stroke-width:2.99621511"
   d="m 63.590401,969.11897 c -17.137755,-8.22679 -37.858796,-29.34378 -45.234657,-46.099 -7.468588,-16.96587 -7.137305,-49.96558 0.672815,-67.02025 15.223294,-33.24255 44.487982,-52.17738 80.409609,-52.02661 36.205412,0.15197 63.400042,17.93001 78.764882,51.49124 6.45642,14.10269 7.28304,19.40881 6.10828,39.20992 -1.46417,24.67935 -5.89202,35.94033 -20.81469,52.93632 -16.49949,18.79187 -33.15515,26.37009 -60.67947,27.60877 -20.816864,0.93682 -26.364317,0.0741 -39.226769,-6.10039 z M 123.5147,928.42198 c 13.18403,-7.26874 23.59708,-29.77531 20.97009,-45.32432 -3.65125,-21.61157 -23.63049,-38.93058 -44.910378,-38.93058 -35.290423,0 -58.646244,40.7168 -39.705098,69.21891 14.192946,21.35715 40.785236,27.63948 63.645386,15.03599 z"
   id="path3191"
   inkscape:connector-curvature="0" /><path
   style="fill:#0c8cbe;fill-opacity:1;stroke-width:2.99621511"
   d="M 81.859256,715.11378 C 53.019664,710.37386 22.745541,681.54431 14.439643,650.9112 3.9986752,612.4037 23.055369,571.79094 60.129287,553.53951 119.52937,524.29695 184.87858,564.3177 184.87858,629.9377 c 0,55.23493 -47.2913,94.33524 -103.019324,85.17608 z m 31.339014,-41.72871 c 22.55689,-6.26632 36.32558,-32.09597 29.70806,-55.73143 -8.96136,-32.00686 -46.923439,-44.16436 -72.004781,-23.0598 -22.893891,19.26394 -23.90044,48.7513 -2.350917,68.8713 13.038144,12.17324 26.094236,15.07408 44.647638,9.91993 z"
   id="path3193"
   inkscape:connector-curvature="0" /><path
   style="fill:#0c8cbe;fill-opacity:1;stroke-width:2.99621511"
   d="M 72.516398,452.44008 C 20.731378,433.9066 -2.4035805,379.26869 21.532934,332.03226 c 9.08087,-17.92024 29.607614,-36.77917 47.447349,-43.59223 20.318866,-7.75985 53.666937,-5.28061 71.784057,5.33673 29.03055,17.01303 44.00467,42.73346 44.10697,75.76071 0.11161,36.032 -20.10504,67.3401 -52.12199,80.71764 -17.72967,7.40793 -43.070736,8.32718 -60.232922,2.18497 z M 118.81228,411.3216 c 40.4569,-20.92107 31.17981,-78.77966 -14.00066,-87.31823 -13.16795,-2.48858 -36.02633,9.0303 -45.229038,22.79199 -8.823551,13.1947 -7.961588,36.23008 1.872485,50.04076 12.269648,17.23113 38.995483,23.9807 57.357213,14.48548 z"
   id="path3195"
   inkscape:connector-curvature="0" /><path
   style="fill:#f71b0a;fill-opacity:1;stroke-width:2.99621511"
   d=""
   id="path3197"
   inkscape:connector-curvature="0" /><path
   style="fill:#0c8cbe;fill-opacity:1;stroke-width:2.99621511"
   d="M 82.627995,192.68399 C 51.756651,186.33385 27.823522,164.02952 18.617639,133.02995 13.000416,114.11471 12.99184,103.10668 18.579669,84.29042 31.897216,39.445376 83.376543,14.975164 128.53111,32.026038 c 33.73095,12.737184 54.45618,42.393112 54.57734,78.095222 0.0805,23.73477 -7.63893,41.52 -25.84535,59.54622 -22.24462,22.02445 -45.13705,29.08418 -74.635105,23.01651 z M 128.00903,146.3409 C 150.43391,128.28833 151.67495,96.454706 130.73059,76.530819 111.12091,57.876578 88.253917,57.772679 67.807361,76.244914 53.963187,88.752291 48.929177,103.58021 53.174586,119.34645 c 9.266898,34.41464 48.180394,48.4516 74.834444,26.99445 z"
   id="path3199"
   inkscape:connector-curvature="0" /></svg>