<?xml version="1.0" encoding="UTF-8" standalone="no"?>
<!-- Creator: CorelDRAW X7 -->

<svg
   xmlns:dc="http://purl.org/dc/elements/1.1/"
   xmlns:cc="http://creativecommons.org/ns#"
   xmlns:rdf="http://www.w3.org/1999/02/22-rdf-syntax-ns#"
   xmlns:svg="http://www.w3.org/2000/svg"
   xmlns="http://www.w3.org/2000/svg"
   xmlns:sodipodi="http://sodipodi.sourceforge.net/DTD/sodipodi-0.dtd"
   xmlns:inkscape="http://www.inkscape.org/namespaces/inkscape"
   xml:space="preserve"
   width="6.38884in"
   height="7.13922in"
   version="1.1"
   style="shape-rendering:geometricPrecision; text-rendering:geometricPrecision; image-rendering:optimizeQuality; fill-rule:evenodd; clip-rule:evenodd"
   viewBox="0 0 6389 7139"
   id="svg1432"
   sodipodi:docname="contact.svg"
   inkscape:version="0.92.4 (5da689c313, 2019-01-14)"><metadata
   id="metadata1436"><rdf:RDF><cc:Work
       rdf:about=""><dc:format>image/svg+xml</dc:format><dc:type
         rdf:resource="http://purl.org/dc/dcmitype/StillImage" /></cc:Work></rdf:RDF></metadata><sodipodi:namedview
   pagecolor="#ffffff"
   bordercolor="#666666"
   borderopacity="1"
   objecttolerance="10"
   gridtolerance="10"
   guidetolerance="10"
   inkscape:pageopacity="0"
   inkscape:pageshadow="2"
   inkscape:window-width="1920"
   inkscape:window-height="1017"
   id="namedview1434"
   showgrid="false"
   inkscape:zoom="0.34434199"
   inkscape:cx="-165.25023"
   inkscape:cy="516.88782"
   inkscape:window-x="-8"
   inkscape:window-y="-8"
   inkscape:window-maximized="1"
   inkscape:current-layer="svg1432" />
 <defs
   id="defs1419">
  <style
   type="text/css"
   id="style1417">
   <![CDATA[
    .str0 {stroke:#0C8CBE;stroke-width:13.8897}
    .fil0 {fill:#0C8CBE}
   ]]>
  </style>
 </defs>
 <g
   id="Layer_x0020_1"
   style="fill:#0c8cbe;fill-opacity:1">
  <metadata
   id="CorelCorpID_0Corel-Layer" />
  <g
   id="_2936510623264"
   style="fill:#0c8cbe;fill-opacity:1">
   <g
   id="g1428"
   style="fill:#0c8cbe;fill-opacity:1">
    <path
   class="fil0 str0"
   d="M2800 4014c0,1 1,2 1,3 1,4 3,7 4,10 159,359 372,740 569,1019 271,382 498,568 696,568 2,0 3,0 4,-1 83,-3 157,-11 226,-23 241,-40 471,-128 684,-263 23,-14 39,-38 43,-65 1,-8 26,-198 -20,-427 -62,-311 -226,-546 -474,-681 -19,-11 -41,-16 -65,-16 -86,0 -205,79 -261,120 -58,22 -122,3 -141,-40l-556 -1263c-19,-44 10,-102 66,-131 271,-51 291,-142 298,-171 165,-734 -484,-1112 -491,-1115 -21,-12 -46,-15 -69,-9 -241,64 -462,174 -656,326 -55,42 -111,91 -168,149 -50,42 -182,170 -44,865 75,377 210,816 354,1145zm-188 -1871c2,-2 4,-4 6,-6 53,-53 103,-97 153,-136 165,-129 350,-224 552,-283 112,76 479,367 374,875 -28,17 -101,39 -167,51 -7,1 -14,4 -21,7 -155,69 -230,239 -168,379l555 1263c43,97 145,160 259,160 46,0 91,-10 134,-29 7,-3 13,-6 19,-11 53,-39 122,-79 152,-88 395,227 396,723 387,869 -182,109 -375,180 -578,213 -62,11 -127,18 -201,21 -212,-3 -688,-563 -1090,-1467 -1,-7 -4,-14 -7,-21 -2,-3 -4,-6 -6,-9 -320,-740 -481,-1681 -353,-1788z"
   id="path1422"
   style="fill:#0c8cbe;fill-opacity:1" />
    <path
   class="fil0 str0"
   d="M5985 7l-5074 0c-223,0 -405,168 -405,374l0 829 -112 0c-214,0 -387,176 -387,393 0,217 173,393 387,393l112 0 0 1203 -112 0c-217,0 -387,163 -387,371 0,207 170,370 387,370l112 0 0 1203 -112 0c-214,0 -387,176 -387,393 0,217 173,393 387,393l112 0 0 830c0,206 182,373 405,373l5074 0c219,0 397,-167 397,-373l0 -6378c0,-206 -178,-374 -397,-374zm212 6752c0,118 -108,188 -212,188l-5074 0c-106,0 -220,-76 -220,-188l0 -922c0,-51 -42,-93 -93,-93l-204 0c-110,0 -202,-95 -202,-208 0,-113 92,-208 202,-208l204 0c51,0 93,-42 93,-93l0 -1388c0,-51 -42,-92 -93,-92l-204 0c-117,0 -202,-78 -202,-185 0,-108 85,-185 202,-185l204 0c51,0 93,-42 93,-93l0 -1388c0,-51 -42,-93 -93,-93l-204 0c-110,0 -202,-95 -202,-208 0,-113 92,-208 202,-208l204 0c51,0 93,-41 93,-93l0 -921c0,-113 114,-189 220,-189l5074 0c104,0 212,71 212,189l0 6378 0 0z"
   id="path1424"
   style="fill:#0c8cbe;fill-opacity:1" />
    <path
   class="fil0 str0"
   d="M5688 562l-4488 0c-51,0 -93,42 -93,93l0 647c0,52 42,93 93,93l229 0c109,0 202,95 202,208 0,113 -93,208 -202,208l-229 0c-51,0 -93,42 -93,93l0 1388c0,51 42,93 93,93l229 0c117,0 202,77 202,185 0,107 -85,185 -202,185l-229 0c-51,0 -93,41 -93,92l0 1388c0,51 42,93 93,93l229 0c109,0 202,95 202,208 0,113 -93,208 -202,208l-229 0c-51,0 -93,42 -93,93l0 648c0,51 42,92 93,92l4488 0c51,0 92,-41 92,-92l0 -5830c0,-51 -41,-93 -92,-93zm-93 5830l-4303 0 0 -463 137 0c213,0 387,-176 387,-393 0,-217 -174,-393 -387,-393l-137 0 0 -1203 137 0c217,0 387,-163 387,-370 0,-208 -170,-371 -387,-371l-137 0 0 -1203 137 0c213,0 387,-176 387,-393 0,-217 -174,-393 -387,-393l-137 0 0 -463 4303 0 0 5645 0 0z"
   id="path1426"
   style="fill:#0c8cbe;fill-opacity:1" />
   </g>
  </g>
 </g>
</svg>