<?xml version="1.0" encoding="UTF-8" standalone="no"?>
<!-- Created with Inkscape (http://www.inkscape.org/) -->

<svg
   xmlns:dc="http://purl.org/dc/elements/1.1/"
   xmlns:cc="http://creativecommons.org/ns#"
   xmlns:rdf="http://www.w3.org/1999/02/22-rdf-syntax-ns#"
   xmlns:svg="http://www.w3.org/2000/svg"
   xmlns="http://www.w3.org/2000/svg"
   xmlns:sodipodi="http://sodipodi.sourceforge.net/DTD/sodipodi-0.dtd"
   xmlns:inkscape="http://www.inkscape.org/namespaces/inkscape"
   version="1.1"
   id="svg190"
   xml:space="preserve"
   width="478.58041"
   height="83.284866"
   viewBox="0 0 478.58041 83.284866"
   sodipodi:docname="logo svgistvis.svg"
   inkscape:version="0.92.4 (5da689c313, 2019-01-14)"><metadata
     id="metadata196"><rdf:RDF><cc:Work
         rdf:about=""><dc:format>image/svg+xml</dc:format><dc:type
           rdf:resource="http://purl.org/dc/dcmitype/StillImage" /><dc:title></dc:title></cc:Work></rdf:RDF></metadata><defs
     id="defs194"><clipPath
       clipPathUnits="userSpaceOnUse"
       id="clipPath206"><path
         d="M 0,0 H 360.464 V 63 H 0 Z"
         id="path204"
         inkscape:connector-curvature="0" /></clipPath><clipPath
       clipPathUnits="userSpaceOnUse"
       id="clipPath326"><path
         d="M 0,0 H 360.464 V 63 H 0 Z"
         id="path324"
         inkscape:connector-curvature="0" /></clipPath></defs><sodipodi:namedview
     pagecolor="#ffffff"
     bordercolor="#666666"
     borderopacity="1"
     objecttolerance="10"
     gridtolerance="10"
     guidetolerance="10"
     inkscape:pageopacity="0"
     inkscape:pageshadow="2"
     inkscape:window-width="1920"
     inkscape:window-height="1017"
     id="namedview192"
     showgrid="false"
     inkscape:zoom="2.592888"
     inkscape:cx="189.37197"
     inkscape:cy="71.78649"
     inkscape:window-x="-8"
     inkscape:window-y="-8"
     inkscape:window-maximized="1"
     inkscape:current-layer="g198" /><g
     id="g198"
     inkscape:groupmode="layer"
     inkscape:label="logo svgistvis"
     transform="matrix(1.3333333,0,0,-1.3333333,-2.0382297,83.284865)"><g
       id="g320"><g
         id="g322"
         clip-path="url(#clipPath326)"><g
           id="g328"
           transform="translate(118.0005,32.6606)"><path
             d="m 0,0 c -0.188,0.603 -0.466,1.102 -0.835,1.498 -0.369,0.395 -0.828,0.688 -1.377,0.879 -0.549,0.19 -1.183,0.285 -1.901,0.285 -0.752,0 -1.412,-0.114 -1.981,-0.344 C -6.663,2.089 -7.14,1.759 -7.526,1.329 -7.911,0.9 -8.202,0.378 -8.397,-0.234 -8.593,-0.847 -8.69,-1.537 -8.69,-2.303 c 0,-0.835 0.091,-1.558 0.274,-2.168 0.184,-0.611 0.458,-1.114 0.824,-1.509 0.367,-0.396 0.824,-0.69 1.374,-0.883 0.549,-0.193 1.192,-0.289 1.93,-0.289 0.747,0 1.405,0.113 1.974,0.34 0.568,0.228 1.046,0.557 1.431,0.989 0.386,0.432 0.677,0.958 0.872,1.579 0.195,0.62 0.293,1.323 0.293,2.109 C 0.282,-1.315 0.188,-0.603 0,0 m -1.86,-3.523 c -0.081,-0.403 -0.219,-0.756 -0.414,-1.058 -0.196,-0.303 -0.452,-0.542 -0.769,-0.718 -0.318,-0.176 -0.713,-0.264 -1.187,-0.264 -0.473,0 -0.867,0.077 -1.179,0.231 -0.312,0.154 -0.561,0.377 -0.747,0.67 -0.186,0.293 -0.317,0.646 -0.396,1.058 -0.078,0.413 -0.117,0.878 -0.117,1.396 0,0.444 0.041,0.865 0.121,1.263 0.081,0.398 0.219,0.746 0.414,1.044 0.195,0.298 0.452,0.536 0.769,0.714 0.317,0.178 0.713,0.267 1.187,0.267 0.468,0 0.859,-0.079 1.171,-0.238 0.313,-0.158 0.563,-0.383 0.751,-0.674 0.188,-0.29 0.321,-0.639 0.399,-1.047 0.078,-0.408 0.117,-0.861 0.117,-1.359 0,-0.454 -0.04,-0.882 -0.12,-1.285 M 7.8,2.076 C 7.787,2.179 7.768,2.261 7.741,2.322 7.714,2.383 7.684,2.427 7.65,2.454 7.615,2.48 7.576,2.494 7.532,2.494 H 3.072 C 2.911,2.494 2.775,2.446 2.665,2.351 2.556,2.256 2.501,2.101 2.501,1.886 v -8.591 c 0,-0.054 0.015,-0.1 0.047,-0.139 0.032,-0.04 0.084,-0.073 0.158,-0.099 0.073,-0.027 0.172,-0.048 0.296,-0.063 0.125,-0.014 0.28,-0.022 0.465,-0.022 0.191,0 0.347,0.008 0.469,0.022 0.122,0.015 0.221,0.036 0.297,0.063 0.075,0.026 0.128,0.059 0.157,0.099 0.03,0.039 0.044,0.085 0.044,0.139 v 3.53 h 2.908 c 0.044,0 0.083,0.013 0.117,0.04 0.034,0.027 0.065,0.072 0.092,0.136 0.026,0.063 0.046,0.144 0.058,0.241 0.012,0.098 0.019,0.22 0.019,0.367 0,0.146 -0.007,0.268 -0.019,0.366 -0.012,0.097 -0.032,0.176 -0.058,0.234 -0.027,0.059 -0.058,0.1 -0.092,0.125 C 7.425,-1.642 7.386,-1.63 7.342,-1.63 H 4.434 v 2.549 h 3.098 c 0.044,0 0.083,0.015 0.118,0.044 0.034,0.029 0.064,0.073 0.091,0.132 0.027,0.059 0.046,0.138 0.059,0.238 0.012,0.1 0.018,0.223 0.018,0.37 0,0.146 -0.006,0.271 -0.018,0.373 m 7.484,0 C 15.272,2.179 15.253,2.261 15.226,2.322 15.199,2.383 15.168,2.427 15.134,2.454 15.1,2.48 15.061,2.494 15.017,2.494 h -4.46 C 10.396,2.494 10.26,2.446 10.15,2.351 10.04,2.256 9.985,2.101 9.985,1.886 v -8.591 c 0,-0.054 0.016,-0.1 0.048,-0.139 0.032,-0.04 0.084,-0.073 0.157,-0.099 0.074,-0.027 0.173,-0.048 0.297,-0.063 0.125,-0.014 0.28,-0.022 0.465,-0.022 0.191,0 0.347,0.008 0.469,0.022 0.122,0.015 0.221,0.036 0.297,0.063 0.075,0.026 0.128,0.059 0.157,0.099 0.029,0.039 0.044,0.085 0.044,0.139 v 3.53 h 2.908 c 0.044,0 0.083,0.013 0.117,0.04 0.034,0.027 0.065,0.072 0.091,0.136 0.027,0.063 0.047,0.144 0.059,0.241 0.012,0.098 0.018,0.22 0.018,0.367 0,0.146 -0.006,0.268 -0.018,0.366 -0.012,0.097 -0.032,0.176 -0.059,0.234 -0.026,0.059 -0.057,0.1 -0.091,0.125 -0.034,0.024 -0.073,0.036 -0.117,0.036 h -2.908 v 2.549 h 3.098 c 0.044,0 0.083,0.015 0.117,0.044 0.034,0.029 0.065,0.073 0.092,0.132 0.027,0.059 0.046,0.138 0.058,0.238 0.013,0.1 0.019,0.223 0.019,0.37 0,0.146 -0.006,0.271 -0.019,0.373 m 4.12,0.154 c 0,0.049 -0.016,0.093 -0.048,0.132 -0.032,0.039 -0.084,0.071 -0.157,0.095 -0.074,0.025 -0.171,0.044 -0.293,0.059 -0.122,0.015 -0.279,0.022 -0.469,0.022 -0.186,0 -0.339,-0.007 -0.461,-0.022 C 17.853,2.501 17.755,2.482 17.679,2.457 17.603,2.433 17.549,2.401 17.518,2.362 17.486,2.323 17.47,2.279 17.47,2.23 v -8.95 c 0,-0.049 0.016,-0.093 0.048,-0.132 0.031,-0.039 0.084,-0.071 0.157,-0.095 0.073,-0.025 0.172,-0.044 0.297,-0.059 0.124,-0.014 0.279,-0.022 0.465,-0.022 0.19,0 0.347,0.008 0.469,0.022 0.122,0.015 0.219,0.034 0.293,0.059 0.073,0.024 0.125,0.056 0.157,0.095 0.032,0.039 0.048,0.083 0.048,0.132 z m 9.206,-7.357 c -0.01,0.105 -0.025,0.187 -0.044,0.245 -0.02,0.059 -0.044,0.098 -0.073,0.118 -0.03,0.019 -0.069,0.029 -0.118,0.029 -0.063,0 -0.152,-0.039 -0.267,-0.117 -0.115,-0.078 -0.261,-0.166 -0.439,-0.264 -0.179,-0.098 -0.392,-0.187 -0.641,-0.267 -0.249,-0.081 -0.545,-0.121 -0.887,-0.121 -0.376,0 -0.714,0.065 -1.014,0.194 -0.3,0.129 -0.557,0.326 -0.769,0.59 -0.212,0.263 -0.376,0.599 -0.491,1.007 -0.114,0.407 -0.172,0.89 -0.172,1.446 0,0.508 0.054,0.964 0.161,1.37 0.108,0.405 0.265,0.751 0.473,1.036 0.207,0.286 0.459,0.506 0.754,0.659 0.295,0.154 0.631,0.231 1.007,0.231 0.342,0 0.636,-0.043 0.883,-0.128 0.246,-0.086 0.459,-0.181 0.637,-0.286 0.178,-0.105 0.323,-0.2 0.436,-0.285 0.112,-0.086 0.205,-0.129 0.278,-0.129 0.044,0 0.083,0.015 0.117,0.044 0.034,0.03 0.064,0.076 0.088,0.14 0.025,0.063 0.042,0.146 0.051,0.249 0.01,0.102 0.015,0.227 0.015,0.373 0,0.137 -0.004,0.252 -0.011,0.344 -0.007,0.093 -0.018,0.174 -0.033,0.242 -0.015,0.068 -0.034,0.125 -0.058,0.168 -0.025,0.044 -0.07,0.099 -0.136,0.165 -0.066,0.066 -0.182,0.146 -0.348,0.238 -0.166,0.093 -0.353,0.175 -0.56,0.246 -0.208,0.07 -0.434,0.128 -0.678,0.172 -0.244,0.044 -0.498,0.066 -0.761,0.066 -0.65,0 -1.244,-0.11 -1.784,-0.33 -0.539,-0.22 -1.002,-0.542 -1.388,-0.967 -0.386,-0.424 -0.686,-0.949 -0.901,-1.574 -0.215,-0.625 -0.322,-1.341 -0.322,-2.146 0,-0.791 0.098,-1.485 0.293,-2.08 0.195,-0.596 0.476,-1.093 0.842,-1.491 0.367,-0.398 0.811,-0.697 1.333,-0.897 0.523,-0.2 1.109,-0.3 1.758,-0.3 0.332,0 0.641,0.026 0.927,0.08 0.285,0.054 0.539,0.121 0.761,0.202 0.223,0.08 0.411,0.164 0.564,0.252 0.154,0.088 0.258,0.16 0.312,0.216 0.053,0.056 0.092,0.106 0.117,0.15 0.024,0.044 0.044,0.097 0.058,0.158 0.015,0.061 0.026,0.134 0.033,0.22 0.008,0.085 0.011,0.189 0.011,0.311 0,0.176 -0.005,0.316 -0.014,0.421 m 7.598,-0.747 c -0.012,0.095 -0.031,0.172 -0.055,0.231 -0.024,0.058 -0.055,0.101 -0.091,0.128 -0.037,0.027 -0.077,0.04 -0.121,0.04 h -3.413 v 2.673 h 2.863 c 0.044,0 0.085,0.013 0.121,0.037 0.037,0.024 0.067,0.065 0.092,0.121 0.024,0.056 0.042,0.131 0.055,0.223 0.012,0.093 0.018,0.21 0.018,0.352 0,0.137 -0.006,0.253 -0.018,0.348 -0.013,0.095 -0.031,0.171 -0.055,0.227 -0.025,0.056 -0.055,0.097 -0.092,0.124 -0.036,0.027 -0.077,0.041 -0.121,0.041 h -2.863 v 2.314 h 3.383 c 0.044,0 0.083,0.014 0.118,0.04 0.034,0.027 0.063,0.07 0.087,0.129 0.025,0.058 0.043,0.135 0.055,0.23 0.013,0.095 0.019,0.211 0.019,0.348 0,0.147 -0.006,0.268 -0.019,0.363 -0.012,0.095 -0.03,0.173 -0.055,0.234 -0.024,0.061 -0.053,0.104 -0.087,0.128 -0.035,0.025 -0.074,0.037 -0.118,0.037 H 31.18 c -0.161,0 -0.297,-0.048 -0.407,-0.143 -0.109,-0.095 -0.164,-0.25 -0.164,-0.465 v -8.262 c 0,-0.215 0.055,-0.37 0.164,-0.465 0.11,-0.095 0.246,-0.143 0.407,-0.143 h 4.761 c 0.044,0 0.084,0.014 0.121,0.041 0.036,0.026 0.067,0.069 0.091,0.128 0.024,0.058 0.043,0.135 0.055,0.231 0.012,0.095 0.018,0.213 0.018,0.355 0,0.141 -0.006,0.26 -0.018,0.355 M 50.76,0 c -0.188,0.603 -0.466,1.102 -0.835,1.498 -0.369,0.395 -0.828,0.688 -1.377,0.879 -0.549,0.19 -1.183,0.285 -1.9,0.285 -0.752,0 -1.413,-0.114 -1.982,-0.344 C 44.097,2.089 43.62,1.759 43.234,1.329 42.849,0.9 42.558,0.378 42.363,-0.234 42.167,-0.847 42.07,-1.537 42.07,-2.303 c 0,-0.835 0.091,-1.558 0.275,-2.168 0.183,-0.611 0.457,-1.114 0.824,-1.509 0.366,-0.396 0.823,-0.69 1.373,-0.883 0.549,-0.193 1.192,-0.289 1.93,-0.289 0.747,0 1.405,0.113 1.974,0.34 0.568,0.228 1.046,0.557 1.431,0.989 0.386,0.432 0.677,0.958 0.872,1.579 0.195,0.62 0.293,1.323 0.293,2.109 0,0.82 -0.094,1.532 -0.282,2.135 M 48.9,-3.523 c -0.081,-0.403 -0.219,-0.756 -0.414,-1.058 -0.195,-0.303 -0.452,-0.542 -0.769,-0.718 -0.318,-0.176 -0.713,-0.264 -1.187,-0.264 -0.473,0 -0.866,0.077 -1.179,0.231 -0.312,0.154 -0.561,0.377 -0.747,0.67 -0.186,0.293 -0.317,0.646 -0.395,1.058 -0.079,0.413 -0.118,0.878 -0.118,1.396 0,0.444 0.041,0.865 0.121,1.263 0.081,0.398 0.219,0.746 0.414,1.044 0.195,0.298 0.452,0.536 0.769,0.714 0.317,0.178 0.713,0.267 1.187,0.267 0.468,0 0.859,-0.079 1.171,-0.238 0.313,-0.158 0.563,-0.383 0.751,-0.674 0.188,-0.29 0.321,-0.639 0.399,-1.047 0.078,-0.408 0.118,-0.861 0.118,-1.359 0,-0.454 -0.041,-0.882 -0.121,-1.285 m 9.66,5.599 c -0.012,0.103 -0.032,0.185 -0.059,0.246 -0.027,0.061 -0.057,0.105 -0.091,0.132 -0.035,0.026 -0.074,0.04 -0.118,0.04 h -4.46 c -0.161,0 -0.297,-0.048 -0.407,-0.143 -0.109,-0.095 -0.164,-0.25 -0.164,-0.465 v -8.591 c 0,-0.054 0.015,-0.1 0.047,-0.139 0.032,-0.04 0.085,-0.073 0.158,-0.099 0.073,-0.027 0.172,-0.048 0.296,-0.063 0.125,-0.014 0.28,-0.022 0.465,-0.022 0.191,0 0.347,0.008 0.469,0.022 0.122,0.015 0.221,0.036 0.297,0.063 0.076,0.026 0.128,0.059 0.157,0.099 0.03,0.039 0.044,0.085 0.044,0.139 v 3.53 h 2.908 c 0.044,0 0.083,0.013 0.117,0.04 0.034,0.027 0.065,0.072 0.092,0.136 0.027,0.063 0.046,0.144 0.058,0.241 0.012,0.098 0.019,0.22 0.019,0.367 0,0.146 -0.007,0.268 -0.019,0.366 -0.012,0.097 -0.031,0.176 -0.058,0.234 -0.027,0.059 -0.058,0.1 -0.092,0.125 -0.034,0.024 -0.073,0.036 -0.117,0.036 h -2.908 v 2.549 h 3.098 c 0.044,0 0.083,0.015 0.118,0.044 0.034,0.029 0.064,0.073 0.091,0.132 0.027,0.059 0.047,0.138 0.059,0.238 0.012,0.1 0.018,0.223 0.018,0.37 0,0.146 -0.006,0.271 -0.018,0.373 M 72.295,1.575 C 72.266,1.699 72.218,1.796 72.152,1.864 72.086,1.932 71.97,2.013 71.804,2.106 71.638,2.198 71.43,2.285 71.178,2.366 70.927,2.446 70.633,2.515 70.296,2.571 69.959,2.627 69.585,2.655 69.175,2.655 68.428,2.655 67.75,2.54 67.143,2.311 66.535,2.081 66.016,1.75 65.586,1.318 65.156,0.886 64.824,0.361 64.59,-0.256 c -0.234,-0.618 -0.351,-1.315 -0.351,-2.091 0,-0.752 0.109,-1.425 0.329,-2.018 0.22,-0.593 0.537,-1.096 0.952,-1.509 0.415,-0.413 0.922,-0.728 1.52,-0.945 0.598,-0.217 1.276,-0.326 2.033,-0.326 0.258,0 0.516,0.012 0.772,0.037 0.257,0.024 0.51,0.061 0.762,0.11 0.251,0.048 0.494,0.107 0.729,0.175 0.234,0.069 0.431,0.135 0.589,0.198 0.159,0.064 0.264,0.15 0.315,0.26 0.052,0.11 0.077,0.238 0.077,0.385 v 3.772 c 0,0.097 -0.012,0.184 -0.036,0.26 -0.025,0.075 -0.06,0.14 -0.107,0.194 -0.046,0.054 -0.1,0.094 -0.161,0.121 -0.061,0.026 -0.131,0.04 -0.209,0.04 h -3.2 c -0.044,0 -0.083,-0.014 -0.117,-0.04 -0.035,-0.027 -0.064,-0.069 -0.088,-0.125 -0.025,-0.056 -0.043,-0.131 -0.055,-0.223 -0.012,-0.093 -0.019,-0.208 -0.019,-0.344 0,-0.264 0.025,-0.451 0.074,-0.561 0.048,-0.11 0.117,-0.165 0.205,-0.165 h 1.794 v -2.197 c -0.181,-0.098 -0.376,-0.171 -0.586,-0.22 -0.21,-0.048 -0.422,-0.073 -0.637,-0.073 -0.439,0 -0.841,0.071 -1.205,0.213 -0.364,0.141 -0.675,0.351 -0.934,0.63 -0.258,0.278 -0.46,0.623 -0.604,1.036 -0.144,0.412 -0.216,0.89 -0.216,1.432 0,0.493 0.071,0.943 0.212,1.351 0.142,0.408 0.345,0.757 0.608,1.047 0.264,0.291 0.581,0.516 0.953,0.674 0.371,0.159 0.786,0.238 1.245,0.238 0.429,0 0.806,-0.044 1.131,-0.132 0.325,-0.087 0.604,-0.183 0.839,-0.285 0.234,-0.103 0.422,-0.198 0.564,-0.286 0.141,-0.088 0.244,-0.132 0.307,-0.132 0.044,0 0.082,0.012 0.114,0.037 0.032,0.024 0.059,0.067 0.081,0.128 0.022,0.061 0.039,0.143 0.051,0.246 0.012,0.102 0.018,0.224 0.018,0.366 0,0.244 -0.015,0.428 -0.044,0.553 m 8.199,-7.449 c -0.012,0.095 -0.031,0.172 -0.055,0.231 -0.024,0.058 -0.055,0.101 -0.091,0.128 -0.037,0.027 -0.077,0.04 -0.121,0.04 h -3.413 v 2.673 h 2.863 c 0.044,0 0.085,0.013 0.121,0.037 0.037,0.024 0.067,0.065 0.092,0.121 0.024,0.056 0.042,0.131 0.055,0.223 0.012,0.093 0.018,0.21 0.018,0.352 0,0.137 -0.006,0.253 -0.018,0.348 -0.013,0.095 -0.031,0.171 -0.055,0.227 -0.025,0.056 -0.055,0.097 -0.092,0.124 -0.036,0.027 -0.077,0.041 -0.121,0.041 h -2.863 v 2.314 h 3.383 c 0.044,0 0.083,0.014 0.118,0.04 0.034,0.027 0.063,0.07 0.087,0.129 0.025,0.058 0.043,0.135 0.055,0.23 0.013,0.095 0.019,0.211 0.019,0.348 C 80.476,1.879 80.47,2 80.457,2.095 80.445,2.19 80.427,2.268 80.402,2.329 80.378,2.39 80.349,2.433 80.315,2.457 80.28,2.482 80.241,2.494 80.197,2.494 H 75.466 C 75.305,2.494 75.169,2.446 75.059,2.351 74.95,2.256 74.895,2.101 74.895,1.886 v -8.262 c 0,-0.215 0.055,-0.37 0.164,-0.465 0.11,-0.095 0.246,-0.143 0.407,-0.143 h 4.761 c 0.044,0 0.084,0.014 0.121,0.041 0.036,0.026 0.067,0.069 0.091,0.128 0.024,0.058 0.043,0.135 0.055,0.231 0.012,0.095 0.018,0.213 0.018,0.355 0,0.141 -0.006,0.26 -0.018,0.355 M 90.799,0 c -0.188,0.603 -0.467,1.102 -0.835,1.498 -0.369,0.395 -0.828,0.688 -1.377,0.879 -0.55,0.19 -1.183,0.285 -1.901,0.285 -0.752,0 -1.412,-0.114 -1.981,-0.344 C 84.136,2.089 83.659,1.759 83.273,1.329 82.887,0.9 82.597,0.378 82.401,-0.234 c -0.195,-0.613 -0.293,-1.303 -0.293,-2.069 0,-0.835 0.092,-1.558 0.275,-2.168 0.183,-0.611 0.458,-1.114 0.824,-1.509 0.366,-0.396 0.824,-0.69 1.373,-0.883 0.55,-0.193 1.193,-0.289 1.93,-0.289 0.747,0 1.405,0.113 1.974,0.34 0.569,0.228 1.046,0.557 1.432,0.989 0.386,0.432 0.676,0.958 0.872,1.579 0.195,0.62 0.293,1.323 0.293,2.109 0,0.82 -0.094,1.532 -0.282,2.135 m -1.861,-3.523 c -0.08,-0.403 -0.218,-0.756 -0.414,-1.058 -0.195,-0.303 -0.451,-0.542 -0.769,-0.718 -0.317,-0.176 -0.713,-0.264 -1.186,-0.264 -0.474,0 -0.867,0.077 -1.179,0.231 -0.313,0.154 -0.562,0.377 -0.747,0.67 -0.186,0.293 -0.318,0.646 -0.396,1.058 -0.078,0.413 -0.117,0.878 -0.117,1.396 0,0.444 0.04,0.865 0.121,1.263 0.08,0.398 0.218,0.746 0.414,1.044 0.195,0.298 0.451,0.536 0.769,0.714 0.317,0.178 0.712,0.267 1.186,0.267 0.469,0 0.859,-0.079 1.172,-0.238 0.312,-0.158 0.563,-0.383 0.751,-0.674 0.188,-0.29 0.321,-0.639 0.399,-1.047 0.078,-0.408 0.117,-0.861 0.117,-1.359 0,-0.454 -0.04,-0.882 -0.121,-1.285 m 11.356,-3.01 c -0.025,0.085 -0.073,0.221 -0.147,0.406 l -0.798,1.868 c -0.093,0.224 -0.188,0.426 -0.286,0.604 -0.097,0.178 -0.201,0.337 -0.311,0.476 -0.11,0.139 -0.227,0.258 -0.351,0.356 -0.125,0.097 -0.258,0.18 -0.4,0.249 0.293,0.092 0.555,0.214 0.784,0.366 0.23,0.151 0.422,0.329 0.579,0.534 0.156,0.205 0.274,0.439 0.355,0.7 0.081,0.261 0.121,0.55 0.121,0.868 0,0.376 -0.056,0.709 -0.169,1 -0.112,0.29 -0.274,0.542 -0.487,0.754 -0.212,0.212 -0.471,0.384 -0.776,0.516 -0.305,0.132 -0.648,0.225 -1.029,0.279 -0.132,0.014 -0.278,0.026 -0.44,0.036 -0.161,0.01 -0.366,0.015 -0.615,0.015 h -2.453 c -0.162,0 -0.297,-0.048 -0.407,-0.143 -0.11,-0.095 -0.165,-0.25 -0.165,-0.465 V -6.72 c 0,-0.049 0.015,-0.093 0.044,-0.132 0.03,-0.039 0.081,-0.071 0.154,-0.095 0.073,-0.025 0.172,-0.044 0.297,-0.059 0.124,-0.014 0.279,-0.022 0.465,-0.022 0.19,0 0.346,0.008 0.468,0.022 0.122,0.015 0.22,0.034 0.293,0.059 0.074,0.024 0.126,0.056 0.158,0.095 0.032,0.039 0.048,0.083 0.048,0.132 v 3.611 h 0.6 c 0.205,0 0.386,-0.032 0.542,-0.095 0.156,-0.064 0.294,-0.158 0.414,-0.282 0.12,-0.125 0.228,-0.28 0.326,-0.465 0.097,-0.186 0.198,-0.398 0.3,-0.638 l 0.85,-2.116 c 0.019,-0.059 0.044,-0.109 0.073,-0.15 0.029,-0.042 0.079,-0.076 0.15,-0.103 0.071,-0.027 0.167,-0.045 0.289,-0.055 0.122,-0.01 0.286,-0.015 0.491,-0.015 0.244,0 0.437,0.005 0.579,0.015 0.141,0.01 0.249,0.027 0.322,0.051 0.073,0.025 0.12,0.055 0.139,0.092 0.02,0.037 0.03,0.082 0.03,0.135 0,0.049 -0.013,0.116 -0.037,0.202 m -2.549,5.672 C 97.677,-1.027 97.574,-1.169 97.437,-1.289 97.301,-1.409 97.13,-1.501 96.925,-1.567 96.72,-1.633 96.48,-1.666 96.207,-1.666 h -0.981 v 2.688 h 0.864 c 0.22,0 0.392,-0.008 0.516,-0.022 0.125,-0.015 0.236,-0.034 0.333,-0.059 0.323,-0.088 0.555,-0.239 0.696,-0.454 0.142,-0.215 0.213,-0.479 0.213,-0.791 0,-0.205 -0.035,-0.391 -0.103,-0.557 m 12.04,2.436 c -0.029,0.124 -0.076,0.221 -0.142,0.289 -0.066,0.068 -0.182,0.149 -0.348,0.242 -0.166,0.092 -0.375,0.179 -0.626,0.26 -0.252,0.08 -0.546,0.149 -0.883,0.205 -0.337,0.056 -0.71,0.084 -1.121,0.084 -0.747,0 -1.424,-0.115 -2.032,-0.344 -0.608,-0.23 -1.127,-0.561 -1.556,-0.993 -0.43,-0.432 -0.762,-0.957 -0.997,-1.574 -0.234,-0.618 -0.351,-1.315 -0.351,-2.091 0,-0.752 0.11,-1.425 0.329,-2.018 0.22,-0.593 0.538,-1.096 0.953,-1.509 0.415,-0.413 0.921,-0.728 1.519,-0.945 0.598,-0.217 1.276,-0.326 2.033,-0.326 0.259,0 0.516,0.012 0.773,0.037 0.256,0.024 0.51,0.061 0.761,0.11 0.252,0.048 0.495,0.107 0.729,0.175 0.234,0.069 0.431,0.135 0.59,0.198 0.158,0.064 0.263,0.15 0.315,0.26 0.051,0.11 0.076,0.238 0.076,0.385 v 3.772 c 0,0.097 -0.012,0.184 -0.036,0.26 -0.025,0.075 -0.06,0.14 -0.106,0.194 -0.047,0.054 -0.1,0.094 -0.161,0.121 -0.062,0.026 -0.131,0.04 -0.209,0.04 h -3.201 c -0.044,0 -0.083,-0.014 -0.117,-0.04 -0.034,-0.027 -0.064,-0.069 -0.088,-0.125 -0.024,-0.056 -0.043,-0.131 -0.055,-0.223 -0.012,-0.093 -0.018,-0.208 -0.018,-0.344 0,-0.264 0.024,-0.451 0.073,-0.561 0.049,-0.11 0.117,-0.165 0.205,-0.165 h 1.795 v -2.197 c -0.181,-0.098 -0.377,-0.171 -0.586,-0.22 -0.21,-0.048 -0.423,-0.073 -0.638,-0.073 -0.439,0 -0.841,0.071 -1.204,0.213 -0.364,0.141 -0.676,0.351 -0.934,0.63 -0.259,0.278 -0.461,0.623 -0.605,1.036 -0.144,0.412 -0.216,0.89 -0.216,1.432 0,0.493 0.071,0.943 0.213,1.351 0.141,0.408 0.344,0.757 0.608,1.047 0.263,0.291 0.581,0.516 0.952,0.674 0.371,0.159 0.786,0.238 1.245,0.238 0.43,0 0.807,-0.044 1.132,-0.132 0.324,-0.087 0.604,-0.183 0.838,-0.285 0.235,-0.103 0.422,-0.198 0.564,-0.286 0.142,-0.088 0.244,-0.132 0.308,-0.132 0.044,0 0.081,0.012 0.113,0.037 0.032,0.024 0.059,0.067 0.081,0.128 0.022,0.061 0.039,0.143 0.051,0.246 0.012,0.102 0.018,0.224 0.018,0.366 0,0.244 -0.014,0.428 -0.044,0.553 m 4.534,0.655 c 0,0.049 -0.016,0.093 -0.048,0.132 -0.032,0.039 -0.084,0.071 -0.157,0.095 -0.074,0.025 -0.171,0.044 -0.293,0.059 -0.123,0.015 -0.279,0.022 -0.469,0.022 -0.186,0 -0.34,-0.007 -0.462,-0.022 -0.122,-0.015 -0.221,-0.034 -0.296,-0.059 -0.076,-0.024 -0.13,-0.056 -0.161,-0.095 -0.032,-0.039 -0.048,-0.083 -0.048,-0.132 v -8.95 c 0,-0.049 0.016,-0.093 0.048,-0.132 0.031,-0.039 0.084,-0.071 0.157,-0.095 0.073,-0.025 0.172,-0.044 0.297,-0.059 0.124,-0.014 0.279,-0.022 0.465,-0.022 0.19,0 0.346,0.008 0.469,0.022 0.122,0.015 0.219,0.034 0.293,0.059 0.073,0.024 0.125,0.056 0.157,0.095 0.032,0.039 0.048,0.083 0.048,0.132 z m 7.499,-0.095 c -0.029,0.093 -0.065,0.166 -0.106,0.22 -0.042,0.053 -0.11,0.094 -0.205,0.121 -0.095,0.026 -0.229,0.044 -0.399,0.051 -0.171,0.007 -0.401,0.011 -0.689,0.011 -0.249,0 -0.449,-0.004 -0.6,-0.011 -0.152,-0.007 -0.27,-0.025 -0.356,-0.051 -0.085,-0.027 -0.147,-0.066 -0.186,-0.118 -0.04,-0.051 -0.074,-0.118 -0.103,-0.201 l -2.922,-8.408 c -0.059,-0.171 -0.096,-0.308 -0.11,-0.41 -0.015,-0.103 0.002,-0.182 0.051,-0.238 0.049,-0.057 0.137,-0.092 0.264,-0.107 0.127,-0.014 0.302,-0.022 0.527,-0.022 0.21,0 0.38,0.005 0.509,0.015 0.129,0.01 0.23,0.028 0.3,0.055 0.071,0.027 0.122,0.063 0.154,0.11 0.032,0.046 0.058,0.104 0.077,0.172 l 0.601,1.853 h 3.559 l 0.637,-1.904 c 0.02,-0.064 0.044,-0.115 0.074,-0.154 0.029,-0.039 0.08,-0.07 0.153,-0.092 0.074,-0.022 0.18,-0.036 0.319,-0.044 0.139,-0.007 0.333,-0.011 0.582,-0.011 0.24,0 0.428,0.007 0.564,0.019 0.137,0.012 0.232,0.044 0.286,0.095 0.054,0.051 0.073,0.128 0.059,0.231 -0.015,0.102 -0.052,0.241 -0.11,0.417 z m -0.081,-5.479 h -2.688 l 1.341,4.029 h 0.007 z"
             style="fill:#929497;fill-opacity:1;fill-rule:nonzero;stroke:none"
             id="path330"
             inkscape:connector-curvature="0" /></g><g
           id="g332"
           transform="translate(117.5718,52.8691)"><path
             d="m 0,0 c 0,0.049 -0.012,0.093 -0.037,0.132 -0.024,0.039 -0.067,0.073 -0.128,0.102 -0.061,0.03 -0.148,0.05 -0.26,0.063 -0.112,0.012 -0.251,0.018 -0.417,0.018 -0.176,0 -0.32,-0.006 -0.432,-0.018 C -1.387,0.284 -1.477,0.264 -1.545,0.234 -1.614,0.205 -1.663,0.171 -1.692,0.132 -1.721,0.093 -1.736,0.049 -1.736,0 v -4.446 c 0,-0.337 0.004,-0.691 0.011,-1.062 0.007,-0.371 0.018,-0.727 0.033,-1.069 h -0.007 c -0.088,0.195 -0.179,0.39 -0.271,0.586 -0.093,0.195 -0.188,0.394 -0.286,0.597 -0.098,0.202 -0.199,0.405 -0.304,0.608 -0.105,0.202 -0.211,0.409 -0.318,0.619 l -1.846,3.464 c -0.093,0.19 -0.183,0.35 -0.271,0.48 -0.088,0.129 -0.182,0.23 -0.282,0.304 -0.1,0.073 -0.214,0.125 -0.341,0.157 -0.127,0.032 -0.283,0.048 -0.468,0.048 h -1.033 c -0.195,0 -0.36,-0.058 -0.495,-0.172 -0.134,-0.115 -0.201,-0.287 -0.201,-0.517 v -8.518 c 0,-0.049 0.012,-0.093 0.037,-0.132 0.024,-0.039 0.068,-0.072 0.132,-0.099 0.063,-0.026 0.151,-0.047 0.263,-0.062 0.112,-0.015 0.254,-0.022 0.425,-0.022 0.176,0 0.32,0.007 0.432,0.022 0.112,0.015 0.202,0.036 0.267,0.062 0.066,0.027 0.113,0.06 0.14,0.099 0.026,0.039 0.04,0.083 0.04,0.132 v 4.959 c 0,0.371 -0.005,0.731 -0.015,1.08 -0.01,0.349 -0.024,0.699 -0.044,1.051 h 0.015 c 0.112,-0.288 0.239,-0.585 0.381,-0.89 0.141,-0.305 0.281,-0.59 0.417,-0.853 l 2.359,-4.431 c 0.122,-0.245 0.232,-0.443 0.329,-0.597 0.098,-0.154 0.199,-0.276 0.304,-0.367 0.105,-0.09 0.22,-0.152 0.344,-0.186 0.125,-0.034 0.273,-0.052 0.444,-0.052 h 0.82 c 0.093,0 0.184,0.014 0.275,0.041 0.09,0.027 0.168,0.069 0.234,0.128 0.066,0.059 0.118,0.132 0.157,0.22 C -0.02,-8.73 0,-8.63 0,-8.518 Z M 7.499,-0.073 C 7.47,0.019 7.435,0.093 7.393,0.146 7.352,0.2 7.283,0.24 7.188,0.267 7.093,0.294 6.96,0.311 6.789,0.319 6.618,0.326 6.389,0.33 6.1,0.33 5.851,0.33 5.651,0.326 5.5,0.319 5.348,0.311 5.23,0.294 5.145,0.267 5.059,0.24 4.997,0.201 4.958,0.15 4.919,0.099 4.885,0.032 4.855,-0.051 L 1.933,-8.459 C 1.874,-8.63 1.838,-8.767 1.823,-8.87 1.809,-8.972 1.826,-9.052 1.874,-9.108 c 0.049,-0.056 0.137,-0.091 0.264,-0.106 0.127,-0.015 0.303,-0.022 0.527,-0.022 0.21,0 0.38,0.005 0.509,0.015 0.13,0.01 0.23,0.028 0.301,0.055 0.07,0.027 0.122,0.063 0.154,0.11 0.031,0.046 0.057,0.103 0.076,0.172 l 0.601,1.853 h 3.56 l 0.637,-1.905 c 0.019,-0.063 0.044,-0.114 0.073,-0.153 0.029,-0.039 0.081,-0.07 0.154,-0.092 0.073,-0.022 0.179,-0.037 0.318,-0.044 0.14,-0.007 0.334,-0.011 0.583,-0.011 0.239,0 0.427,0.006 0.564,0.018 0.136,0.013 0.232,0.044 0.285,0.096 0.054,0.051 0.074,0.128 0.059,0.23 -0.015,0.103 -0.051,0.242 -0.11,0.418 z M 7.419,-5.552 H 4.731 l 1.34,4.029 h 0.008 z m 10.052,5.42 c -0.012,0.103 -0.031,0.184 -0.055,0.246 -0.025,0.061 -0.055,0.104 -0.092,0.131 -0.036,0.027 -0.077,0.041 -0.121,0.041 h -6.679 c -0.049,0 -0.091,-0.014 -0.125,-0.041 -0.034,-0.027 -0.063,-0.07 -0.088,-0.131 -0.024,-0.062 -0.042,-0.143 -0.055,-0.246 -0.012,-0.102 -0.018,-0.227 -0.018,-0.373 0,-0.142 0.006,-0.263 0.018,-0.363 0.013,-0.1 0.031,-0.181 0.055,-0.242 0.025,-0.061 0.054,-0.106 0.088,-0.135 0.034,-0.029 0.076,-0.044 0.125,-0.044 h 2.373 v -7.639 c 0,-0.049 0.016,-0.093 0.047,-0.132 0.032,-0.039 0.085,-0.071 0.158,-0.095 0.073,-0.025 0.172,-0.044 0.296,-0.059 0.125,-0.015 0.28,-0.022 0.466,-0.022 0.185,0 0.34,0.007 0.465,0.022 0.124,0.015 0.223,0.034 0.296,0.059 0.074,0.024 0.126,0.056 0.158,0.095 0.031,0.039 0.047,0.083 0.047,0.132 v 7.639 h 2.373 c 0.044,0 0.085,0.015 0.121,0.044 0.037,0.029 0.067,0.074 0.092,0.135 0.024,0.061 0.043,0.142 0.055,0.242 0.012,0.1 0.018,0.221 0.018,0.363 0,0.146 -0.006,0.271 -0.018,0.373 m 3.672,0.154 c 0,0.049 -0.016,0.093 -0.047,0.132 C 21.064,0.193 21.011,0.225 20.938,0.249 20.865,0.273 20.767,0.293 20.645,0.308 20.523,0.322 20.367,0.33 20.176,0.33 19.991,0.33 19.837,0.322 19.715,0.308 19.593,0.293 19.494,0.273 19.418,0.249 19.343,0.225 19.289,0.193 19.257,0.154 19.225,0.115 19.21,0.071 19.21,0.022 v -8.95 c 0,-0.049 0.015,-0.093 0.047,-0.132 0.032,-0.039 0.085,-0.071 0.158,-0.095 0.073,-0.025 0.172,-0.044 0.296,-0.059 0.125,-0.015 0.28,-0.022 0.465,-0.022 0.191,0 0.347,0.007 0.469,0.022 0.122,0.015 0.22,0.034 0.293,0.059 0.073,0.024 0.126,0.056 0.158,0.095 0.031,0.039 0.047,0.083 0.047,0.132 z m 10.909,-2.23 c -0.188,0.603 -0.466,1.102 -0.835,1.498 -0.369,0.395 -0.828,0.688 -1.377,0.878 -0.549,0.191 -1.183,0.286 -1.9,0.286 -0.752,0 -1.413,-0.115 -1.982,-0.344 -0.569,-0.23 -1.046,-0.559 -1.432,-0.989 -0.385,-0.43 -0.676,-0.951 -0.871,-1.564 -0.195,-0.612 -0.293,-1.302 -0.293,-2.069 0,-0.835 0.091,-1.557 0.275,-2.168 0.183,-0.61 0.457,-1.113 0.824,-1.508 0.366,-0.396 0.824,-0.69 1.373,-0.883 0.549,-0.193 1.192,-0.289 1.93,-0.289 0.747,0 1.405,0.113 1.974,0.34 0.568,0.227 1.046,0.557 1.432,0.989 0.385,0.432 0.676,0.958 0.871,1.578 0.195,0.62 0.293,1.324 0.293,2.11 0,0.82 -0.094,1.532 -0.282,2.135 m -1.86,-3.523 c -0.081,-0.403 -0.219,-0.756 -0.414,-1.059 -0.195,-0.302 -0.452,-0.542 -0.769,-0.717 -0.318,-0.176 -0.713,-0.264 -1.187,-0.264 -0.473,0 -0.866,0.077 -1.179,0.231 -0.312,0.154 -0.561,0.377 -0.747,0.67 -0.186,0.293 -0.317,0.646 -0.395,1.058 -0.079,0.413 -0.118,0.878 -0.118,1.395 0,0.445 0.041,0.866 0.121,1.264 0.081,0.398 0.219,0.746 0.414,1.044 0.195,0.297 0.452,0.535 0.769,0.714 0.317,0.178 0.713,0.267 1.187,0.267 0.468,0 0.859,-0.079 1.172,-0.238 0.312,-0.159 0.562,-0.383 0.75,-0.674 0.188,-0.29 0.321,-0.64 0.399,-1.047 0.078,-0.408 0.118,-0.861 0.118,-1.359 0,-0.454 -0.041,-0.882 -0.121,-1.285 M 42.368,0 c 0,0.049 -0.013,0.093 -0.037,0.132 -0.024,0.039 -0.067,0.073 -0.128,0.102 -0.061,0.03 -0.148,0.05 -0.26,0.063 C 41.83,0.309 41.691,0.315 41.525,0.315 41.35,0.315 41.206,0.309 41.093,0.297 40.981,0.284 40.891,0.264 40.822,0.234 40.754,0.205 40.705,0.171 40.676,0.132 40.646,0.093 40.632,0.049 40.632,0 v -4.446 c 0,-0.337 0.003,-0.691 0.011,-1.062 0.007,-0.371 0.018,-0.727 0.033,-1.069 h -0.008 c -0.087,0.195 -0.178,0.39 -0.271,0.586 -0.092,0.195 -0.188,0.394 -0.285,0.597 -0.098,0.202 -0.199,0.405 -0.304,0.608 -0.105,0.202 -0.211,0.409 -0.319,0.619 l -1.845,3.464 c -0.093,0.19 -0.184,0.35 -0.271,0.48 -0.088,0.129 -0.182,0.23 -0.282,0.304 C 36.99,0.154 36.877,0.206 36.75,0.238 36.623,0.27 36.467,0.286 36.281,0.286 h -1.032 c -0.196,0 -0.361,-0.058 -0.495,-0.172 -0.134,-0.115 -0.201,-0.287 -0.201,-0.517 v -8.518 c 0,-0.049 0.012,-0.093 0.036,-0.132 0.025,-0.039 0.069,-0.072 0.132,-0.099 0.064,-0.026 0.151,-0.047 0.264,-0.062 0.112,-0.015 0.254,-0.022 0.425,-0.022 0.175,0 0.319,0.007 0.432,0.022 0.112,0.015 0.201,0.036 0.267,0.062 0.066,0.027 0.112,0.06 0.139,0.099 0.027,0.039 0.041,0.083 0.041,0.132 v 4.959 c 0,0.371 -0.005,0.731 -0.015,1.08 -0.01,0.349 -0.025,0.699 -0.044,1.051 h 0.015 c 0.112,-0.288 0.239,-0.585 0.38,-0.89 0.142,-0.305 0.281,-0.59 0.418,-0.853 l 2.358,-4.431 c 0.122,-0.245 0.232,-0.443 0.33,-0.597 0.098,-0.154 0.199,-0.276 0.304,-0.367 0.105,-0.09 0.22,-0.152 0.344,-0.186 0.125,-0.034 0.272,-0.052 0.443,-0.052 h 0.821 c 0.092,0 0.184,0.014 0.274,0.041 0.091,0.027 0.169,0.069 0.235,0.128 0.066,0.059 0.118,0.132 0.157,0.22 0.039,0.088 0.059,0.188 0.059,0.3 z m 7.499,-0.073 C 49.838,0.019 49.802,0.093 49.761,0.146 49.719,0.2 49.651,0.24 49.556,0.267 49.461,0.294 49.327,0.311 49.157,0.319 48.986,0.326 48.756,0.33 48.468,0.33 48.219,0.33 48.019,0.326 47.868,0.319 47.716,0.311 47.598,0.294 47.512,0.267 47.427,0.24 47.365,0.201 47.326,0.15 47.286,0.099 47.252,0.032 47.223,-0.051 l -2.922,-8.408 c -0.059,-0.171 -0.096,-0.308 -0.11,-0.411 -0.015,-0.102 0.002,-0.182 0.051,-0.238 0.049,-0.056 0.137,-0.091 0.264,-0.106 0.127,-0.015 0.302,-0.022 0.527,-0.022 0.21,0 0.38,0.005 0.509,0.015 0.129,0.01 0.23,0.028 0.3,0.055 0.071,0.027 0.122,0.063 0.154,0.11 0.032,0.046 0.058,0.103 0.077,0.172 l 0.601,1.853 h 3.559 l 0.638,-1.905 c 0.019,-0.063 0.043,-0.114 0.073,-0.153 0.029,-0.039 0.08,-0.07 0.154,-0.092 0.073,-0.022 0.179,-0.037 0.318,-0.044 0.139,-0.007 0.333,-0.011 0.582,-0.011 0.24,0 0.428,0.006 0.564,0.018 0.137,0.013 0.232,0.044 0.286,0.096 0.054,0.051 0.073,0.128 0.059,0.23 -0.015,0.103 -0.052,0.242 -0.11,0.418 z m -0.08,-5.479 h -2.688 l 1.34,4.029 h 0.007 z m 10.125,-2.464 c -0.013,0.1 -0.031,0.18 -0.055,0.241 -0.025,0.061 -0.055,0.105 -0.092,0.132 -0.036,0.027 -0.079,0.04 -0.128,0.04 h -2.981 v 7.625 c 0,0.049 -0.016,0.093 -0.048,0.132 C 56.577,0.193 56.524,0.225 56.451,0.249 56.378,0.273 56.28,0.293 56.158,0.308 56.036,0.322 55.88,0.33 55.689,0.33 55.504,0.33 55.349,0.322 55.224,0.308 55.1,0.293 55.001,0.273 54.928,0.249 54.854,0.225 54.802,0.193 54.77,0.154 54.738,0.115 54.722,0.071 54.722,0.022 v -8.606 c 0,-0.215 0.055,-0.37 0.165,-0.465 0.11,-0.095 0.246,-0.143 0.407,-0.143 h 4.343 c 0.049,0 0.092,0.015 0.128,0.044 0.037,0.029 0.067,0.077 0.092,0.143 0.024,0.066 0.042,0.149 0.055,0.249 0.012,0.1 0.018,0.223 0.018,0.37 0,0.146 -0.006,0.27 -0.018,0.37 m 11.186,2.658 c -0.117,0.281 -0.271,0.525 -0.461,0.733 -0.191,0.207 -0.408,0.385 -0.652,0.534 -0.244,0.149 -0.493,0.282 -0.747,0.4 -0.254,0.117 -0.503,0.228 -0.747,0.333 -0.244,0.105 -0.463,0.217 -0.656,0.337 -0.193,0.119 -0.346,0.256 -0.461,0.41 -0.115,0.154 -0.172,0.336 -0.172,0.546 0,0.141 0.025,0.275 0.077,0.402 0.051,0.127 0.129,0.236 0.234,0.326 0.105,0.091 0.236,0.161 0.392,0.213 0.156,0.051 0.339,0.077 0.549,0.077 0.269,0 0.515,-0.033 0.74,-0.099 0.224,-0.066 0.422,-0.139 0.593,-0.22 0.171,-0.081 0.315,-0.155 0.432,-0.223 0.118,-0.069 0.203,-0.103 0.257,-0.103 0.053,0 0.096,0.015 0.128,0.044 0.032,0.029 0.056,0.076 0.073,0.139 0.017,0.064 0.029,0.144 0.037,0.242 0.007,0.098 0.011,0.217 0.011,0.359 0,0.127 -0.003,0.233 -0.008,0.318 -0.005,0.086 -0.013,0.157 -0.025,0.213 -0.012,0.056 -0.027,0.101 -0.044,0.135 -0.017,0.034 -0.05,0.076 -0.099,0.125 -0.049,0.049 -0.149,0.11 -0.3,0.183 -0.152,0.073 -0.325,0.139 -0.52,0.198 -0.196,0.058 -0.406,0.105 -0.63,0.139 -0.225,0.034 -0.45,0.051 -0.674,0.051 -0.435,0 -0.846,-0.056 -1.234,-0.168 C 66.803,0.173 66.466,0.004 66.18,-0.223 65.894,-0.45 65.667,-0.736 65.499,-1.08 65.33,-1.425 65.246,-1.824 65.246,-2.278 c 0,-0.395 0.059,-0.735 0.176,-1.018 0.117,-0.283 0.27,-0.528 0.458,-0.736 0.188,-0.208 0.401,-0.386 0.641,-0.535 0.239,-0.149 0.485,-0.282 0.739,-0.399 0.254,-0.117 0.501,-0.228 0.74,-0.333 0.239,-0.105 0.453,-0.217 0.641,-0.337 0.188,-0.12 0.341,-0.256 0.458,-0.41 0.117,-0.154 0.176,-0.338 0.176,-0.553 0,-0.186 -0.035,-0.354 -0.103,-0.505 -0.068,-0.152 -0.167,-0.279 -0.297,-0.381 -0.129,-0.103 -0.287,-0.182 -0.472,-0.238 -0.186,-0.057 -0.396,-0.085 -0.63,-0.085 -0.356,0 -0.67,0.041 -0.941,0.121 -0.271,0.081 -0.504,0.17 -0.7,0.268 -0.195,0.097 -0.355,0.186 -0.479,0.267 -0.125,0.08 -0.221,0.121 -0.29,0.121 -0.048,0 -0.091,-0.014 -0.128,-0.041 -0.036,-0.026 -0.066,-0.072 -0.088,-0.135 -0.022,-0.064 -0.038,-0.147 -0.047,-0.249 -0.01,-0.103 -0.015,-0.23 -0.015,-0.381 0,-0.225 0.013,-0.397 0.04,-0.516 0.027,-0.12 0.072,-0.212 0.136,-0.275 0.063,-0.063 0.167,-0.137 0.311,-0.22 0.144,-0.083 0.324,-0.162 0.538,-0.238 0.215,-0.075 0.463,-0.14 0.744,-0.194 0.281,-0.053 0.585,-0.08 0.912,-0.08 0.483,0 0.937,0.063 1.362,0.19 0.425,0.127 0.796,0.316 1.113,0.568 0.318,0.251 0.569,0.565 0.755,0.941 0.185,0.376 0.278,0.813 0.278,1.311 0,0.381 -0.059,0.711 -0.176,0.992 m 8.39,5.226 c -0.013,0.103 -0.031,0.184 -0.055,0.246 -0.025,0.061 -0.055,0.104 -0.092,0.131 -0.037,0.027 -0.077,0.041 -0.121,0.041 h -6.679 c -0.049,0 -0.091,-0.014 -0.125,-0.041 -0.034,-0.027 -0.063,-0.07 -0.088,-0.131 -0.024,-0.062 -0.043,-0.143 -0.055,-0.246 -0.012,-0.102 -0.018,-0.227 -0.018,-0.373 0,-0.142 0.006,-0.263 0.018,-0.363 0.012,-0.1 0.031,-0.181 0.055,-0.242 0.025,-0.061 0.054,-0.106 0.088,-0.135 0.034,-0.029 0.076,-0.044 0.125,-0.044 h 2.373 v -7.639 c 0,-0.049 0.015,-0.093 0.047,-0.132 0.032,-0.039 0.084,-0.071 0.158,-0.095 0.073,-0.025 0.172,-0.044 0.296,-0.059 0.125,-0.015 0.28,-0.022 0.465,-0.022 0.186,0 0.341,0.007 0.465,0.022 0.125,0.015 0.224,0.034 0.297,0.059 0.073,0.024 0.126,0.056 0.158,0.095 0.031,0.039 0.047,0.083 0.047,0.132 v 7.639 h 2.373 c 0.044,0 0.084,0.015 0.121,0.044 0.037,0.029 0.067,0.074 0.092,0.135 0.024,0.061 0.042,0.142 0.055,0.242 0.012,0.1 0.018,0.221 0.018,0.363 0,0.146 -0.006,0.271 -0.018,0.373 m 5.393,0.059 C 84.852,0.019 84.816,0.093 84.775,0.146 84.734,0.2 84.665,0.24 84.57,0.267 84.475,0.294 84.342,0.311 84.171,0.319 84,0.326 83.77,0.33 83.482,0.33 83.233,0.33 83.033,0.326 82.882,0.319 82.73,0.311 82.612,0.294 82.527,0.267 82.441,0.24 82.379,0.201 82.34,0.15 82.301,0.099 82.267,0.032 82.237,-0.051 l -2.922,-8.408 c -0.059,-0.171 -0.095,-0.308 -0.11,-0.411 -0.015,-0.102 0.002,-0.182 0.051,-0.238 0.049,-0.056 0.137,-0.091 0.264,-0.106 0.127,-0.015 0.303,-0.022 0.527,-0.022 0.21,0 0.38,0.005 0.509,0.015 0.13,0.01 0.23,0.028 0.301,0.055 0.07,0.027 0.122,0.063 0.153,0.11 0.032,0.046 0.058,0.103 0.077,0.172 l 0.601,1.853 h 3.559 l 0.638,-1.905 c 0.019,-0.063 0.044,-0.114 0.073,-0.153 0.029,-0.039 0.08,-0.07 0.154,-0.092 0.073,-0.022 0.179,-0.037 0.318,-0.044 0.139,-0.007 0.334,-0.011 0.583,-0.011 0.239,0 0.427,0.006 0.564,0.018 0.136,0.013 0.231,0.044 0.285,0.096 0.054,0.051 0.073,0.128 0.059,0.23 -0.015,0.103 -0.051,0.242 -0.11,0.418 z m -0.08,-5.479 h -2.688 l 1.34,4.029 h 0.007 z m 10.052,5.42 C 94.84,-0.029 94.822,0.052 94.798,0.114 94.773,0.175 94.743,0.218 94.706,0.245 94.669,0.272 94.629,0.286 94.585,0.286 H 87.906 C 87.857,0.286 87.815,0.272 87.781,0.245 87.747,0.218 87.718,0.175 87.693,0.114 87.669,0.052 87.65,-0.029 87.638,-0.132 87.626,-0.234 87.62,-0.359 87.62,-0.505 c 0,-0.142 0.006,-0.263 0.018,-0.363 0.012,-0.1 0.031,-0.181 0.055,-0.242 0.025,-0.061 0.054,-0.106 0.088,-0.135 0.034,-0.029 0.076,-0.044 0.125,-0.044 h 2.373 v -7.639 c 0,-0.049 0.015,-0.093 0.047,-0.132 0.032,-0.039 0.084,-0.071 0.158,-0.095 0.073,-0.025 0.172,-0.044 0.296,-0.059 0.125,-0.015 0.28,-0.022 0.465,-0.022 0.186,0 0.341,0.007 0.465,0.022 0.125,0.015 0.224,0.034 0.297,0.059 0.073,0.024 0.126,0.056 0.158,0.095 0.031,0.039 0.047,0.083 0.047,0.132 v 7.639 h 2.373 c 0.044,0 0.084,0.015 0.121,0.044 0.037,0.029 0.067,0.074 0.092,0.135 0.024,0.061 0.042,0.142 0.055,0.242 0.012,0.1 0.018,0.221 0.018,0.363 0,0.146 -0.006,0.271 -0.018,0.373 m 3.672,0.154 c 0,0.049 -0.016,0.093 -0.048,0.132 C 98.446,0.193 98.393,0.225 98.32,0.249 98.247,0.273 98.149,0.293 98.027,0.308 97.905,0.322 97.749,0.33 97.558,0.33 97.373,0.33 97.219,0.322 97.097,0.308 96.975,0.293 96.876,0.273 96.8,0.249 96.724,0.225 96.671,0.193 96.639,0.154 96.607,0.115 96.592,0.071 96.592,0.022 v -8.95 c 0,-0.049 0.015,-0.093 0.047,-0.132 0.032,-0.039 0.084,-0.071 0.158,-0.095 0.073,-0.025 0.172,-0.044 0.296,-0.059 0.125,-0.015 0.28,-0.022 0.465,-0.022 0.191,0 0.347,0.007 0.469,0.022 0.122,0.015 0.22,0.034 0.293,0.059 0.073,0.024 0.126,0.056 0.157,0.095 0.032,0.039 0.048,0.083 0.048,0.132 z m 8.107,-5.38 c -0.117,0.281 -0.271,0.525 -0.461,0.733 -0.19,0.207 -0.408,0.385 -0.652,0.534 -0.244,0.149 -0.493,0.282 -0.747,0.4 -0.254,0.117 -0.503,0.228 -0.747,0.333 -0.244,0.105 -0.463,0.217 -0.656,0.337 -0.192,0.119 -0.346,0.256 -0.461,0.41 -0.115,0.154 -0.172,0.336 -0.172,0.546 0,0.141 0.026,0.275 0.077,0.402 0.051,0.127 0.129,0.236 0.234,0.326 0.105,0.091 0.236,0.161 0.392,0.213 0.156,0.051 0.339,0.077 0.549,0.077 0.269,0 0.515,-0.033 0.74,-0.099 0.225,-0.066 0.422,-0.139 0.593,-0.22 0.171,-0.081 0.315,-0.155 0.433,-0.223 0.117,-0.069 0.202,-0.103 0.256,-0.103 0.054,0 0.096,0.015 0.128,0.044 0.032,0.029 0.056,0.076 0.073,0.139 0.017,0.064 0.03,0.144 0.037,0.242 0.007,0.098 0.011,0.217 0.011,0.359 0,0.127 -0.003,0.233 -0.007,0.318 -0.005,0.086 -0.014,0.157 -0.026,0.213 -0.012,0.056 -0.027,0.101 -0.044,0.135 -0.017,0.034 -0.05,0.076 -0.099,0.125 -0.049,0.049 -0.149,0.11 -0.3,0.183 -0.152,0.073 -0.325,0.139 -0.52,0.198 -0.196,0.058 -0.406,0.105 -0.63,0.139 -0.225,0.034 -0.449,0.051 -0.674,0.051 -0.435,0 -0.846,-0.056 -1.234,-0.168 -0.388,-0.113 -0.725,-0.282 -1.011,-0.509 -0.285,-0.227 -0.512,-0.513 -0.681,-0.857 -0.168,-0.345 -0.253,-0.744 -0.253,-1.198 0,-0.395 0.059,-0.735 0.176,-1.018 0.117,-0.283 0.27,-0.528 0.458,-0.736 0.188,-0.208 0.401,-0.386 0.641,-0.535 0.239,-0.149 0.486,-0.282 0.74,-0.399 0.253,-0.117 0.5,-0.228 0.739,-0.333 0.239,-0.105 0.453,-0.217 0.641,-0.337 0.188,-0.12 0.341,-0.256 0.458,-0.41 0.117,-0.154 0.176,-0.338 0.176,-0.553 0,-0.186 -0.035,-0.354 -0.103,-0.505 -0.068,-0.152 -0.167,-0.279 -0.296,-0.381 -0.13,-0.103 -0.287,-0.182 -0.473,-0.238 -0.186,-0.057 -0.395,-0.085 -0.63,-0.085 -0.356,0 -0.67,0.041 -0.941,0.121 -0.271,0.081 -0.504,0.17 -0.699,0.268 -0.196,0.097 -0.356,0.186 -0.48,0.267 -0.125,0.08 -0.221,0.121 -0.289,0.121 -0.049,0 -0.092,-0.014 -0.129,-0.041 -0.036,-0.026 -0.066,-0.072 -0.088,-0.135 -0.021,-0.064 -0.037,-0.147 -0.047,-0.249 -0.01,-0.103 -0.015,-0.23 -0.015,-0.381 0,-0.225 0.014,-0.397 0.041,-0.516 0.026,-0.12 0.072,-0.212 0.135,-0.275 0.063,-0.063 0.167,-0.137 0.311,-0.22 0.144,-0.083 0.324,-0.162 0.539,-0.238 0.214,-0.075 0.462,-0.14 0.743,-0.194 0.281,-0.053 0.585,-0.08 0.912,-0.08 0.483,0 0.937,0.063 1.362,0.19 0.425,0.127 0.796,0.316 1.113,0.568 0.318,0.251 0.569,0.565 0.755,0.941 0.185,0.376 0.278,0.813 0.278,1.311 0,0.381 -0.058,0.711 -0.176,0.992 m 8.39,5.226 c -0.013,0.103 -0.031,0.184 -0.055,0.246 -0.025,0.061 -0.055,0.104 -0.092,0.131 -0.036,0.027 -0.077,0.041 -0.121,0.041 h -6.679 c -0.049,0 -0.091,-0.014 -0.125,-0.041 -0.034,-0.027 -0.063,-0.07 -0.088,-0.131 -0.024,-0.062 -0.042,-0.143 -0.055,-0.246 -0.012,-0.102 -0.018,-0.227 -0.018,-0.373 0,-0.142 0.006,-0.263 0.018,-0.363 0.013,-0.1 0.031,-0.181 0.055,-0.242 0.025,-0.061 0.054,-0.106 0.088,-0.135 0.034,-0.029 0.076,-0.044 0.125,-0.044 h 2.373 v -7.639 c 0,-0.049 0.016,-0.093 0.047,-0.132 0.032,-0.039 0.085,-0.071 0.158,-0.095 0.073,-0.025 0.172,-0.044 0.296,-0.059 0.125,-0.015 0.28,-0.022 0.466,-0.022 0.185,0 0.34,0.007 0.465,0.022 0.124,0.015 0.223,0.034 0.296,0.059 0.074,0.024 0.126,0.056 0.158,0.095 0.031,0.039 0.047,0.083 0.047,0.132 v 7.639 h 2.373 c 0.044,0 0.085,0.015 0.121,0.044 0.037,0.029 0.067,0.074 0.092,0.135 0.024,0.061 0.042,0.142 0.055,0.242 0.012,0.1 0.018,0.221 0.018,0.363 0,0.146 -0.006,0.271 -0.018,0.373 m 3.672,0.154 c 0,0.049 -0.016,0.093 -0.047,0.132 -0.032,0.039 -0.085,0.071 -0.158,0.095 -0.073,0.024 -0.171,0.044 -0.293,0.059 -0.122,0.014 -0.278,0.022 -0.469,0.022 -0.185,0 -0.339,-0.008 -0.461,-0.022 -0.122,-0.015 -0.221,-0.035 -0.297,-0.059 -0.075,-0.024 -0.129,-0.056 -0.161,-0.095 -0.032,-0.039 -0.047,-0.083 -0.047,-0.132 v -8.95 c 0,-0.049 0.015,-0.093 0.047,-0.132 0.032,-0.039 0.084,-0.071 0.158,-0.095 0.073,-0.025 0.172,-0.044 0.296,-0.059 0.125,-0.015 0.28,-0.022 0.465,-0.022 0.191,0 0.347,0.007 0.469,0.022 0.122,0.015 0.22,0.034 0.293,0.059 0.073,0.024 0.126,0.056 0.158,0.095 0.031,0.039 0.047,0.083 0.047,0.132 z m 9.206,-7.357 c -0.01,0.105 -0.024,0.187 -0.044,0.245 -0.019,0.059 -0.044,0.098 -0.073,0.117 -0.029,0.02 -0.068,0.03 -0.117,0.03 -0.064,0 -0.153,-0.039 -0.268,-0.118 -0.114,-0.078 -0.261,-0.166 -0.439,-0.263 -0.178,-0.098 -0.392,-0.187 -0.641,-0.268 -0.249,-0.08 -0.544,-0.12 -0.886,-0.12 -0.376,0 -0.714,0.064 -1.014,0.194 -0.301,0.129 -0.557,0.326 -0.77,0.589 -0.212,0.264 -0.376,0.6 -0.49,1.007 -0.115,0.408 -0.172,0.89 -0.172,1.447 0,0.508 0.053,0.964 0.161,1.37 0.107,0.405 0.265,0.75 0.472,1.036 0.208,0.286 0.459,0.505 0.755,0.659 0.295,0.154 0.631,0.231 1.007,0.231 0.341,0 0.636,-0.043 0.882,-0.128 0.247,-0.086 0.459,-0.181 0.637,-0.286 0.179,-0.105 0.324,-0.2 0.436,-0.286 0.112,-0.085 0.205,-0.128 0.279,-0.128 0.043,0 0.083,0.015 0.117,0.044 0.034,0.029 0.063,0.076 0.088,0.139 0.024,0.064 0.041,0.147 0.051,0.249 0.01,0.103 0.015,0.227 0.015,0.374 0,0.136 -0.004,0.251 -0.011,0.344 -0.008,0.093 -0.019,0.173 -0.033,0.242 -0.015,0.068 -0.035,0.124 -0.059,0.168 -0.024,0.044 -0.07,0.099 -0.135,0.165 -0.066,0.066 -0.182,0.145 -0.348,0.238 -0.166,0.093 -0.353,0.175 -0.561,0.245 -0.207,0.071 -0.433,0.129 -0.677,0.173 -0.244,0.043 -0.498,0.065 -0.762,0.065 -0.649,0 -1.244,-0.109 -1.783,-0.329 -0.54,-0.22 -1.003,-0.542 -1.388,-0.967 -0.386,-0.425 -0.686,-0.95 -0.901,-1.575 -0.215,-0.625 -0.322,-1.34 -0.322,-2.146 0,-0.791 0.097,-1.484 0.293,-2.08 0.195,-0.595 0.476,-1.092 0.842,-1.49 0.366,-0.398 0.81,-0.697 1.333,-0.897 0.522,-0.201 1.108,-0.301 1.758,-0.301 0.332,0 0.641,0.027 0.926,0.081 0.286,0.054 0.54,0.121 0.762,0.201 0.222,0.081 0.41,0.165 0.564,0.253 0.154,0.088 0.257,0.16 0.311,0.216 0.054,0.056 0.093,0.106 0.117,0.15 0.025,0.044 0.044,0.097 0.059,0.158 0.015,0.061 0.026,0.134 0.033,0.219 0.007,0.086 0.011,0.19 0.011,0.312 0,0.175 -0.005,0.316 -0.015,0.421 m 7.441,1.977 c -0.117,0.281 -0.271,0.525 -0.461,0.733 -0.191,0.207 -0.408,0.385 -0.652,0.534 -0.244,0.149 -0.494,0.282 -0.747,0.4 -0.254,0.117 -0.503,0.228 -0.747,0.333 -0.245,0.105 -0.463,0.217 -0.656,0.337 -0.193,0.119 -0.347,0.256 -0.461,0.41 -0.115,0.154 -0.172,0.336 -0.172,0.546 0,0.141 0.025,0.275 0.076,0.402 0.052,0.127 0.13,0.236 0.235,0.326 0.105,0.091 0.235,0.161 0.392,0.213 0.156,0.051 0.339,0.077 0.549,0.077 0.268,0 0.515,-0.033 0.74,-0.099 0.224,-0.066 0.422,-0.139 0.593,-0.22 0.171,-0.081 0.315,-0.155 0.432,-0.223 0.117,-0.069 0.203,-0.103 0.256,-0.103 0.054,0 0.097,0.015 0.129,0.044 0.031,0.029 0.056,0.076 0.073,0.139 0.017,0.064 0.029,0.144 0.036,0.242 0.008,0.098 0.011,0.217 0.011,0.359 0,0.127 -0.002,0.233 -0.007,0.318 -0.005,0.086 -0.013,0.157 -0.025,0.213 -0.013,0.056 -0.027,0.101 -0.044,0.135 -0.018,0.034 -0.051,0.076 -0.099,0.125 -0.049,0.049 -0.149,0.11 -0.301,0.183 -0.151,0.073 -0.324,0.139 -0.52,0.198 -0.195,0.058 -0.405,0.105 -0.629,0.139 -0.225,0.034 -0.45,0.051 -0.674,0.051 -0.435,0 -0.846,-0.056 -1.234,-0.168 -0.389,-0.113 -0.726,-0.282 -1.011,-0.509 -0.286,-0.227 -0.513,-0.513 -0.681,-0.857 -0.169,-0.345 -0.253,-0.744 -0.253,-1.198 0,-0.395 0.059,-0.735 0.176,-1.018 0.117,-0.283 0.269,-0.528 0.458,-0.736 0.187,-0.208 0.401,-0.386 0.64,-0.535 0.24,-0.149 0.486,-0.282 0.74,-0.399 0.254,-0.117 0.501,-0.228 0.74,-0.333 0.239,-0.105 0.453,-0.217 0.641,-0.337 0.188,-0.12 0.34,-0.256 0.458,-0.41 0.117,-0.154 0.175,-0.338 0.175,-0.553 0,-0.186 -0.034,-0.354 -0.102,-0.505 -0.069,-0.152 -0.168,-0.279 -0.297,-0.381 -0.129,-0.103 -0.287,-0.182 -0.472,-0.238 -0.186,-0.057 -0.396,-0.085 -0.63,-0.085 -0.357,0 -0.67,0.041 -0.941,0.121 -0.271,0.081 -0.505,0.17 -0.7,0.268 -0.195,0.097 -0.355,0.186 -0.48,0.267 -0.124,0.08 -0.221,0.121 -0.289,0.121 -0.049,0 -0.091,-0.014 -0.128,-0.041 -0.037,-0.026 -0.066,-0.072 -0.088,-0.135 -0.022,-0.064 -0.038,-0.147 -0.048,-0.249 -0.009,-0.103 -0.014,-0.23 -0.014,-0.381 0,-0.225 0.013,-0.397 0.04,-0.516 0.027,-0.12 0.072,-0.212 0.136,-0.275 0.063,-0.063 0.167,-0.137 0.311,-0.22 0.144,-0.083 0.323,-0.162 0.538,-0.238 0.215,-0.075 0.463,-0.14 0.744,-0.194 0.28,-0.053 0.584,-0.08 0.911,-0.08 0.484,0 0.938,0.063 1.363,0.19 0.425,0.127 0.796,0.316 1.113,0.568 0.317,0.251 0.569,0.565 0.754,0.941 0.186,0.376 0.279,0.813 0.279,1.311 0,0.381 -0.059,0.711 -0.176,0.992"
             style="fill:#929497;fill-opacity:1;fill-rule:nonzero;stroke:none"
             id="path334"
             inkscape:connector-curvature="0" /></g><g
           id="g336"
           transform="translate(111.145,14.0469)"><path
             d="m 0,0 c -0.136,0 -0.289,-0.064 -0.457,-0.191 -0.168,-0.127 -0.252,-0.277 -0.252,-0.45 0,-0.095 0.091,-0.286 0.273,-0.573 0.031,-0.055 0.047,-0.095 0.047,-0.123 0,-0.027 -0.016,-0.12 -0.047,-0.279 -0.641,-3.029 -0.962,-5.453 -0.962,-7.276 0,-0.773 0.239,-1.159 0.716,-1.159 0.168,0 0.324,0.072 0.467,0.218 C -0.072,-9.688 0,-9.546 0,-9.41 c 0,0.145 -0.02,0.339 -0.061,0.58 -0.046,0.24 -0.069,0.525 -0.069,0.851 0,0.424 0.052,1.084 0.154,1.985 0.102,0.9 0.244,1.857 0.426,2.871 0.182,1.014 0.311,1.615 0.389,1.804 0.077,0.188 0.178,0.305 0.303,0.351 0.125,0.045 0.415,0.1 0.87,0.163 0.454,0.064 0.909,0.096 1.363,0.096 0.609,0 1.111,-0.139 1.504,-0.416 0.393,-0.277 0.59,-0.609 0.59,-0.996 0,-0.733 -0.44,-1.368 -1.32,-1.909 -0.879,-0.541 -1.501,-0.811 -1.865,-0.811 -0.082,0 -0.207,0.013 -0.375,0.041 -0.168,0.022 -0.291,0.034 -0.368,0.034 -0.223,0 -0.416,-0.065 -0.58,-0.195 -0.163,-0.129 -0.245,-0.28 -0.245,-0.453 0,-0.2 0.064,-0.339 0.191,-0.416 0.127,-0.077 0.345,-0.121 0.655,-0.13 0.159,-0.009 0.922,-0.588 2.291,-1.738 0.631,-0.537 1.242,-1.029 1.831,-1.473 0.588,-0.446 1.017,-0.669 1.285,-0.669 0.132,0 0.274,0.071 0.426,0.215 0.152,0.143 0.228,0.288 0.228,0.433 0,0.223 -0.111,0.403 -0.334,0.539 -0.786,0.486 -1.649,1.091 -2.587,1.817 -0.939,0.725 -1.408,1.126 -1.408,1.204 0,0.05 0.056,0.097 0.17,0.143 0.918,0.344 1.681,0.822 2.288,1.427 0.607,0.608 0.91,1.255 0.91,1.941 0,0.687 -0.286,1.257 -0.859,1.712 C 5.23,0.045 4.464,0.272 3.505,0.272 2.891,0.272 1.916,0.164 0.58,-0.055 Z m 14.844,-7.03 c -0.077,0 -0.191,-0.075 -0.341,-0.225 -1.018,-1.082 -2.016,-1.623 -2.993,-1.623 -0.428,0 -0.75,0.113 -0.969,0.341 -0.218,0.226 -0.327,0.529 -0.327,0.907 0,0.194 0.118,0.354 0.355,0.477 1.15,0.618 2.068,1.248 2.754,1.889 0.687,0.641 1.03,1.311 1.03,2.011 0,0.314 -0.108,0.582 -0.324,0.805 -0.216,0.223 -0.494,0.334 -0.835,0.334 -1.041,0 -2,-0.586 -2.878,-1.759 C 9.439,-5.046 9,-6.283 9,-7.583 9,-8.355 9.199,-8.958 9.597,-9.39 c 0.398,-0.431 0.962,-0.647 1.694,-0.647 0.873,0 1.72,0.327 2.54,0.982 0.821,0.654 1.231,1.213 1.231,1.677 0,0.232 -0.072,0.348 -0.218,0.348 m -3.413,2.966 c 0.525,0.614 0.997,0.92 1.415,0.92 0.246,0 0.368,-0.136 0.368,-0.409 0,-0.695 -0.963,-1.616 -2.891,-2.761 0.214,0.886 0.583,1.636 1.108,2.25 m 7.344,5.346 C 18.559,0.9 18.268,-0.416 17.902,-2.666 c -0.366,-2.25 -0.549,-4.137 -0.549,-5.66 0,-0.668 0.046,-1.153 0.14,-1.452 0.093,-0.3 0.26,-0.451 0.501,-0.451 0.173,0 0.336,0.083 0.491,0.246 0.154,0.164 0.232,0.359 0.232,0.587 0,0.063 -0.01,0.166 -0.028,0.306 -0.095,0.741 -0.143,1.486 -0.143,2.236 0,0.606 0.068,1.44 0.205,2.504 0.136,1.063 0.329,2.036 0.579,2.918 0.396,1.4 0.594,2.286 0.594,2.659 0,0.419 -0.164,0.627 -0.491,0.627 -0.223,0 -0.443,-0.19 -0.658,-0.572 m 5.577,-1.654 c 0.243,0.125 0.42,0.367 0.532,0.726 0.111,0.36 0.167,0.614 0.167,0.764 0,0.096 -0.082,0.194 -0.246,0.297 -0.163,0.102 -0.311,0.153 -0.443,0.153 -0.264,0 -0.503,-0.094 -0.719,-0.283 -0.216,-0.188 -0.324,-0.374 -0.324,-0.556 0,-0.218 0.061,-0.474 0.184,-0.77 0.032,-0.077 0.057,-0.148 0.075,-0.211 0.05,-0.205 0.123,-0.307 0.218,-0.307 0.127,0 0.313,0.062 0.556,0.187 m -1.326,-5.956 c 0.081,0.517 0.293,1.378 0.634,2.578 0.063,0.222 0.095,0.402 0.095,0.538 0,0.137 -0.067,0.261 -0.201,0.372 -0.134,0.111 -0.317,0.167 -0.549,0.167 -0.191,0 -0.339,-0.101 -0.443,-0.304 -0.105,-0.202 -0.157,-0.446 -0.157,-0.732 0,-0.146 -0.059,-0.535 -0.177,-1.166 -0.346,-1.811 -0.518,-3.133 -0.518,-3.969 0,-0.809 0.22,-1.214 0.661,-1.214 0.168,0 0.327,0.065 0.477,0.195 0.15,0.129 0.225,0.235 0.225,0.317 0,0.054 -0.009,0.122 -0.027,0.204 -0.095,0.432 -0.143,0.821 -0.143,1.166 0,0.714 0.041,1.33 0.123,1.848 m 8.107,-2.939 c 0.227,-0.482 0.516,-0.723 0.866,-0.723 0.181,0 0.37,0.072 0.566,0.215 0.195,0.143 0.293,0.285 0.293,0.426 0,0.159 -0.1,0.294 -0.3,0.403 -0.419,0.217 -0.628,0.877 -0.628,1.977 0,0.55 0.123,1.496 0.369,2.837 0.045,0.245 0.068,0.438 0.068,0.579 0,0.282 -0.182,0.423 -0.546,0.423 -0.127,0 -0.22,0.073 -0.279,0.218 -0.187,0.437 -0.471,0.655 -0.853,0.655 -1.054,0 -2.116,-0.69 -3.184,-2.07 -1.068,-1.379 -1.602,-2.667 -1.602,-3.862 0,-0.464 0.127,-0.844 0.381,-1.139 0.255,-0.296 0.557,-0.443 0.907,-0.443 0.519,0 1.089,0.213 1.712,0.641 0.623,0.427 1.252,1.067 1.889,1.922 0,-0.891 0.113,-1.577 0.341,-2.059 m -0.116,4.923 c 0,-0.845 -0.444,-1.773 -1.33,-2.782 -0.886,-1.009 -1.58,-1.513 -2.08,-1.513 -0.345,0 -0.518,0.261 -0.518,0.784 0,0.741 0.398,1.674 1.193,2.799 0.796,1.125 1.494,1.687 2.094,1.687 0.427,0 0.641,-0.325 0.641,-0.975 m 6.347,3.628 c 0.35,0.941 0.526,1.673 0.526,2.195 0,0.551 -0.16,0.826 -0.478,0.826 -0.2,0 -0.368,-0.055 -0.504,-0.164 C 36.771,2.032 36.647,1.816 36.536,1.493 36.425,1.171 36.248,0.325 36.008,-1.043 l -0.703,-4.078 c -0.227,-1.356 -0.341,-2.239 -0.341,-2.652 0,-0.223 0.098,-0.432 0.293,-0.628 0.105,-0.104 0.166,-0.264 0.185,-0.477 0.031,-0.264 0.183,-0.483 0.453,-0.658 0.27,-0.175 0.567,-0.263 0.89,-0.263 1.186,0 2.313,0.62 3.379,1.858 1.066,1.239 1.599,2.565 1.599,3.979 0,0.478 -0.125,0.882 -0.375,1.214 -0.25,0.332 -0.555,0.498 -0.914,0.498 -0.65,0 -1.38,-0.329 -2.189,-0.986 -0.809,-0.658 -1.505,-1.515 -2.087,-2.575 0.441,2.492 0.83,4.19 1.166,5.095 m 0.529,-4.265 c 0.911,1.034 1.683,1.551 2.315,1.551 0.132,0 0.241,-0.086 0.327,-0.259 0.087,-0.173 0.13,-0.38 0.13,-0.622 0,-0.535 -0.211,-1.193 -0.631,-1.973 -0.42,-0.779 -0.919,-1.384 -1.497,-1.813 -0.577,-0.43 -1.125,-0.645 -1.643,-0.645 -0.336,0 -0.623,0.221 -0.859,0.662 0.327,1.032 0.946,2.065 1.858,3.099 m 7.473,6.263 C 45.15,0.9 44.859,-0.416 44.493,-2.666 c -0.366,-2.25 -0.549,-4.137 -0.549,-5.66 0,-0.668 0.047,-1.153 0.14,-1.452 0.093,-0.3 0.26,-0.451 0.501,-0.451 0.173,0 0.336,0.083 0.491,0.246 0.155,0.164 0.232,0.359 0.232,0.587 0,0.063 -0.009,0.166 -0.027,0.306 -0.096,0.741 -0.144,1.486 -0.144,2.236 0,0.606 0.069,1.44 0.205,2.504 0.136,1.063 0.33,2.036 0.58,2.918 0.395,1.4 0.593,2.286 0.593,2.659 0,0.419 -0.164,0.627 -0.491,0.627 -0.223,0 -0.442,-0.19 -0.658,-0.572 M 53.81,-7.03 c -0.077,0 -0.19,-0.075 -0.341,-0.225 -1.018,-1.082 -2.016,-1.623 -2.993,-1.623 -0.427,0 -0.75,0.113 -0.968,0.341 -0.218,0.226 -0.328,0.529 -0.328,0.907 0,0.194 0.119,0.354 0.355,0.477 1.15,0.618 2.068,1.248 2.755,1.889 0.686,0.641 1.029,1.311 1.029,2.011 0,0.314 -0.108,0.582 -0.323,0.805 -0.216,0.223 -0.495,0.334 -0.836,0.334 -1.041,0 -2,-0.586 -2.877,-1.759 -0.878,-1.173 -1.316,-2.41 -1.316,-3.71 0,-0.772 0.198,-1.375 0.596,-1.807 0.398,-0.431 0.963,-0.647 1.695,-0.647 0.873,0 1.719,0.327 2.54,0.982 0.82,0.654 1.231,1.213 1.231,1.677 0,0.232 -0.073,0.348 -0.219,0.348 m -3.412,2.966 c 0.525,0.614 0.996,0.92 1.415,0.92 0.245,0 0.368,-0.136 0.368,-0.409 0,-0.695 -0.964,-1.616 -2.891,-2.761 0.213,0.886 0.583,1.636 1.108,2.25 m 12.978,1.705 c -0.091,-0.5 -0.208,-1.349 -0.351,-2.547 -0.143,-1.198 -0.226,-2.065 -0.249,-2.602 -0.027,-0.541 -0.06,-0.916 -0.099,-1.125 -0.038,-0.209 -0.105,-0.416 -0.201,-0.62 -0.091,-0.191 -0.136,-0.31 -0.136,-0.355 0,-0.109 0.067,-0.255 0.201,-0.44 0.134,-0.184 0.287,-0.276 0.46,-0.276 0.246,0 0.555,0.128 0.928,0.382 0.281,0.196 0.82,0.389 1.616,0.58 2.013,0.482 3.565,1.244 4.653,2.287 1.089,1.044 1.634,2.2 1.634,3.468 0,1.154 -0.381,2.085 -1.143,2.792 -0.761,0.707 -1.769,1.06 -3.024,1.06 -0.359,0 -0.9,-0.029 -1.623,-0.088 C 65.315,0.098 64.729,0.068 64.283,0.068 l -0.955,0.027 c -0.168,0 -0.326,-0.08 -0.473,-0.242 -0.148,-0.161 -0.222,-0.326 -0.222,-0.494 0,-0.223 0.186,-0.38 0.559,-0.47 0.205,-0.055 0.307,-0.171 0.307,-0.348 0,-0.164 -0.041,-0.464 -0.123,-0.9 m 1.909,1.418 c 0.832,0.109 1.544,0.164 2.135,0.164 0.973,0 1.756,-0.252 2.349,-0.754 0.593,-0.502 0.89,-1.174 0.89,-2.015 0,-1.015 -0.384,-1.918 -1.153,-2.714 -0.768,-0.795 -1.768,-1.385 -3,-1.766 -1.232,-0.382 -1.993,-0.573 -2.284,-0.573 -0.105,0 -0.175,0.016 -0.212,0.048 -0.059,0.15 -0.088,0.373 -0.088,0.668 0,1.337 0.27,3.63 0.811,6.881 0.182,0.013 0.366,0.034 0.552,0.061 m 13.46,-8.326 c 0.228,-0.482 0.516,-0.723 0.866,-0.723 0.182,0 0.371,0.072 0.566,0.215 0.196,0.143 0.293,0.285 0.293,0.426 0,0.159 -0.1,0.294 -0.3,0.403 -0.418,0.217 -0.627,0.877 -0.627,1.977 0,0.55 0.123,1.496 0.368,2.837 0.046,0.245 0.069,0.438 0.069,0.579 0,0.282 -0.182,0.423 -0.546,0.423 -0.127,0 -0.221,0.073 -0.28,0.218 -0.186,0.437 -0.47,0.655 -0.852,0.655 -1.055,0 -2.116,-0.69 -3.184,-2.07 -1.069,-1.379 -1.603,-2.667 -1.603,-3.862 0,-0.464 0.127,-0.844 0.382,-1.139 0.255,-0.296 0.557,-0.443 0.907,-0.443 0.518,0 1.089,0.213 1.712,0.641 0.622,0.427 1.252,1.067 1.888,1.922 0,-0.891 0.114,-1.577 0.341,-2.059 m -0.116,4.923 c 0,-0.845 -0.443,-1.773 -1.329,-2.782 -0.887,-1.009 -1.58,-1.513 -2.08,-1.513 -0.346,0 -0.518,0.261 -0.518,0.784 0,0.741 0.397,1.674 1.193,2.799 0.795,1.125 1.493,1.687 2.093,1.687 0.428,0 0.641,-0.325 0.641,-0.975 m 7.105,2.967 c 0.164,0.586 0.246,0.911 0.246,0.975 0,0.118 -0.055,0.245 -0.164,0.381 -0.109,0.137 -0.262,0.205 -0.457,0.205 -0.318,0 -0.532,-0.239 -0.641,-0.716 -0.109,-0.482 -0.234,-0.969 -0.375,-1.463 -0.141,-0.493 -0.248,-0.783 -0.32,-0.869 C 83.95,-2.95 83.866,-2.993 83.77,-2.993 h -1.404 c -0.269,0 -0.403,-0.132 -0.403,-0.396 0,-0.465 0.291,-0.695 0.873,-0.695 l 0.709,0.061 c 0.109,0 0.164,-0.034 0.164,-0.102 0,-0.196 -0.112,-0.782 -0.334,-1.76 -0.228,-0.982 -0.341,-1.707 -0.341,-2.176 0,-1.294 0.55,-1.942 1.65,-1.942 0.659,0 1.303,0.26 1.933,0.781 0.63,0.52 0.945,0.944 0.945,1.271 0,0.209 -0.098,0.314 -0.294,0.314 -0.145,0 -0.352,-0.121 -0.62,-0.362 -0.696,-0.586 -1.239,-0.879 -1.63,-0.879 -0.264,0 -0.461,0.083 -0.593,0.249 -0.132,0.166 -0.198,0.499 -0.198,0.999 0,0.309 0.116,0.98 0.348,2.015 0.232,1.034 0.369,1.575 0.412,1.623 0.044,0.047 0.342,0.107 0.897,0.179 0.555,0.074 1.162,0.131 1.821,0.172 0.513,0.031 0.77,0.232 0.77,0.6 0,0.159 -0.045,0.27 -0.136,0.334 -0.091,0.063 -0.309,0.095 -0.655,0.095 -0.273,0 -0.613,-0.022 -1.023,-0.068 -0.413,-0.05 -0.854,-0.093 -1.322,-0.129 z m 8.871,-7.89 c 0.227,-0.482 0.516,-0.723 0.866,-0.723 0.182,0 0.37,0.072 0.566,0.215 0.195,0.143 0.293,0.285 0.293,0.426 0,0.159 -0.1,0.294 -0.3,0.403 -0.418,0.217 -0.627,0.877 -0.627,1.977 0,0.55 0.122,1.496 0.368,2.837 0.045,0.245 0.068,0.438 0.068,0.579 0,0.282 -0.182,0.423 -0.545,0.423 -0.128,0 -0.221,0.073 -0.28,0.218 -0.187,0.437 -0.471,0.655 -0.852,0.655 -1.055,0 -2.117,-0.69 -3.185,-2.07 -1.068,-1.379 -1.602,-2.667 -1.602,-3.862 0,-0.464 0.127,-0.844 0.382,-1.139 0.254,-0.296 0.556,-0.443 0.907,-0.443 0.518,0 1.088,0.213 1.711,0.641 0.623,0.427 1.252,1.067 1.889,1.922 0,-0.891 0.113,-1.577 0.341,-2.059 m -0.116,4.923 c 0,-0.845 -0.443,-1.773 -1.33,-2.782 -0.886,-1.009 -1.58,-1.513 -2.08,-1.513 -0.345,0 -0.518,0.261 -0.518,0.784 0,0.741 0.398,1.674 1.194,2.799 0.795,1.125 1.493,1.687 2.093,1.687 0.427,0 0.641,-0.325 0.641,-0.975 m 11.386,-5.325 c -0.036,0.19 -0.054,0.483 -0.054,0.88 0,1.322 0.152,2.829 0.457,4.519 0.086,0.047 0.459,0.104 1.118,0.172 0.773,0.077 1.274,0.165 1.503,0.262 0.23,0.098 0.345,0.24 0.345,0.427 0,0.186 -0.106,0.275 -0.317,0.265 -0.212,-0.009 -0.911,-0.013 -2.097,-0.013 -0.273,0 -0.409,0.104 -0.409,0.314 0,0.654 0.175,1.503 0.525,2.546 0.35,1.044 0.791,1.565 1.323,1.565 0.491,0 0.736,-0.438 0.736,-1.316 l -0.048,-0.661 c 0,-0.15 0.075,-0.225 0.225,-0.225 0.2,0 0.379,0.21 0.536,0.631 0.157,0.42 0.235,0.796 0.235,1.128 0,0.409 -0.141,0.751 -0.423,1.026 -0.282,0.275 -0.625,0.413 -1.029,0.413 -0.764,0 -1.393,-0.312 -1.886,-0.934 -0.493,-0.623 -0.856,-1.639 -1.087,-3.048 -0.069,-0.387 -0.129,-0.689 -0.181,-0.907 -0.053,-0.218 -0.192,-0.416 -0.42,-0.593 -0.295,-0.228 -0.443,-0.439 -0.443,-0.636 0,-0.121 0.098,-0.246 0.293,-0.375 0.191,-0.131 0.287,-0.237 0.287,-0.319 0,-0.477 -0.066,-1.179 -0.198,-2.1 -0.214,-1.505 -0.32,-2.419 -0.32,-2.742 0,-0.677 0.231,-1.016 0.695,-1.016 0.141,0 0.282,0.039 0.423,0.116 0.141,0.078 0.227,0.173 0.259,0.287 0,0.045 -0.016,0.157 -0.048,0.334 m 9.359,1.152 c 0.934,1.009 1.401,2.105 1.401,3.287 0,0.773 -0.226,1.439 -0.679,1.998 -0.452,0.559 -1.042,0.838 -1.769,0.838 -1.1,0 -2.045,-0.569 -2.833,-1.709 -0.789,-1.137 -1.183,-2.293 -1.183,-3.466 0,-0.695 0.202,-1.28 0.606,-1.752 0.405,-0.473 0.919,-0.71 1.542,-0.71 1.009,0 1.98,0.505 2.915,1.514 m -3.076,3.693 c 0.525,0.897 1.154,1.345 1.886,1.345 0.441,0 0.792,-0.172 1.053,-0.52 0.262,-0.348 0.392,-0.801 0.392,-1.361 0,-0.91 -0.341,-1.735 -1.023,-2.478 -0.681,-0.744 -1.361,-1.115 -2.038,-1.115 -0.319,0 -0.574,0.145 -0.767,0.436 -0.194,0.29 -0.29,0.665 -0.29,1.125 0,0.814 0.262,1.67 0.787,2.568 m 8.002,-1.974 0.006,0.252 c 0.046,0.832 0.091,1.345 0.137,1.541 0.036,0.168 0.061,0.33 0.075,0.484 0.018,0.136 0.079,0.384 0.184,0.743 0.091,0.323 0.136,0.573 0.136,0.75 0,0.123 -0.042,0.238 -0.126,0.345 -0.084,0.107 -0.21,0.16 -0.378,0.16 -0.173,0 -0.333,-0.059 -0.481,-0.177 -0.148,-0.119 -0.245,-0.246 -0.293,-0.382 -0.048,-0.136 -0.088,-0.38 -0.12,-0.731 -0.031,-0.317 -0.054,-0.519 -0.068,-0.606 -0.082,-0.527 -0.136,-1.22 -0.163,-2.079 -0.023,-0.729 -0.034,-1.198 -0.034,-1.412 0,-0.786 0.05,-1.346 0.15,-1.677 0.099,-0.332 0.261,-0.498 0.484,-0.498 0.232,0 0.411,0.057 0.538,0.17 0.128,0.114 0.214,0.348 0.259,0.703 0.182,1.377 0.691,2.639 1.528,3.784 0.836,1.146 1.491,1.719 1.964,1.719 0.177,0 0.347,-0.085 0.511,-0.253 0.159,-0.168 0.334,-0.252 0.525,-0.252 0.182,0 0.317,0.057 0.406,0.17 0.089,0.114 0.133,0.241 0.133,0.382 0,0.318 -0.125,0.597 -0.375,0.836 -0.25,0.238 -0.573,0.358 -0.968,0.358 -0.196,0 -0.398,-0.038 -0.607,-0.113 -0.209,-0.075 -0.442,-0.208 -0.699,-0.399 -0.257,-0.191 -0.541,-0.47 -0.853,-0.839 -0.311,-0.368 -0.596,-0.753 -0.855,-1.155 -0.259,-0.403 -0.544,-0.958 -0.853,-1.668 -0.063,-0.145 -0.118,-0.259 -0.163,-0.34 z M 134.11,0 c -0.136,0 -0.289,-0.064 -0.457,-0.191 -0.168,-0.127 -0.252,-0.277 -0.252,-0.45 0,-0.095 0.091,-0.286 0.272,-0.573 0.032,-0.055 0.048,-0.095 0.048,-0.123 0,-0.027 -0.016,-0.12 -0.048,-0.279 -0.64,-3.029 -0.961,-5.453 -0.961,-7.276 0,-0.773 0.239,-1.159 0.716,-1.159 0.168,0 0.324,0.072 0.467,0.218 0.143,0.145 0.215,0.287 0.215,0.423 0,0.145 -0.021,0.339 -0.061,0.58 -0.046,0.24 -0.069,0.525 -0.069,0.851 0,0.424 0.051,1.084 0.154,1.985 0.102,0.9 0.244,1.857 0.426,2.871 0.182,1.014 0.311,1.615 0.389,1.804 0.077,0.188 0.178,0.305 0.303,0.351 0.125,0.045 0.415,0.1 0.869,0.163 0.455,0.064 0.91,0.096 1.364,0.096 0.609,0 1.111,-0.139 1.504,-0.416 0.393,-0.277 0.59,-0.609 0.59,-0.996 0,-0.733 -0.44,-1.368 -1.32,-1.909 -0.879,-0.541 -1.501,-0.811 -1.865,-0.811 -0.082,0 -0.207,0.013 -0.375,0.041 -0.168,0.022 -0.291,0.034 -0.368,0.034 -0.223,0 -0.416,-0.065 -0.58,-0.195 -0.163,-0.129 -0.245,-0.28 -0.245,-0.453 0,-0.2 0.063,-0.339 0.191,-0.416 0.127,-0.077 0.345,-0.121 0.654,-0.13 0.159,-0.009 0.923,-0.588 2.292,-1.738 0.631,-0.537 1.242,-1.029 1.83,-1.473 0.589,-0.446 1.017,-0.669 1.286,-0.669 0.132,0 0.274,0.071 0.426,0.215 0.152,0.143 0.228,0.288 0.228,0.433 0,0.223 -0.111,0.403 -0.334,0.539 -0.786,0.486 -1.649,1.091 -2.588,1.817 -0.938,0.725 -1.408,1.126 -1.408,1.204 0,0.05 0.057,0.097 0.171,0.143 0.918,0.344 1.681,0.822 2.288,1.427 0.606,0.608 0.91,1.255 0.91,1.941 0,0.687 -0.286,1.257 -0.859,1.712 -0.573,0.454 -1.339,0.681 -2.298,0.681 -0.614,0 -1.589,-0.108 -2.926,-0.327 z m 11.977,-0.372 c 0.243,0.125 0.42,0.367 0.532,0.726 0.111,0.36 0.167,0.614 0.167,0.764 0,0.096 -0.082,0.194 -0.246,0.297 -0.164,0.102 -0.311,0.153 -0.443,0.153 -0.264,0 -0.504,-0.094 -0.72,-0.283 -0.215,-0.188 -0.323,-0.374 -0.323,-0.556 0,-0.218 0.061,-0.474 0.184,-0.77 0.031,-0.077 0.056,-0.148 0.075,-0.211 0.05,-0.205 0.122,-0.307 0.218,-0.307 0.127,0 0.312,0.062 0.556,0.187 m -1.327,-5.956 c 0.082,0.517 0.294,1.378 0.635,2.578 0.063,0.222 0.095,0.402 0.095,0.538 0,0.137 -0.067,0.261 -0.201,0.372 -0.134,0.111 -0.317,0.167 -0.549,0.167 -0.191,0 -0.339,-0.101 -0.443,-0.304 -0.105,-0.202 -0.157,-0.446 -0.157,-0.732 0,-0.146 -0.059,-0.535 -0.177,-1.166 -0.346,-1.811 -0.519,-3.133 -0.519,-3.969 0,-0.809 0.221,-1.214 0.662,-1.214 0.168,0 0.327,0.065 0.477,0.195 0.15,0.129 0.225,0.235 0.225,0.317 0,0.054 -0.009,0.122 -0.027,0.204 -0.096,0.432 -0.143,0.821 -0.143,1.166 0,0.714 0.041,1.33 0.122,1.848 m 7.876,-1.807 c -0.141,-1.582 -0.406,-2.771 -0.795,-3.566 -0.388,-0.796 -0.956,-1.194 -1.701,-1.194 -0.855,0 -1.816,0.357 -2.884,1.071 -0.405,0.268 -0.648,0.402 -0.73,0.402 -0.168,0 -0.252,-0.111 -0.252,-0.334 0,-0.354 0.413,-0.825 1.241,-1.411 0.827,-0.587 1.666,-0.88 2.516,-0.88 0.491,0 0.968,0.133 1.432,0.399 0.463,0.266 0.861,0.665 1.193,1.197 0.332,0.532 0.561,1.082 0.689,1.65 0.127,0.568 0.245,1.38 0.354,2.434 0.118,1.173 0.228,2.007 0.328,2.503 0.1,0.495 0.288,1.12 0.566,1.875 0.05,0.141 0.075,0.245 0.075,0.314 0,0.109 -0.037,0.253 -0.11,0.433 -0.072,0.179 -0.15,0.298 -0.231,0.358 -0.05,0.036 -0.109,0.081 -0.178,0.136 -0.286,0.218 -0.618,0.327 -0.995,0.327 -0.718,0 -1.556,-0.323 -2.513,-0.968 -0.957,-0.646 -1.701,-1.401 -2.233,-2.267 -0.532,-0.866 -0.798,-1.652 -0.798,-2.356 0,-0.455 0.116,-0.811 0.348,-1.067 0.232,-0.257 0.552,-0.386 0.961,-0.386 0.55,0 1.147,0.189 1.79,0.566 0.643,0.378 1.172,0.81 1.586,1.295 0.25,0.296 0.402,0.424 0.456,0.383 -0.045,-0.25 -0.084,-0.555 -0.115,-0.914 m 0.661,3.9 c 0,-0.422 -0.235,-1.005 -0.706,-1.749 -0.47,-0.744 -1.032,-1.324 -1.684,-1.743 -0.652,-0.418 -1.181,-0.627 -1.585,-0.627 -0.137,0 -0.261,0.052 -0.372,0.154 -0.111,0.103 -0.167,0.242 -0.167,0.42 0,0.522 0.273,1.17 0.818,1.943 0.546,0.773 1.108,1.358 1.688,1.759 0.579,0.4 1.062,0.599 1.449,0.599 0.373,0 0.559,-0.251 0.559,-0.756 m 4.302,-3.41 c -0.05,0 -0.075,0.028 -0.075,0.083 0,0.263 0.111,0.952 0.334,2.066 0.223,1.114 0.434,2.032 0.634,2.755 0.41,1.459 0.614,2.607 0.614,3.443 0,0.282 -0.079,0.503 -0.239,0.662 -0.159,0.158 -0.336,0.238 -0.531,0.238 -0.11,0 -0.245,-0.109 -0.406,-0.327 -0.162,-0.218 -0.279,-0.657 -0.351,-1.316 -0.323,-2.823 -0.764,-5.678 -1.323,-8.564 -0.073,-0.364 -0.109,-0.61 -0.109,-0.737 0,-0.173 0.068,-0.318 0.204,-0.436 0.137,-0.118 0.305,-0.178 0.505,-0.178 0.168,0 0.354,0.115 0.559,0.345 0.205,0.229 0.523,0.716 0.955,1.462 1.445,2.496 2.407,3.744 2.884,3.744 0.2,0 0.343,-0.146 0.43,-0.436 0.086,-0.291 0.168,-0.91 0.245,-1.855 0.077,-1 0.252,-1.7 0.525,-2.097 0.273,-0.398 0.587,-0.597 0.941,-0.597 0.155,0 0.3,0.05 0.437,0.15 0.136,0.1 0.204,0.209 0.204,0.328 0,0.132 -0.102,0.336 -0.307,0.613 -0.4,0.541 -0.657,1.419 -0.77,2.633 -0.114,1.141 -0.262,1.877 -0.443,2.209 -0.182,0.332 -0.419,0.498 -0.71,0.498 -1.095,0 -2.488,-1.562 -4.18,-4.686 z m 11.38,6.268 c 0.164,0.586 0.246,0.911 0.246,0.975 0,0.118 -0.055,0.245 -0.164,0.381 -0.109,0.137 -0.261,0.205 -0.457,0.205 -0.318,0 -0.532,-0.239 -0.641,-0.716 -0.109,-0.482 -0.234,-0.969 -0.375,-1.463 -0.141,-0.493 -0.248,-0.783 -0.32,-0.869 -0.073,-0.086 -0.157,-0.129 -0.253,-0.129 h -1.404 c -0.269,0 -0.403,-0.132 -0.403,-0.396 0,-0.465 0.291,-0.695 0.873,-0.695 l 0.709,0.061 c 0.109,0 0.164,-0.034 0.164,-0.102 0,-0.196 -0.111,-0.782 -0.334,-1.76 -0.227,-0.982 -0.341,-1.707 -0.341,-2.176 0,-1.294 0.55,-1.942 1.65,-1.942 0.659,0 1.304,0.26 1.933,0.781 0.63,0.52 0.945,0.944 0.945,1.271 0,0.209 -0.098,0.314 -0.293,0.314 -0.146,0 -0.353,-0.121 -0.621,-0.362 -0.696,-0.586 -1.239,-0.879 -1.63,-0.879 -0.263,0 -0.461,0.083 -0.593,0.249 -0.132,0.166 -0.198,0.499 -0.198,0.999 0,0.309 0.116,0.98 0.348,2.015 0.232,1.034 0.369,1.575 0.413,1.623 0.043,0.047 0.342,0.107 0.896,0.179 0.555,0.074 1.162,0.131 1.821,0.172 0.514,0.031 0.77,0.232 0.77,0.6 0,0.159 -0.045,0.27 -0.136,0.334 -0.091,0.063 -0.309,0.095 -0.655,0.095 -0.272,0 -0.613,-0.022 -1.022,-0.068 -0.414,-0.05 -0.855,-0.093 -1.323,-0.129 z m 11.298,-0.982 c -0.091,-0.5 -0.208,-1.349 -0.351,-2.547 -0.143,-1.198 -0.226,-2.065 -0.249,-2.602 -0.027,-0.541 -0.06,-0.916 -0.099,-1.125 -0.039,-0.209 -0.106,-0.416 -0.201,-0.62 -0.091,-0.191 -0.137,-0.31 -0.137,-0.355 0,-0.109 0.068,-0.255 0.202,-0.44 0.134,-0.184 0.287,-0.276 0.46,-0.276 0.245,0 0.554,0.128 0.927,0.382 0.282,0.196 0.821,0.389 1.616,0.58 2.014,0.482 3.565,1.244 4.654,2.287 1.089,1.044 1.633,2.2 1.633,3.468 0,1.154 -0.38,2.085 -1.142,2.792 -0.761,0.707 -1.769,1.06 -3.024,1.06 -0.359,0 -0.9,-0.029 -1.623,-0.088 -0.727,-0.059 -1.314,-0.089 -1.759,-0.089 l -0.955,0.027 c -0.168,0 -0.326,-0.08 -0.474,-0.242 -0.147,-0.161 -0.221,-0.326 -0.221,-0.494 0,-0.223 0.186,-0.38 0.559,-0.47 0.204,-0.055 0.307,-0.171 0.307,-0.348 0,-0.164 -0.041,-0.464 -0.123,-0.9 m 1.909,1.418 c 0.832,0.109 1.544,0.164 2.135,0.164 0.972,0 1.755,-0.252 2.349,-0.754 0.593,-0.502 0.889,-1.174 0.889,-2.015 0,-1.015 -0.384,-1.918 -1.152,-2.714 -0.768,-0.795 -1.768,-1.385 -3,-1.766 -1.232,-0.382 -1.994,-0.573 -2.284,-0.573 -0.105,0 -0.176,0.016 -0.212,0.048 -0.059,0.15 -0.089,0.373 -0.089,0.668 0,1.337 0.271,3.63 0.812,6.881 0.182,0.013 0.366,0.034 0.552,0.061 m 14.142,-6.089 c -0.077,0 -0.191,-0.075 -0.341,-0.225 -1.018,-1.082 -2.016,-1.623 -2.993,-1.623 -0.428,0 -0.751,0.113 -0.969,0.341 -0.218,0.226 -0.327,0.529 -0.327,0.907 0,0.194 0.118,0.354 0.355,0.477 1.15,0.618 2.068,1.248 2.754,1.889 0.687,0.641 1.03,1.311 1.03,2.011 0,0.314 -0.108,0.582 -0.324,0.805 -0.216,0.223 -0.494,0.334 -0.835,0.334 -1.041,0 -2,-0.586 -2.878,-1.759 -0.877,-1.173 -1.316,-2.41 -1.316,-3.71 0,-0.772 0.199,-1.375 0.597,-1.807 0.398,-0.431 0.962,-0.647 1.694,-0.647 0.873,0 1.72,0.327 2.54,0.982 0.821,0.654 1.231,1.213 1.231,1.677 0,0.232 -0.073,0.348 -0.218,0.348 m -3.413,2.966 c 0.525,0.614 0.997,0.92 1.415,0.92 0.246,0 0.368,-0.136 0.368,-0.409 0,-0.695 -0.964,-1.616 -2.891,-2.761 0.214,0.886 0.583,1.636 1.108,2.25 m 9.87,-5.227 c 0.814,0.525 1.22,0.961 1.22,1.306 0,0.177 -0.077,0.266 -0.231,0.266 -0.15,0 -0.385,-0.111 -0.703,-0.334 -0.904,-0.627 -1.691,-0.941 -2.359,-0.941 -0.877,0 -1.316,0.386 -1.316,1.159 0,0.773 0.323,1.721 0.968,2.844 0.646,1.122 1.205,1.684 1.678,1.684 0.231,0 0.409,-0.287 0.532,-0.859 0.109,-0.532 0.295,-0.798 0.559,-0.798 0.118,0 0.235,0.096 0.351,0.29 0.116,0.193 0.174,0.424 0.174,0.692 0,0.445 -0.133,0.867 -0.399,1.265 -0.266,0.397 -0.583,0.596 -0.951,0.596 -0.81,0 -1.685,-0.658 -2.626,-1.974 -0.941,-1.316 -1.411,-2.567 -1.411,-3.753 0,-0.705 0.183,-1.254 0.549,-1.644 0.366,-0.391 0.89,-0.586 1.571,-0.586 0.782,0 1.58,0.262 2.394,0.787 m 6.133,8.919 c 0.243,0.125 0.42,0.367 0.532,0.726 0.111,0.36 0.167,0.614 0.167,0.764 0,0.096 -0.082,0.194 -0.246,0.297 -0.163,0.102 -0.311,0.153 -0.443,0.153 -0.264,0 -0.503,-0.094 -0.719,-0.283 -0.216,-0.188 -0.324,-0.374 -0.324,-0.556 0,-0.218 0.061,-0.474 0.184,-0.77 0.032,-0.077 0.057,-0.148 0.075,-0.211 0.05,-0.205 0.123,-0.307 0.218,-0.307 0.127,0 0.313,0.062 0.556,0.187 m -1.326,-5.956 c 0.081,0.517 0.293,1.378 0.634,2.578 0.063,0.222 0.095,0.402 0.095,0.538 0,0.137 -0.067,0.261 -0.201,0.372 -0.134,0.111 -0.317,0.167 -0.549,0.167 -0.191,0 -0.339,-0.101 -0.443,-0.304 -0.105,-0.202 -0.157,-0.446 -0.157,-0.732 0,-0.146 -0.059,-0.535 -0.177,-1.166 -0.346,-1.811 -0.518,-3.133 -0.518,-3.969 0,-0.809 0.22,-1.214 0.661,-1.214 0.168,0 0.327,0.065 0.477,0.195 0.15,0.129 0.225,0.235 0.225,0.317 0,0.054 -0.009,0.122 -0.027,0.204 -0.095,0.432 -0.143,0.821 -0.143,1.166 0,0.714 0.041,1.33 0.123,1.848 m 5.529,-2.427 c -0.577,-0.169 -1.118,-0.253 -1.623,-0.253 -0.059,0 -0.182,0.023 -0.368,0.068 -0.191,0.045 -0.32,0.069 -0.389,0.069 -0.168,0 -0.335,-0.041 -0.501,-0.123 -0.166,-0.082 -0.249,-0.209 -0.249,-0.382 0,-0.5 0.369,-0.75 1.105,-0.75 0.873,0 1.789,0.197 2.748,0.59 0.959,0.392 1.439,0.937 1.439,1.633 0,0.377 -0.154,0.706 -0.461,0.985 -0.306,0.28 -0.717,0.542 -1.23,0.788 -0.637,0.3 -1.078,0.553 -1.323,0.76 -0.246,0.207 -0.368,0.438 -0.368,0.692 0,0.418 0.347,0.793 1.043,1.125 0.695,0.332 1.157,0.498 1.384,0.498 0.045,0 0.141,-0.032 0.286,-0.095 0.146,-0.068 0.244,-0.103 0.294,-0.103 0.068,0 0.162,0.05 0.283,0.149 0.12,0.101 0.18,0.222 0.18,0.363 0,0.313 -0.083,0.534 -0.249,0.661 -0.166,0.127 -0.433,0.191 -0.801,0.191 -0.573,0 -1.312,-0.299 -2.219,-0.893 -0.907,-0.596 -1.361,-1.346 -1.361,-2.25 0,-0.35 0.163,-0.667 0.488,-0.952 0.325,-0.285 0.949,-0.662 1.872,-1.135 0.727,-0.377 1.091,-0.714 1.091,-1.009 -0.137,-0.25 -0.494,-0.459 -1.071,-0.627 m 6.876,8.383 c 0.244,0.125 0.421,0.367 0.532,0.726 0.112,0.36 0.167,0.614 0.167,0.764 0,0.096 -0.081,0.194 -0.245,0.297 -0.164,0.102 -0.312,0.153 -0.443,0.153 -0.264,0 -0.504,-0.094 -0.72,-0.283 -0.216,-0.188 -0.324,-0.374 -0.324,-0.556 0,-0.218 0.062,-0.474 0.184,-0.77 0.032,-0.077 0.057,-0.148 0.075,-0.211 0.05,-0.205 0.123,-0.307 0.219,-0.307 0.127,0 0.312,0.062 0.555,0.187 m -1.326,-5.956 c 0.082,0.517 0.293,1.378 0.634,2.578 0.064,0.222 0.096,0.402 0.096,0.538 0,0.137 -0.067,0.261 -0.201,0.372 -0.135,0.111 -0.317,0.167 -0.549,0.167 -0.191,0 -0.339,-0.101 -0.444,-0.304 -0.104,-0.202 -0.156,-0.446 -0.156,-0.732 0,-0.146 -0.06,-0.535 -0.178,-1.166 -0.345,-1.811 -0.518,-3.133 -0.518,-3.969 0,-0.809 0.221,-1.214 0.661,-1.214 0.169,0 0.328,0.065 0.478,0.195 0.15,0.129 0.225,0.235 0.225,0.317 0,0.054 -0.009,0.122 -0.027,0.204 -0.096,0.432 -0.144,0.821 -0.144,1.166 0,0.714 0.041,1.33 0.123,1.848 m 8.076,-2.189 c 0.935,1.009 1.402,2.105 1.402,3.287 0,0.773 -0.226,1.439 -0.679,1.998 -0.452,0.559 -1.042,0.838 -1.769,0.838 -1.1,0 -2.045,-0.569 -2.833,-1.709 -0.789,-1.137 -1.184,-2.293 -1.184,-3.466 0,-0.695 0.203,-1.28 0.607,-1.752 0.405,-0.473 0.919,-0.71 1.541,-0.71 1.01,0 1.981,0.505 2.915,1.514 m -3.075,3.693 c 0.525,0.897 1.154,1.345 1.886,1.345 0.44,0 0.792,-0.172 1.053,-0.52 0.261,-0.348 0.392,-0.801 0.392,-1.361 0,-0.91 -0.341,-1.735 -1.023,-2.478 -0.682,-0.744 -1.361,-1.115 -2.038,-1.115 -0.319,0 -0.574,0.145 -0.768,0.436 -0.193,0.29 -0.289,0.665 -0.289,1.125 0,0.814 0.262,1.67 0.787,2.568 m 12.072,-1.627 c 0.123,-1.332 0.29,-2.152 0.502,-2.458 0.212,-0.307 0.51,-0.46 0.896,-0.46 0.378,0 0.7,0.112 0.969,0.337 0.268,0.225 0.402,0.438 0.402,0.637 0,0.228 -0.097,0.342 -0.293,0.342 -0.019,0 -0.046,-0.01 -0.082,-0.027 -0.214,-0.1 -0.39,-0.15 -0.532,-0.15 -0.223,0 -0.385,0.137 -0.488,0.412 -0.102,0.275 -0.217,0.974 -0.344,2.097 -0.118,0.986 -0.306,1.666 -0.562,2.039 -0.257,0.373 -0.589,0.559 -0.999,0.559 -0.514,0 -0.985,-0.225 -1.412,-0.675 -0.426,-0.45 -0.925,-1.227 -1.493,-2.332 -0.564,-1.087 -0.88,-1.63 -0.948,-1.63 -0.037,0 -0.055,0.036 -0.055,0.109 0,0.127 0.046,0.427 0.137,0.9 0.272,1.432 0.409,2.378 0.409,2.837 0,0.441 -0.05,0.734 -0.15,0.88 -0.1,0.145 -0.268,0.218 -0.505,0.218 -0.132,0 -0.271,-0.106 -0.419,-0.317 -0.148,-0.212 -0.222,-0.404 -0.222,-0.576 0,-1.523 -0.125,-2.971 -0.375,-4.344 -0.073,-0.4 -0.109,-0.709 -0.109,-0.927 0,-0.519 0.268,-0.778 0.805,-0.778 0.145,0 0.328,0.1 0.549,0.3 0.22,0.2 0.708,1.022 1.462,2.469 0.573,1.077 0.999,1.77 1.28,2.079 0.278,0.31 0.536,0.464 0.773,0.464 0.409,0 0.677,-0.668 0.804,-2.005 m 6.73,-2.304 c -0.577,-0.169 -1.118,-0.253 -1.623,-0.253 -0.059,0 -0.182,0.023 -0.368,0.068 -0.191,0.045 -0.321,0.069 -0.389,0.069 -0.168,0 -0.335,-0.041 -0.501,-0.123 -0.166,-0.082 -0.249,-0.209 -0.249,-0.382 0,-0.5 0.368,-0.75 1.105,-0.75 0.873,0 1.789,0.197 2.748,0.59 0.959,0.392 1.439,0.937 1.439,1.633 0,0.377 -0.154,0.706 -0.461,0.985 -0.307,0.28 -0.717,0.542 -1.23,0.788 -0.637,0.3 -1.078,0.553 -1.322,0.76 -0.247,0.207 -0.37,0.438 -0.37,0.692 0,0.418 0.348,0.793 1.044,1.125 0.695,0.332 1.157,0.498 1.384,0.498 0.045,0 0.141,-0.032 0.286,-0.095 0.146,-0.068 0.243,-0.103 0.294,-0.103 0.068,0 0.162,0.05 0.283,0.149 0.12,0.101 0.18,0.222 0.18,0.363 0,0.313 -0.083,0.534 -0.249,0.661 -0.166,0.127 -0.433,0.191 -0.801,0.191 -0.573,0 -1.312,-0.299 -2.219,-0.893 -0.907,-0.596 -1.361,-1.346 -1.361,-2.25 0,-0.35 0.163,-0.667 0.489,-0.952 0.324,-0.285 0.948,-0.662 1.871,-1.135 0.727,-0.377 1.091,-0.714 1.091,-1.009 -0.137,-0.25 -0.494,-0.459 -1.071,-0.627 m 5.768,3.177 c 0.009,0.491 0.118,1.198 0.328,2.121 0.5,2.205 0.75,3.357 0.75,3.457 0,0.118 -0.06,0.225 -0.178,0.32 -0.118,0.096 -0.234,0.144 -0.347,0.144 -0.15,0 -0.337,-0.108 -0.56,-0.321 -0.222,-0.214 -0.334,-0.625 -0.334,-1.234 0,-0.432 -0.116,-1.189 -0.347,-2.271 -0.287,-1.341 -0.401,-2.255 -0.341,-2.742 0.072,-0.053 0.209,-0.099 0.41,-0.135 0.199,-0.037 0.356,-0.055 0.469,-0.055 0.091,0.159 0.141,0.398 0.15,0.716 m -0.399,-2.489 c -0.17,0.1 -0.312,0.15 -0.426,0.15 -0.173,0 -0.341,-0.119 -0.504,-0.358 -0.163,-0.238 -0.246,-0.444 -0.246,-0.617 0,-0.441 0.168,-0.661 0.505,-0.661 0.163,0 0.358,0.093 0.583,0.279 0.225,0.187 0.337,0.504 0.337,0.955 0.005,0.068 -0.078,0.152 -0.249,0.252"
             style="fill:#ea2030;fill-opacity:1;fill-rule:nonzero;stroke:none"
             id="path338"
             inkscape:connector-curvature="0" /></g></g></g><g
       transform="matrix(0.41883322,0,0,0.41883322,15.666137,6.0886129)"
       id="g2016"><path
         inkscape:connector-curvature="0"
         id="path2018"
         style="fill:#ed1b2f;fill-opacity:1;fill-rule:nonzero;stroke:none"
         d="m 0,0 h -23.111 c -2.875,0 -5.352,0.857 -7.432,2.566 -2.053,1.725 -3.078,3.789 -3.078,6.2 v 10.508 c 0,2.394 1.025,4.447 3.078,6.16 2.053,1.724 4.529,2.586 7.432,2.586 h 21.019 v -7 h -20.179 c -0.793,0 -1.491,-0.241 -2.092,-0.721 -0.563,-0.477 -0.842,-1.052 -0.842,-1.725 V 9.463 c 0,-0.684 0.279,-1.266 0.842,-1.745 C -23.762,7.238 -23.064,7 -22.271,7 h 13.876 v 4.207 h -8.416 v 5.606 H 0 Z" /></g><g
       transform="matrix(0.41883322,0,0,0.41883322,26.213865,14.015369)"
       id="g2020"><path
         inkscape:connector-curvature="0"
         id="path2022"
         style="fill:#ed1b2f;fill-opacity:1;fill-rule:nonzero;stroke:none"
         d="m 0,0 c 0,0.615 -0.227,1.119 -0.686,1.508 -0.459,0.391 -1.058,0.586 -1.796,0.586 h -11.782 c -0.67,0 -1.257,-0.213 -1.765,-0.637 C -16.521,1.047 -16.768,0.561 -16.768,0 v -2.113 h 14.286 c 0.738,0 1.337,0.197 1.796,0.595 C -0.227,-1.123 0,-0.617 0,0 M 8.438,0.697 C 8.438,-1.518 7.486,-3.477 5.586,-5.172 3.684,-6.871 1.41,-7.719 -1.229,-7.719 h -15.539 v -2.092 c 0,-0.564 0.247,-1.054 0.739,-1.478 0.508,-0.424 1.095,-0.637 1.765,-0.637 h 20.61 v -7 h -21.02 c -2.875,0 -5.351,0.858 -7.43,2.567 -2.054,1.724 -3.08,3.789 -3.08,6.199 V 0.349 c 0,2.393 1.026,4.446 3.08,6.159 2.051,1.724 4.53,2.586 7.43,2.586 h 13.445 c 2.639,0 4.913,-0.85 6.815,-2.547 1.9,-1.682 2.852,-3.633 2.852,-5.85" /></g><g
       transform="matrix(0.41883322,0,0,0.41883322,40.313883,10.051991)"
       id="g2024"><path
         inkscape:connector-curvature="0"
         id="path2026"
         style="fill:#ed1b2f;fill-opacity:1;fill-rule:nonzero;stroke:none"
         d="m 0,0 v 9.111 c 0,0.673 -0.289,1.248 -0.863,1.725 -0.6,0.48 -1.299,0.721 -2.092,0.721 h -10.92 c -0.795,0 -1.494,-0.241 -2.094,-0.721 -0.56,-0.477 -0.842,-1.052 -0.842,-1.725 V 0 c 0,-0.684 0.282,-1.266 0.842,-1.745 0.6,-0.48 1.299,-0.718 2.094,-0.718 h 10.92 c 0.793,0 1.492,0.238 2.092,0.718 C -0.289,-1.279 0,-0.697 0,0 m 8.395,-0.697 c 0,-2.41 -1.026,-4.475 -3.079,-6.199 -2.08,-1.709 -4.556,-2.567 -7.429,-2.567 h -12.604 c -2.873,0 -5.351,0.858 -7.429,2.567 -2.054,1.724 -3.082,3.789 -3.082,6.199 V 9.812 c 0,2.393 1.028,4.446 3.082,6.159 2.052,1.724 4.529,2.586 7.429,2.586 h 12.604 c 2.9,0 5.377,-0.862 7.429,-2.586 2.053,-1.713 3.079,-3.766 3.079,-6.159 z" /></g><g
       transform="matrix(0.41883322,0,0,0.41883322,57.911454,9.6127259)"
       id="g2028"><path
         inkscape:connector-curvature="0"
         id="path2030"
         style="fill:#939598;fill-opacity:1;fill-rule:nonzero;stroke:none"
         d="M 0,0 C 0,-2.228 -0.951,-4.193 -2.852,-5.889 -4.77,-7.57 -7.039,-8.414 -9.666,-8.414 h -21.861 v 7 h 20.609 c 0.67,0 1.258,0.213 1.764,0.637 0.508,0.423 0.759,0.914 0.759,1.478 0,0.561 -0.251,1.044 -0.759,1.455 -0.506,0.426 -1.094,0.637 -1.764,0.637 h -13.035 c -2.641,0 -4.912,0.848 -6.815,2.547 -1.902,1.695 -2.853,3.654 -2.853,5.869 0,2.217 0.951,4.168 2.853,5.85 1.903,1.697 4.174,2.546 6.815,2.546 h 21.861 v -7 h -20.609 c -0.672,0 -1.258,-0.212 -1.764,-0.636 -0.494,-0.41 -0.74,-0.897 -0.74,-1.457 0,-0.561 0.246,-1.056 0.74,-1.479 0.506,-0.424 1.092,-0.635 1.764,-0.635 h 13.035 c 2.641,0 4.91,-0.85 6.814,-2.546 C -0.951,4.169 0,2.219 0,0" /></g><g
       transform="matrix(0.41883322,0,0,0.41883322,70.240022,14.892321)"
       id="g2032"><path
         inkscape:connector-curvature="0"
         id="path2034"
         style="fill:#939598;fill-opacity:1;fill-rule:nonzero;stroke:none"
         d="m 0,0 h -10.51 v -21.02 h -8.416 V 0 h -10.51 V 7 H 0 Z" /></g><g
       transform="matrix(0.41883322,0,0,0.41883322,80.805759,9.0204499)"
       id="g2036"><path
         inkscape:connector-curvature="0"
         id="path2038"
         style="fill:#939598;fill-opacity:1;fill-rule:nonzero;stroke:none"
         d="m 0,0 v 4.207 h -14.307 c -0.672,0 -1.259,-0.211 -1.765,-0.637 -0.494,-0.411 -0.741,-0.894 -0.741,-1.455 0,-0.564 0.247,-1.054 0.741,-1.478 C -15.566,0.213 -14.979,0 -14.307,0 Z m 8.395,-7 h -23.956 c -2.64,0 -4.912,0.844 -6.814,2.525 -1.902,1.696 -2.852,3.662 -2.852,5.889 0,2.219 0.95,4.169 2.852,5.852 1.902,1.696 4.174,2.547 6.814,2.547 H 0 v 2.113 c 0,0.56 -0.254,1.047 -0.762,1.457 -0.506,0.424 -1.093,0.637 -1.763,0.637 h -20.61 v 7 h 21.022 c 2.898,0 5.377,-0.862 7.429,-2.586 2.053,-1.713 3.079,-3.766 3.079,-6.16 z" /></g><g
       transform="matrix(0.41883322,0,0,0.41883322,96.650262,14.892321)"
       id="g2040"><path
         inkscape:connector-curvature="0"
         id="path2042"
         style="fill:#939598;fill-opacity:1;fill-rule:nonzero;stroke:none"
         d="m 0,0 h -10.51 v -21.02 h -8.416 V 0 h -10.51 V 7 H 0 Z" /></g><path
       inkscape:connector-curvature="0"
       id="path2044"
       style="fill:#939598;fill-opacity:1;fill-rule:nonzero;stroke:none;stroke-width:0.4188332"
       d="M 10.820906,21.94949 H 1.5286723 v 8.62629 h 9.2922337 z" /><path
       inkscape:connector-curvature="0"
       id="path2046"
       style="fill:#939598;fill-opacity:1;fill-rule:nonzero;stroke:none;stroke-width:0.4188332"
       d="m 20.379517,21.94949 h -9.181661 v 23.48607 h 9.181661 z" /><path
       inkscape:connector-curvature="0"
       id="path2048"
       style="fill:#939598;fill-opacity:1;fill-rule:nonzero;stroke:none;stroke-width:0.4188332"
       d="m 29.686829,21.94949 h -8.936644 v 16.04718 h 8.936644 z" /><path
       inkscape:connector-curvature="0"
       id="path2050"
       style="fill:#939598;fill-opacity:1;fill-rule:nonzero;stroke:none;stroke-width:0.4188332"
       d="M 39.577574,21.94949 H 30.06336 v 40.51416 h 9.514214 z" /><path
       inkscape:connector-curvature="0"
       id="path2052"
       style="fill:#939598;fill-opacity:1;fill-rule:nonzero;stroke:none;stroke-width:0.4188332"
       d="m 49.170112,21.95619 h -9.227315 v 36.65168 h 9.227315 z" /><path
       inkscape:connector-curvature="0"
       id="path2054"
       style="fill:#ed1b2f;fill-opacity:1;fill-rule:nonzero;stroke:none;stroke-width:0.4188332"
       d="m 58.685584,21.94949 h -9.145223 v 34.03396 h 9.145223 z" /><path
       inkscape:connector-curvature="0"
       id="path2056"
       style="fill:#ed1b2f;fill-opacity:1;fill-rule:nonzero;stroke:none;stroke-width:0.4188332"
       d="m 68.207759,21.94949 h -9.145225 v 29.58386 h 9.145225 z" /><path
       inkscape:connector-curvature="0"
       id="path2058"
       style="fill:#ed1b2f;fill-opacity:1;fill-rule:nonzero;stroke:none;stroke-width:0.4188332"
       d="M 77.363035,21.94949 H 68.58429 v 19.47952 h 8.778745 z" /><path
       inkscape:connector-curvature="0"
       id="path2060"
       style="fill:#ed1b2f;fill-opacity:1;fill-rule:nonzero;stroke:none;stroke-width:0.4188332"
       d="m 87.244985,21.94949 h -9.511703 v 34.87164 h 9.511703 z" /><path
       inkscape:connector-curvature="0"
       id="path2062"
       style="fill:#ed1b2f;fill-opacity:1;fill-rule:nonzero;stroke:none;stroke-width:0.4188332"
       d="m 96.655752,21.94949 h -9.040518 v 29.00797 h 9.040518 z" /><g
       transform="matrix(0.41883322,0,0,0.41883322,96.655159,21.52413)"
       id="g2064"><path
         inkscape:connector-curvature="0"
         id="path2066"
         style="fill:#808285;fill-opacity:1;fill-rule:nonzero;stroke:none"
         d="M 0,0 -227.118,-0.021 V 3.141 L 0,3.163 Z" /></g><g
       transform="matrix(0.41883322,0,0,0.41883322,62.820054,3.9144949)"
       id="g2068"><path
         inkscape:connector-curvature="0"
         id="path2070"
         style="fill:#ed1b2f;fill-opacity:1;fill-rule:nonzero;stroke:none"
         d="m 0,0 0.789,-2.987 c 0.156,-0.657 0.314,-1.269 0.424,-1.875 h 0.036 c 0.137,0.597 0.328,1.227 0.521,1.86 L 2.73,0 h 0.9 l 0.91,-2.942 c 0.223,-0.702 0.395,-1.323 0.525,-1.92 h 0.037 c 0.095,0.597 0.256,1.218 0.449,1.91 L 6.391,0 H 7.447 L 5.551,-5.879 H 4.58 L 3.681,-3.073 C 3.474,-2.417 3.307,-1.835 3.155,-1.142 H 3.135 C 2.988,-1.845 2.801,-2.451 2.599,-3.089 L 1.648,-5.879 H 0.679 L -1.092,0 Z" /></g><g
       transform="matrix(0.41883322,0,0,0.41883322,66.616945,3.9144949)"
       id="g2072"><path
         inkscape:connector-curvature="0"
         id="path2074"
         style="fill:#ed1b2f;fill-opacity:1;fill-rule:nonzero;stroke:none"
         d="m 0,0 0.793,-2.987 c 0.151,-0.657 0.313,-1.269 0.425,-1.875 h 0.03 c 0.137,0.597 0.334,1.227 0.525,1.86 L 2.733,0 h 0.901 l 0.91,-2.942 c 0.218,-0.702 0.389,-1.323 0.525,-1.92 H 5.1 c 0.101,0.597 0.258,1.218 0.455,1.91 L 6.395,0 H 7.446 L 5.555,-5.879 H 4.579 l -0.894,2.806 c -0.213,0.656 -0.38,1.238 -0.526,1.931 H 3.133 C 2.987,-1.845 2.806,-2.451 2.603,-3.089 L 1.651,-5.879 H 0.682 L -1.093,0 Z" /></g><g
       transform="matrix(0.41883322,0,0,0.41883322,70.413041,3.9144949)"
       id="g2076"><path
         inkscape:connector-curvature="0"
         id="path2078"
         style="fill:#ed1b2f;fill-opacity:1;fill-rule:nonzero;stroke:none"
         d="M 0,0 0.789,-2.987 C 0.95,-3.644 1.107,-4.256 1.213,-4.862 h 0.041 c 0.131,0.597 0.323,1.227 0.52,1.86 L 2.734,0 h 0.901 l 0.91,-2.942 c 0.218,-0.702 0.39,-1.323 0.519,-1.92 h 0.042 c 0.091,0.597 0.252,1.218 0.445,1.91 L 6.391,0 h 1.06 l -1.9,-5.879 H 4.581 L 3.68,-3.073 C 3.479,-2.417 3.307,-1.835 3.16,-1.142 H 3.134 C 2.992,-1.845 2.806,-2.451 2.599,-3.089 L 1.653,-5.879 H 0.678 L -1.092,0 Z" /></g><g
       transform="matrix(0.41883322,0,0,0.41883322,73.665532,1.7168789)"
       id="g2080"><path
         inkscape:connector-curvature="0"
         id="path2082"
         style="fill:#ed1b2f;fill-opacity:1;fill-rule:nonzero;stroke:none"
         d="M 0,0 C 0,0.435 0.309,0.764 0.732,0.764 1.152,0.764 1.445,0.445 1.445,0 1.445,-0.439 1.152,-0.763 0.708,-0.763 0.293,-0.763 0,-0.439 0,0" /></g><g
       transform="matrix(0.41883322,0,0,0.41883322,76.483652,2.9430909)"
       id="g2084"><path
         inkscape:connector-curvature="0"
         id="path2086"
         style="fill:#ed1b2f;fill-opacity:1;fill-rule:nonzero;stroke:none"
         d="m 0,0 c 0,0.182 -0.016,0.338 -0.061,0.475 -0.197,0.631 -0.702,1.136 -1.492,1.136 -1.02,0 -1.754,-0.858 -1.754,-2.218 0,-1.158 0.597,-2.118 1.74,-2.118 0.667,0 1.263,0.414 1.481,1.097 C -0.025,-1.446 0,-1.239 0,-1.057 Z m 1.066,-2.696 c 0,-1.365 -0.272,-2.179 -0.834,-2.698 -0.581,-0.526 -1.41,-0.708 -2.148,-0.708 -0.708,0 -1.487,0.172 -1.962,0.485 l 0.269,0.829 c 0.388,-0.258 0.995,-0.476 1.723,-0.476 1.092,0 1.901,0.573 1.901,2.063 v 0.648 h -0.031 c -0.313,-0.547 -0.961,-0.981 -1.87,-0.981 -1.456,0 -2.497,1.233 -2.497,2.867 0,1.986 1.294,3.108 2.658,3.108 1.022,0 1.568,-0.525 1.831,-1.011 h 0.03 L 0.172,2.319 H 1.116 C 1.082,1.906 1.066,1.421 1.066,0.717 Z" /></g><g
       transform="matrix(0.41883322,0,0,0.41883322,79.225292,2.9216109)"
       id="g2088"><path
         inkscape:connector-curvature="0"
         id="path2090"
         style="fill:#ed1b2f;fill-opacity:1;fill-rule:nonzero;stroke:none"
         d="M 0,0 C 0.011,0.673 -0.283,1.725 -1.485,1.725 -2.577,1.725 -3.043,0.743 -3.124,0 Z m -3.139,-0.764 c 0.026,-1.45 0.935,-2.042 2.018,-2.042 0.767,0 1.242,0.132 1.628,0.304 L 0.703,-3.266 C 0.324,-3.438 -0.333,-3.64 -1.269,-3.64 c -1.809,0 -2.885,1.199 -2.885,2.973 0,1.774 1.041,3.16 2.755,3.16 1.93,0 2.431,-1.674 2.431,-2.76 0,-0.218 -0.014,-0.375 -0.041,-0.497 z" /></g><g
       transform="matrix(0.41883322,0,0,0.41883322,80.485478,2.6780599)"
       id="g2092"><path
         inkscape:connector-curvature="0"
         id="path2094"
         style="fill:#ed1b2f;fill-opacity:1;fill-rule:nonzero;stroke:none"
         d="m 0,0 c 0,-1.289 0.728,-2.265 1.773,-2.265 1.022,0 1.786,0.961 1.786,2.29 0,0.997 -0.5,2.25 -1.765,2.25 C 0.545,2.275 0,1.107 0,0 m 4.65,0.062 c 0,-2.175 -1.516,-3.12 -2.926,-3.12 -1.578,0 -2.821,1.163 -2.821,3.023 0,1.956 1.304,3.109 2.921,3.109 1.689,0 2.826,-1.223 2.826,-3.012" /></g><g
       transform="matrix(0.41883322,0,0,0.41883322,82.931003,1.9033829)"
       id="g2096"><path
         inkscape:connector-curvature="0"
         id="path2098"
         style="fill:#ed1b2f;fill-opacity:1;fill-rule:nonzero;stroke:none"
         d="m 0,0 c 0.329,-0.192 0.89,-0.415 1.42,-0.415 0.764,0 1.128,0.379 1.128,0.88 0,0.511 -0.304,0.779 -1.082,1.066 -1.067,0.389 -1.568,0.961 -1.568,1.669 0,0.945 0.779,1.724 2.033,1.724 0.596,0 1.123,-0.163 1.436,-0.369 L 3.114,3.781 C 2.882,3.923 2.457,4.135 1.906,4.135 1.273,4.135 0.935,3.771 0.935,3.331 0.935,2.846 1.273,2.628 2.042,2.325 3.054,1.946 3.579,1.435 3.579,0.561 c 0,-1.047 -0.808,-1.769 -2.183,-1.769 -0.642,0 -1.239,0.166 -1.654,0.409 z" /></g><g
       transform="matrix(0.41883322,0,0,0.41883322,85.539706,4.5057189)"
       id="g2100"><path
         inkscape:connector-curvature="0"
         id="path2102"
         style="fill:#ed1b2f;fill-opacity:1;fill-rule:nonzero;stroke:none"
         d="M 0,0 V -1.412 H 1.536 V -2.231 H 0 v -3.168 c 0,-0.729 0.211,-1.139 0.809,-1.139 0.293,0 0.46,0.021 0.616,0.072 L 1.476,-7.28 C 1.269,-7.351 0.94,-7.422 0.525,-7.422 c -0.495,0 -0.9,0.167 -1.153,0.45 -0.293,0.324 -0.413,0.844 -0.413,1.537 v 3.204 h -0.91 v 0.819 h 0.91 v 1.094 z" /></g><g
       transform="matrix(0.41883322,0,0,0.41883322,87.978697,2.7077069)"
       id="g2104"><path
         inkscape:connector-curvature="0"
         id="path2106"
         style="fill:#ed1b2f;fill-opacity:1;fill-rule:nonzero;stroke:none"
         d="m 0,0 c -1.162,0.025 -2.486,-0.181 -2.486,-1.324 0,-0.708 0.459,-1.021 0.994,-1.021 0.779,0 1.279,0.485 1.447,0.986 C -0.011,-1.239 0,-1.117 0,-1.021 Z m 1.037,-1.592 c 0,-0.511 0.026,-1.006 0.086,-1.406 H 0.161 L 0.076,-2.254 H 0.041 c -0.329,-0.465 -0.961,-0.875 -1.8,-0.875 -1.193,0 -1.8,0.834 -1.8,1.683 0,1.426 1.264,2.205 3.539,2.19 v 0.121 c 0,0.476 -0.132,1.36 -1.334,1.35 -0.566,0 -1.132,-0.162 -1.547,-0.435 l -0.243,0.713 c 0.485,0.302 1.203,0.51 1.94,0.51 1.801,0 2.241,-1.223 2.241,-2.391 z" /></g><g
       transform="matrix(0.41883322,0,0,0.41883322,89.647035,4.5057189)"
       id="g2108"><path
         inkscape:connector-curvature="0"
         id="path2110"
         style="fill:#ed1b2f;fill-opacity:1;fill-rule:nonzero;stroke:none"
         d="M 0,0 V -1.412 H 1.537 V -2.231 H 0 v -3.168 c 0,-0.729 0.213,-1.139 0.804,-1.139 0.294,0 0.46,0.021 0.623,0.072 L 1.477,-7.28 C 1.264,-7.351 0.94,-7.422 0.526,-7.422 c -0.495,0 -0.9,0.167 -1.153,0.45 -0.293,0.324 -0.415,0.844 -0.415,1.537 v 3.204 h -0.909 v 0.819 h 0.909 v 1.094 z" /></g><g
       transform="matrix(0.41883322,0,0,0.41883322,90.667941,1.7168789)"
       id="g2112"><path
         inkscape:connector-curvature="0"
         id="path2114"
         style="fill:#ed1b2f;fill-opacity:1;fill-rule:nonzero;stroke:none"
         d="M 0,0 C 0,0.435 0.303,0.764 0.728,0.764 1.151,0.764 1.445,0.445 1.445,0 1.445,-0.439 1.151,-0.763 0.698,-0.763 0.293,-0.763 0,-0.439 0,0" /></g><g
       transform="matrix(0.41883322,0,0,0.41883322,93.48405,2.9430909)"
       id="g2116"><path
         inkscape:connector-curvature="0"
         id="path2118"
         style="fill:#ed1b2f;fill-opacity:1;fill-rule:nonzero;stroke:none"
         d="m 0,0 c 0,0.182 -0.011,0.338 -0.062,0.475 -0.191,0.631 -0.706,1.136 -1.496,1.136 -1.02,0 -1.749,-0.858 -1.749,-2.218 0,-1.158 0.597,-2.118 1.74,-2.118 0.667,0 1.263,0.414 1.486,1.097 C -0.021,-1.446 0,-1.239 0,-1.057 Z m 1.071,-2.696 c 0,-1.365 -0.282,-2.179 -0.84,-2.698 -0.585,-0.526 -1.414,-0.708 -2.153,-0.708 -0.702,0 -1.48,0.172 -1.956,0.485 l 0.269,0.829 c 0.389,-0.258 0.995,-0.476 1.723,-0.476 1.097,0 1.896,0.573 1.896,2.063 v 0.648 h -0.021 c -0.318,-0.547 -0.96,-0.981 -1.875,-0.981 -1.456,0 -2.502,1.233 -2.502,2.867 0,1.986 1.304,3.108 2.659,3.108 1.021,0 1.572,-0.525 1.84,-1.011 h 0.02 l 0.04,0.889 H 1.116 C 1.081,1.906 1.071,1.421 1.071,0.717 Z" /></g><g
       transform="matrix(0.41883322,0,0,0.41883322,96.22364,2.9216109)"
       id="g2120"><path
         inkscape:connector-curvature="0"
         id="path2122"
         style="fill:#ed1b2f;fill-opacity:1;fill-rule:nonzero;stroke:none"
         d="M 0,0 C 0.016,0.673 -0.277,1.725 -1.48,1.725 -2.578,1.725 -3.033,0.743 -3.124,0 Z m -3.134,-0.764 c 0.026,-1.45 0.941,-2.042 2.017,-2.042 0.763,0 1.239,0.132 1.628,0.304 l 0.197,-0.764 c -0.374,-0.172 -1.03,-0.374 -1.971,-0.374 -1.81,0 -2.892,1.199 -2.892,2.973 0,1.774 1.047,3.16 2.759,3.16 1.932,0 2.427,-1.674 2.427,-2.76 0,-0.218 -0.01,-0.375 -0.035,-0.497 z" /></g></g></svg>