<?xml version="1.0" encoding="UTF-8" standalone="no"?>
<!-- Creator: CorelDRAW X7 -->

<svg
   xmlns:dc="http://purl.org/dc/elements/1.1/"
   xmlns:cc="http://creativecommons.org/ns#"
   xmlns:rdf="http://www.w3.org/1999/02/22-rdf-syntax-ns#"
   xmlns:svg="http://www.w3.org/2000/svg"
   xmlns="http://www.w3.org/2000/svg"
   xmlns:sodipodi="http://sodipodi.sourceforge.net/DTD/sodipodi-0.dtd"
   xmlns:inkscape="http://www.inkscape.org/namespaces/inkscape"
   xml:space="preserve"
   width="1.20184in"
   height="1.37324in"
   version="1.1"
   style="shape-rendering:geometricPrecision; text-rendering:geometricPrecision; image-rendering:optimizeQuality; fill-rule:evenodd; clip-rule:evenodd"
   viewBox="0 0 1202 1373"
   id="svg2055"
   sodipodi:docname="metadata.svg"
   inkscape:version="0.92.4 (5da689c313, 2019-01-14)"><metadata
   id="metadata2059"><rdf:RDF><cc:Work
       rdf:about=""><dc:format>image/svg+xml</dc:format><dc:type
         rdf:resource="http://purl.org/dc/dcmitype/StillImage" /></cc:Work></rdf:RDF></metadata><sodipodi:namedview
   pagecolor="#ffffff"
   bordercolor="#666666"
   borderopacity="1"
   objecttolerance="10"
   gridtolerance="10"
   guidetolerance="10"
   inkscape:pageopacity="0"
   inkscape:pageshadow="2"
   inkscape:window-width="1920"
   inkscape:window-height="1017"
   id="namedview2057"
   showgrid="false"
   inkscape:zoom="1.7901702"
   inkscape:cx="-33.08517"
   inkscape:cy="65.91552"
   inkscape:window-x="-8"
   inkscape:window-y="-8"
   inkscape:window-maximized="1"
   inkscape:current-layer="svg2055" />
 <defs
   id="defs2040">
  <style
   type="text/css"
   id="style2038">
   <![CDATA[
    .fil0 {fill:#0C8CBE}
   ]]>
  </style>
 </defs>
 <g
   id="Layer_x0020_1">
  <metadata
   id="CorelCorpID_0Corel-Layer" />
  <g
   id="_2936510649024">
   <g
   id="g2051">
    <path
   class="fil0"
   d="M1202 454c0,-1 -1,-2 -1,-3l-109 -397c-3,-30 -33,-54 -66,-54l-850 0c-33,0 -63,24 -66,54l-109 397c0,1 -1,2 -1,3l0 110c0,28 11,54 29,73l-28 164c0,1 -1,2 -1,4l0 109c0,28 11,54 29,73l-28 164c0,2 -1,3 -1,4l0 109c0,60 49,109 109,109l984 0c60,0 109,-49 109,-109l0 -109c0,-1 -1,-2 -1,-4l-28 -164c18,-19 29,-45 29,-73l0 -109c0,-2 -1,-3 -1,-4l-28 -164c18,-19 29,-45 29,-73l0 -110 0 0zm-55 810c0,30 -24,55 -54,55l-984 0c-30,0 -54,-25 -54,-55l0 -109c0,-30 24,-55 54,-55l984 0c30,0 54,25 54,55l0 109 0 0zm0 -350c0,30 -24,54 -54,54l-984 0c-30,0 -54,-24 -54,-54l0 -109c0,-31 24,-55 54,-55l984 0c30,0 54,24 54,55l0 109 0 0zm0 -350c0,30 -24,54 -54,54l-984 0c-30,0 -54,-24 -54,-54l0 -110c0,-30 24,-54 54,-54l984 0c30,0 54,24 54,54l0 110 0 0 0 0z"
   id="path2043" />
    <path
   class="fil0"
   d="M172 1170c22,0 40,18 40,39 0,22 -18,40 -40,40 -21,0 -39,-18 -39,-40 0,-21 18,-39 39,-39z"
   id="path2045" />
    <path
   class="fil0"
   d="M172 820c22,0 40,17 40,39 0,22 -18,39 -40,39 -21,0 -39,-17 -39,-39 0,-22 18,-39 39,-39z"
   id="path2047" />
    <path
   class="fil0"
   d="M172 470c22,0 40,17 40,39 0,22 -18,39 -40,39 -21,0 -39,-17 -39,-39 0,-22 18,-39 39,-39z"
   id="path2049" />
   </g>
  </g>
 </g>
<path
   style="fill:#f5c9bc;fill-opacity:1;stroke-width:0.55860609"
   d="M 7.0789782,131.00445 C 4.91396,130.37621 1.7892006,127.23372 0.906252,124.7967 -0.27429016,121.5383 0.02325323,112.03854 1.5804835,103.2703 L 3.0090732,95.226392 1.5804835,92.359586 C 0.31840739,89.826933 0.15189384,88.803014 0.15189384,83.574958 c 0,-3.879089 0.49016848,-8.668751 1.42281456,-13.902963 L 2.997523,61.686849 1.5747084,58.831635 C 0.31594601,56.305623 0.15189384,55.285632 0.15189384,49.985296 c 0,-5.857383 0.12426321,-6.444114 5.56676396,-26.284459 C 10.823132,5.0927499 11.426924,3.2799268 12.98935,1.8713304 l 1.703928,-1.53616674 h 42.995044 42.995048 l 1.70384,1.53616674 c 1.56167,1.4079891 2.16834,3.2270886 7.27069,21.8013006 5.45189,19.846631 5.56685,20.38944 5.56685,26.284459 0,5.313443 -0.16506,6.350556 -1.40752,8.843849 l -1.40752,2.824525 1.40752,8.024209 c 0.90992,5.187395 1.40752,10.113385 1.40752,13.933658 0,5.212817 -0.16773,6.246038 -1.42281,8.76467 l -1.42282,2.855214 1.42282,7.985145 c 1.53784,8.63075 1.88422,17.92991 0.79017,21.21365 -0.86955,2.60994 -4.22781,5.98905 -6.6097,6.65077 -2.51928,0.69989 -98.4833687,0.65392 -100.9034318,-0.0483 z M 108.01128,125.86412 c 1.81386,-1.39264 2.18602,-3.11364 2.18602,-10.10892 0,-6.58183 -0.0784,-7.07928 -1.34816,-8.55547 L 107.501,105.63241 H 57.688322 7.8756471 l -1.3481495,1.56732 c -1.2697602,1.47619 -1.3481489,1.97364 -1.3481489,8.55547 0,6.99528 0.3721607,8.71628 2.1860173,10.10892 1.2875362,0.98854 99.358374,0.98854 100.645914,0 z m 0.55317,-34.433194 1.63285,-1.632845 V 82.45026 75.102439 l -1.63285,-1.632844 -1.63285,-1.632851 H 57.688322 8.445046 l -1.6328486,1.632851 -1.6328487,1.632844 v 7.347821 7.347821 l 1.6328487,1.632845 1.6328486,1.63285 H 57.688322 106.9316 Z m 0,-33.516366 1.63285,-1.632845 v -7.347821 -7.347818 l -1.63285,-1.632849 -1.63285,-1.632849 H 57.688322 8.445046 l -1.6328486,1.632849 -1.6328487,1.632849 v 7.347818 7.347821 L 6.8121974,57.91456 8.445046,59.54741 H 57.688322 106.9316 Z"
   id="path2604"
   inkscape:connector-curvature="0"
   transform="matrix(10.418053,0,0,10.418053,0,-0.21135888)" /><path
   style="fill:#0c8cbe;fill-opacity:1;stroke-width:0.55860609"
   d="m 14.117046,51.168319 c -1.342114,-1.342115 -1.418005,-2.673607 -0.247628,-4.344556 1.239329,-1.76939 4.380277,-1.715305 5.566997,0.09586 2.329848,3.555798 -2.307954,7.260111 -5.319369,4.248697 z"
   id="path2606"
   inkscape:connector-curvature="0"
   transform="matrix(10.418053,0,0,10.418053,0,-0.21135888)" /><path
   style="fill:#0c8cbe;fill-opacity:1;stroke-width:0.55860609"
   d="m 13.869418,84.560391 c -0.478271,-0.682828 -0.869584,-1.632387 -0.869584,-2.110131 0,-1.686288 1.681087,-3.351636 3.383312,-3.351636 1.89084,0 3.878567,1.717681 3.878567,3.351636 0,2.965819 -4.705066,4.518987 -6.392295,2.110131 z"
   id="path2608"
   inkscape:connector-curvature="0"
   transform="matrix(10.418053,0,0,10.418053,0,-0.21135888)" /><path
   style="fill:#0c8cbe;fill-opacity:1;stroke-width:0.55860609"
   d="m 14.484122,118.7289 c -1.78119,-1.40109 -1.930483,-3.43329 -0.367076,-4.9967 1.55898,-1.55898 3.595584,-1.41415 4.986912,0.35464 1.412402,1.79558 1.445905,2.53998 0.180195,4.00379 -1.515051,1.75216 -3.113697,1.96474 -4.800031,0.63827 z"
   id="path2610"
   inkscape:connector-curvature="0"
   transform="matrix(10.418053,0,0,10.418053,0,-0.21135888)" /><path
   style="fill:#0c8cbe;fill-opacity:1;stroke-width:0.55860609"
   d="M 5.6884076,129.99269 C 3.3339749,128.55698 1.6742322,126.32176 0.92265675,123.57453 0.06474643,120.43863 0.64673008,109.47641 2.0905595,101.57596 L 3.2402363,95.285074 1.9753679,92.917561 C 0.82848118,90.770883 0.71354418,89.820588 0.74314142,82.729564 0.7664373,77.148245 1.1281432,73.027011 2.0064294,68.335793 L 3.2370753,61.762513 2.0100366,59.398095 C 0.4931143,56.475099 -0.03237623,48.361772 0.95980618,43.183034 1.7783097,38.910821 8.3192189,14.767949 10.555896,7.7633156 13.19708,-0.50812045 7.8463505,0.33516387 57.688322,0.33516387 c 49.870148,0 44.483308,-0.85811237 47.164908,7.51327993 2.24924,7.0216642 8.74458,31.0091562 9.56791,35.3345902 0.97803,5.138171 0.4597,13.297461 -1.0266,16.160312 l -1.19911,2.309663 1.19519,6.628035 c 0.82483,4.57419 1.20763,9.051385 1.23535,14.44852 0.0365,7.099174 -0.0765,8.03885 -1.22469,10.187997 l -1.26487,2.367513 1.15565,6.290886 c 0.63561,3.45998 1.30408,9.59262 1.48549,13.62809 0.30845,6.86149 0.24735,7.5076 -0.94248,9.96545 -0.73508,1.51848 -2.21987,3.31466 -3.51642,4.25387 l -2.2441,1.62562 -50.33039,-0.002 C 9.4368825,131.04452 7.3444189,131.00235 5.6884076,129.99255 Z M 108.90445,125.04918 c 1.13843,-1.13867 1.2706,-1.89511 1.464,-8.3791 0.2019,-6.76944 0.14571,-7.22562 -1.11875,-9.08255 l -1.33133,-1.95512 H 57.688322 7.4582745 l -1.331332,1.95512 c -1.2634713,1.85547 -1.3205633,2.31627 -1.1200661,9.04014 0.2399425,8.0467 0.7415507,9.16661 4.2816235,9.55927 1.1195331,0.12417 23.7095461,0.2006 50.2000301,0.16984 l 48.16451,-0.0559 z m 0.0711,-33.552137 c 1.47623,-1.540854 1.50103,-1.690292 1.50103,-9.046783 0,-7.35649 -0.0248,-7.505928 -1.50103,-9.046782 l -1.50102,-1.566733 H 57.688322 7.902096 L 6.4010706,73.403478 C 4.92484,74.944332 4.9000452,75.09377 4.9000452,82.45026 c 0,7.356491 0.024796,7.505929 1.5010254,9.046783 l 1.5010254,1.566733 h 49.786226 49.786228 z m 0,-33.516366 c 1.47623,-1.540854 1.50103,-1.690292 1.50103,-9.046782 0,-7.356491 -0.0248,-7.50593 -1.50103,-9.046783 l -1.50102,-1.566733 H 57.688322 7.902096 l -1.5010254,1.566733 c -1.4762306,1.540853 -1.5010254,1.690292 -1.5010254,9.046783 0,7.35649 0.024796,7.505928 1.5010254,9.046782 L 7.902096,59.54741 h 49.786226 49.786228 z"
   id="path3243"
   inkscape:connector-curvature="0"
   transform="matrix(10.418053,0,0,10.418053,0,-0.21135888)" /><path
   style="fill:#0c8cbe;fill-opacity:0;stroke-width:0.55860609"
   d="M 22.94514,130.51014 6.077355,130.21108 4.102707,128.29623 C 3.0166507,127.24306 1.8413072,125.51251 1.4908325,124.45056 0.6184092,121.80709 1.1423776,108.29125 2.3979188,101.05213 L 3.3860832,95.354637 2.1131081,92.395527 C 0.91574735,89.612188 0.85838661,88.922003 1.1474336,80.77623 1.316449,76.01313 1.8723272,69.990708 2.3827185,67.393072 3.3544787,62.447302 3.3243422,61.918056 1.8430027,57.914767 1.2197874,56.230536 0.92599314,53.62236 0.91993265,49.720152 0.91230081,44.806143 1.2358747,42.744675 3.2064,35.153219 6.9859474,20.5925 11.640794,4.6072333 12.484909,3.2897791 14.140764,0.70539833 15.474497,0.62682759 57.688322,0.62682759 c 42.215158,0 43.557478,0.0790918 45.194638,2.66295151 0.89468,1.4120428 5.20621,16.1409189 8.98132,30.6816799 2.25407,8.68207 2.56911,10.607948 2.56911,15.705086 0,3.982411 -0.28525,6.579966 -0.90696,8.259164 -1.47321,3.978946 -1.50343,4.515827 -0.53251,9.457363 0.5104,2.597636 1.06628,8.620058 1.23529,13.383158 0.28888,8.140963 0.23114,8.837226 -0.96297,11.613002 -1.2596,2.928034 -1.26285,3.000681 -0.38649,8.656598 1.3828,8.92442 1.5217,10.36221 1.57999,16.35416 0.064,6.5839 -0.86349,9.05995 -4.46135,11.90951 l -2.19629,1.73949 -33.994585,-0.11989 C 55.11049,130.86316 32.222423,130.67463 22.94514,130.51014 Z m 86.42037,-5.74547 c 0.94576,-1.55116 1.10722,-2.82245 1.109,-8.73211 0.002,-6.03424 -0.14626,-7.15667 -1.16068,-8.79805 l -1.16278,-1.8814 H 57.688322 7.2255888 l -1.1627721,1.8814 c -0.9921151,1.60528 -1.162314,2.77357 -1.1596562,7.96014 0.00363,7.09036 0.6173374,9.85771 2.3740251,10.70508 0.8690794,0.41922 16.5541774,0.6164 51.1176054,0.64261 l 49.863809,0.0378 z m -0.0466,-33.172743 c 1.04358,-1.326711 1.15774,-2.228156 1.15774,-9.141667 0,-6.91351 -0.11416,-7.814955 -1.15776,-9.141667 l -1.15775,-1.471848 H 57.688322 7.2155568 L 6.057801,73.308593 c -1.0435913,1.326712 -1.1577558,2.228157 -1.1577558,9.141667 0,6.913511 0.1141645,7.814956 1.1577558,9.141667 l 1.1577558,1.471849 H 57.688322 108.16109 l 1.15775,-1.471849 z m 0,-33.516365 c 1.04358,-1.326712 1.15774,-2.228157 1.15774,-9.141667 0,-6.913511 -0.11416,-7.814957 -1.15776,-9.141668 l -1.15775,-1.471848 H 57.688322 7.2155568 L 6.057801,39.792227 c -1.0435913,1.326711 -1.1577558,2.228157 -1.1577558,9.141668 0,6.91351 0.1141645,7.814955 1.1577558,9.141667 L 7.2155568,59.54741 H 57.688322 108.16109 l 1.15775,-1.471848 z"
   id="path3247"
   inkscape:connector-curvature="0"
   transform="matrix(10.418053,0,0,10.418053,0,-0.21135888)" /><path
   style="fill:#c8cbe0;fill-opacity:0;stroke-width:0.55860609"
   d="M 22.94514,130.51014 6.077355,130.21108 4.102707,128.29623 C 3.0166507,127.24306 1.8413072,125.51251 1.4908325,124.45056 0.6184092,121.80709 1.1423776,108.29125 2.3979188,101.05213 L 3.3860832,95.354637 2.1131081,92.395527 C 0.91574735,89.612188 0.85838661,88.922003 1.1474336,80.77623 1.316449,76.01313 1.8723272,69.990708 2.3827185,67.393072 3.3544787,62.447302 3.3243422,61.918056 1.8430027,57.914767 1.2197874,56.230536 0.92599314,53.62236 0.91993265,49.720152 0.91230081,44.806143 1.2358747,42.744675 3.2064,35.153219 6.9859474,20.5925 11.640794,4.6072333 12.484909,3.2897791 14.140764,0.70539833 15.474497,0.62682759 57.688322,0.62682759 c 42.215158,0 43.557478,0.0790918 45.194638,2.66295151 0.89468,1.4120428 5.20621,16.1409189 8.98132,30.6816799 2.25407,8.68207 2.56911,10.607948 2.56911,15.705086 0,3.982411 -0.28525,6.579966 -0.90696,8.259164 -1.47321,3.978946 -1.50343,4.515827 -0.53251,9.457363 0.5104,2.597636 1.06628,8.620058 1.23529,13.383158 0.28888,8.140963 0.23114,8.837226 -0.96297,11.613002 -1.2596,2.928034 -1.26285,3.000681 -0.38649,8.656598 1.3828,8.92442 1.5217,10.36221 1.57999,16.35416 0.064,6.5839 -0.86349,9.05995 -4.46135,11.90951 l -2.19629,1.73949 -33.994585,-0.11989 C 55.11049,130.86316 32.222423,130.67463 22.94514,130.51014 Z m 86.42037,-5.74547 c 0.94576,-1.55116 1.10722,-2.82245 1.109,-8.73211 0.002,-6.03424 -0.14626,-7.15667 -1.16068,-8.79805 l -1.16278,-1.8814 H 57.688322 7.2255888 l -1.1627721,1.8814 c -0.9921151,1.60528 -1.162314,2.77357 -1.1596562,7.96014 0.00363,7.09036 0.6173374,9.85771 2.3740251,10.70508 0.8690794,0.41922 16.5541774,0.6164 51.1176054,0.64261 l 49.863809,0.0378 z m -0.0466,-33.172743 c 1.04358,-1.326711 1.15774,-2.228156 1.15774,-9.141667 0,-6.91351 -0.11416,-7.814955 -1.15776,-9.141667 l -1.15775,-1.471848 H 57.688322 7.2155568 L 6.057801,73.308593 c -1.0435913,1.326712 -1.1577558,2.228157 -1.1577558,9.141667 0,6.913511 0.1141645,7.814956 1.1577558,9.141667 l 1.1577558,1.471849 H 57.688322 108.16109 l 1.15775,-1.471849 z m 0,-33.516365 c 1.04358,-1.326712 1.15774,-2.228157 1.15774,-9.141667 0,-6.913511 -0.11416,-7.814957 -1.15776,-9.141668 l -1.15775,-1.471848 H 57.688322 7.2155568 L 6.057801,39.792227 c -1.0435913,1.326711 -1.1577558,2.228157 -1.1577558,9.141668 0,6.91351 0.1141645,7.814955 1.1577558,9.141667 L 7.2155568,59.54741 H 57.688322 108.16109 l 1.15775,-1.471848 z"
   id="path3251"
   inkscape:connector-curvature="0"
   transform="matrix(10.418053,0,0,10.418053,0,-0.21135888)" /><path
   style="fill:#c8cbe0;fill-opacity:0;stroke-width:0.55860609"
   d="M 22.94514,130.51014 6.077355,130.21108 4.102707,128.29623 C 3.0166507,127.24306 1.8413072,125.51251 1.4908325,124.45056 0.6184092,121.80709 1.1423776,108.29125 2.3979188,101.05213 L 3.3860832,95.354637 2.1131081,92.395527 C 0.91574735,89.612188 0.85838661,88.922003 1.1474336,80.77623 1.316449,76.01313 1.8723272,69.990708 2.3827185,67.393072 3.3544787,62.447302 3.3243422,61.918056 1.8430027,57.914767 1.2197874,56.230536 0.92599314,53.62236 0.91993265,49.720152 0.91230081,44.806143 1.2358747,42.744675 3.2064,35.153219 6.9859474,20.5925 11.640794,4.6072333 12.484909,3.2897791 14.140764,0.70539833 15.474497,0.62682759 57.688322,0.62682759 c 42.215158,0 43.557478,0.0790918 45.194638,2.66295151 0.89468,1.4120428 5.20621,16.1409189 8.98132,30.6816799 2.25407,8.68207 2.56911,10.607948 2.56911,15.705086 0,3.982411 -0.28525,6.579966 -0.90696,8.259164 -1.47321,3.978946 -1.50343,4.515827 -0.53251,9.457363 0.5104,2.597636 1.06628,8.620058 1.23529,13.383158 0.28888,8.140963 0.23114,8.837226 -0.96297,11.613002 -1.2596,2.928034 -1.26285,3.000681 -0.38649,8.656598 1.3828,8.92442 1.5217,10.36221 1.57999,16.35416 0.064,6.5839 -0.86349,9.05995 -4.46135,11.90951 l -2.19629,1.73949 -33.994585,-0.11989 C 55.11049,130.86316 32.222423,130.67463 22.94514,130.51014 Z m 86.42037,-5.74547 c 0.94576,-1.55116 1.10722,-2.82245 1.109,-8.73211 0.002,-6.03424 -0.14626,-7.15667 -1.16068,-8.79805 l -1.16278,-1.8814 H 57.688322 7.2255888 l -1.1627721,1.8814 c -0.9921151,1.60528 -1.162314,2.77357 -1.1596562,7.96014 0.00363,7.09036 0.6173374,9.85771 2.3740251,10.70508 0.8690794,0.41922 16.5541774,0.6164 51.1176054,0.64261 l 49.863809,0.0378 z m -0.0466,-33.172743 c 1.04358,-1.326711 1.15774,-2.228156 1.15774,-9.141667 0,-6.91351 -0.11416,-7.814955 -1.15776,-9.141667 l -1.15775,-1.471848 H 57.688322 7.2155568 L 6.057801,73.308593 c -1.0435913,1.326712 -1.1577558,2.228157 -1.1577558,9.141667 0,6.913511 0.1141645,7.814956 1.1577558,9.141667 l 1.1577558,1.471849 H 57.688322 108.16109 l 1.15775,-1.471849 z m 0,-33.516365 c 1.04358,-1.326712 1.15774,-2.228157 1.15774,-9.141667 0,-6.913511 -0.11416,-7.814957 -1.15776,-9.141668 l -1.15775,-1.471848 H 57.688322 7.2155568 L 6.057801,39.792227 c -1.0435913,1.326711 -1.1577558,2.228157 -1.1577558,9.141668 0,6.91351 0.1141645,7.814955 1.1577558,9.141667 L 7.2155568,59.54741 H 57.688322 108.16109 l 1.15775,-1.471848 z"
   id="path3253"
   inkscape:connector-curvature="0"
   transform="matrix(10.418053,0,0,10.418053,0,-0.21135888)" /></svg>