<?xml version="1.0" encoding="UTF-8" standalone="no"?>
<!-- Creator: CorelDRAW X7 -->

<svg
   xmlns:dc="http://purl.org/dc/elements/1.1/"
   xmlns:cc="http://creativecommons.org/ns#"
   xmlns:rdf="http://www.w3.org/1999/02/22-rdf-syntax-ns#"
   xmlns:svg="http://www.w3.org/2000/svg"
   xmlns="http://www.w3.org/2000/svg"
   xmlns:sodipodi="http://sodipodi.sourceforge.net/DTD/sodipodi-0.dtd"
   xmlns:inkscape="http://www.inkscape.org/namespaces/inkscape"
   xml:space="preserve"
   width="6.378in"
   height="8.503in"
   version="1.1"
   style="shape-rendering:geometricPrecision; text-rendering:geometricPrecision; image-rendering:optimizeQuality; fill-rule:evenodd; clip-rule:evenodd"
   viewBox="0 0 6378 8503"
   id="svg2692"
   sodipodi:docname="methodology.svg"
   inkscape:version="0.92.4 (5da689c313, 2019-01-14)"><metadata
   id="metadata2696"><rdf:RDF><cc:Work
       rdf:about=""><dc:format>image/svg+xml</dc:format><dc:type
         rdf:resource="http://purl.org/dc/dcmitype/StillImage" /></cc:Work></rdf:RDF></metadata><sodipodi:namedview
   pagecolor="#ffffff"
   bordercolor="#666666"
   borderopacity="1"
   objecttolerance="10"
   gridtolerance="10"
   guidetolerance="10"
   inkscape:pageopacity="0"
   inkscape:pageshadow="2"
   inkscape:window-width="1920"
   inkscape:window-height="1017"
   id="namedview2694"
   showgrid="false"
   inkscape:zoom="0.28911364"
   inkscape:cx="306.14399"
   inkscape:cy="408.14401"
   inkscape:window-x="-8"
   inkscape:window-y="-8"
   inkscape:window-maximized="1"
   inkscape:current-layer="svg2692" />
 <defs
   id="defs2666">
  <style
   type="text/css"
   id="style2664">
   <![CDATA[
    .str0 {stroke:#00AFEF;stroke-width:3}
    .fil0 {fill:#0C8CBE}
   ]]>
  </style>
 </defs>
 <g
   id="Layer_x0020_1"
   style="fill:#0c8cbe;fill-opacity:1">
  <metadata
   id="CorelCorpID_0Corel-Layer" />
  <g
   id="_2936510664736"
   style="fill:#0c8cbe;fill-opacity:1">
   <g
   id="g2673"
   style="fill:#0c8cbe;fill-opacity:1">
    <path
   class="fil0 str0"
   d="M4893 2l-4891 0 0 8500 6375 0 0 -7017 -1484 -1483zm-111 640l953 953 -953 0c0,0 0,-953 0,-953zm1063 7328l-5312 0 0 -7438 3719 0 0 1594 1593 0 0 5844z"
   id="path2669"
   style="fill:#0c8cbe;fill-opacity:1" />
    <path
   class="fil0 str0"
   d="M3720 3455c0,33 6,64 10,96l-1317 659c-144,-138 -337,-224 -552,-224 -440,0 -797,357 -797,797 0,440 357,797 797,797 215,0 409,-86 552,-224l1317 658c-4,32 -10,64 -10,97 0,440 357,797 797,797 440,0 797,-357 797,-797 0,-347 -223,-638 -531,-748l0 -1160c308,-110 531,-402 531,-748 0,-440 -357,-797 -797,-797 -440,0 -797,357 -797,797zm532 748l0 1160c-108,39 -206,97 -287,175l-1317 -658c4,-32 10,-64 10,-97 0,-33 -6,-65 -10,-97l1317 -658c81,77 179,136 287,175z"
   id="path2671"
   style="fill:#0c8cbe;fill-opacity:1" />
   </g>
  </g>
  <g
   id="_2936510665664"
   style="fill:#0c8cbe;fill-opacity:1">
  </g>
  <g
   id="_2936510666080"
   style="fill:#0c8cbe;fill-opacity:1">
  </g>
  <g
   id="_2936510665632"
   style="fill:#0c8cbe;fill-opacity:1">
  </g>
  <g
   id="_2936510665888"
   style="fill:#0c8cbe;fill-opacity:1">
  </g>
  <g
   id="_2936510665152"
   style="fill:#0c8cbe;fill-opacity:1">
  </g>
  <g
   id="_2936510665472"
   style="fill:#0c8cbe;fill-opacity:1">
  </g>
  <g
   id="_2936510668800"
   style="fill:#0c8cbe;fill-opacity:1">
  </g>
  <g
   id="_2936510668768"
   style="fill:#0c8cbe;fill-opacity:1">
  </g>
  <g
   id="_2936510667744"
   style="fill:#0c8cbe;fill-opacity:1">
  </g>
  <g
   id="_2936510667200"
   style="fill:#0c8cbe;fill-opacity:1">
  </g>
  <g
   id="_2936510668160"
   style="fill:#0c8cbe;fill-opacity:1">
  </g>
  <g
   id="_2936510668928"
   style="fill:#0c8cbe;fill-opacity:1">
  </g>
  <g
   id="_2936510668544"
   style="fill:#0c8cbe;fill-opacity:1">
  </g>
  <g
   id="_2936510670208"
   style="fill:#0c8cbe;fill-opacity:1">
  </g>
  <g
   id="_2936510669248"
   style="fill:#0c8cbe;fill-opacity:1">
  </g>
 </g>
<path
   style="fill:#0c8cbe;fill-opacity:1;stroke-width:3.45884752"
   d="M 1.765404,408.4899 V 2.0753085 H 236.13397 470.50255 l 70.01001,70.0725615 70.01002,70.07256 V 478.56245 814.90449 H 306.14399 1.765404 Z M 562.09871,484.58454 V 202.68847 H 486.00406 409.90942 V 126.59382 50.499174 H 230.04934 50.18927 V 408.4899 766.48062 H 306.14399 562.09871 Z M 551.72217,153.35183 c 0,-0.50202 -21.0125,-21.88201 -46.69445,-47.51109 L 458.33328,59.242404 v 47.511096 47.5111 h 46.69444 c 25.68195,0 46.69445,-0.41074 46.69445,-0.91277 z"
   id="path3245"
   inkscape:connector-curvature="0"
   transform="scale(10.416667)" /><path
   style="fill:#0c8cbe;fill-opacity:1;stroke-width:3.45884752"
   d="m 411.8378,658.57336 c -27.1087,-7.51044 -53.8111,-43.8494 -53.8111,-73.23086 0,-8.37375 -5.18796,-11.71206 -63.20282,-40.66922 l -63.20282,-31.54665 -13.11052,8.89704 c -25.82579,17.52585 -61.77051,15.3464 -86.77114,-5.26123 -38.453255,-31.69642 -35.619285,-92.23131 5.59471,-119.50544 19.60816,-12.97607 54.17353,-15.17156 74.62157,-4.73975 7.791,3.97467 15.11695,8.76622 16.27988,10.64788 1.2089,1.95604 29.27889,-10.13749 65.54411,-28.23868 l 63.42969,-31.65989 1.94711,-16.44035 c 5.36129,-45.26763 36.90623,-71.37978 82.26703,-68.09867 65.22777,4.71815 89.98593,88.13374 38.7046,130.40413 -7.14694,5.89111 -14.97452,10.71111 -17.39461,10.71111 -3.39026,0 -4.37513,13.2976 -4.29087,57.93569 l 0.1093,57.9357 15.10312,9.15937 c 48.88064,29.64394 44.65113,102.50257 -7.47979,128.84796 -14.81514,7.48712 -37.51087,9.51366 -54.33749,4.85186 z m -16.62849,-135.06123 14.70011,-7.78608 v -55.59781 -55.59781 l -14.70011,-9.63873 -14.7001,-9.63872 -63.12397,31.49479 c -62.55073,31.2088 -63.12396,31.59741 -63.12396,42.79446 0,11.1634 0.7195,11.66168 59.66512,41.32026 32.81581,16.51132 61.2216,30.11399 63.12396,30.22815 1.90237,0.11417 10.0739,-3.29617 18.15895,-7.57851 z"
   id="path3249"
   inkscape:connector-curvature="0"
   transform="scale(10.416667)" /></svg>